ply
format ascii 1.0
comment Created in Blender version 4.0.2
element vertex 136
property float x
property float y
property float z
element face 268
property list uchar uint vertex_indices
end_header
-4.31967 1.7485945 0.99897075
-4.37521 1.6220559 0.99848616
-4.338392 1.5299672 0.9985734
-4.263001 1.4798734 0.9981727
-4.1719866 1.4916072 0.9999248
-2.7295446 1.4280708 0.74766076
-4.066583 1.6259358 0.7499274
-2.6871386 1.8259827 0.74759823
-4.136841 1.4982247 0.7499321
-4.4999995 1.3999999 0.74999994
-4.3151684 1.4906327 0.74992377
-4.36857 1.6930846 0.74992657
-4.4999995 1.8499999 0.74999994
-4.1796975 1.7834487 0.749928
-4.3734813 1.6936948 1.2500014
-4.074273 1.6581771 1.2500001
-4.1214104 1.503045 1.2500008
-4.3147964 1.49256 1.2500008
-4.182192 1.7791793 1.250001
-1.6348609 2.4890072 1.1480731
-1.4601246 2.474908 0.9931675
-1.5258491 2.4922705 1.01232
-1.3008072 2.489236 0.9817517
-1.1090245 2.4718263 1.2111762
-1.0764248 2.4968452 1.3110412
-1.2877651 2.4899888 1.5130006
-1.1396586 2.4759254 1.3914564
-1.5928552 2.4743354 1.4090075
-1.6445539 2.488488 1.317752
-1.4615781 2.4880998 1.5140793
-1.16409 2.488781 1.0701016
-1.1389579 2.1753242 1.1228559
-0.74999994 2.4999998 1.9999999
-1.9999999 2.4999998 1.9999999
-0.74999994 2.4999998 0.49999997
-1.9999999 2.4999998 0.49999997
-1.6425742 2.1595666 1.1723343
-1.6406825 2.1628346 1.3228599
-1.5689495 2.1715047 1.4391057
-1.5823159 2.1712356 1.0782906
-1.3865296 2.1599739 0.9720258
-1.5251883 2.1602404 1.0169367
-1.2405779 2.1657984 1.0107557
-1.1154225 2.164296 1.3385075
-1.1053451 2.1573348 1.1557002
-1.2012684 2.149532 1.4897138
-1.3878181 2.1640658 1.5267906
-1.545094 2.1484451 1.4925138
-1.2083181 2.1707323 1.4620395
-1.6678274 1.7749999 1.2203327
-1.5474522 1.7749999 0.9996962
-1.2765424 1.7749999 0.9698276
-1.1206597 1.7749999 1.1018817
-1.0828748 1.7749999 1.3034167
-1.1889173 1.7749999 1.4780377
-1.4058915 1.7749999 1.5485909
-1.619335 1.7749999 1.4187922
-0.65982145 2.3380954 0.6836309
-0.6568214 2.3590953 1.831369
-0.11267854 1.6294048 0.6711309
-0.123178594 1.6309047 1.821369
-2.8860517 1.2499999 1.5999999
-2.8860517 1.2499999 0.9
-2.4776587 0.93218815 1.2499999
-4.4999995 1.2499999 1.5999999
-4.4999995 1.2499999 0.9
-2.439318 0.83181244 0.17499998
-2.7561586 1.5112792 0.17499998
-2.439318 0.83181244 2.3249998
-2.7406063 1.4429935 1.7585986
-2.7561586 1.5112792 2.3249998
-4.4999995 1.3999999 1.7499999
-2.1426342 0.53796715 0.015594502
-0.34978345 0.6586556 0
-0.49999997 0.49999997 0.14999999
-2.0432518 0.4134958 0.14999999
-0.1512538 0.86833835 0
-2.619727 1.6327857 0
-0.99999994 1.9999999 0
-2.2525125 1.9999999 0
-2.0607681 0.44244358 1.2154661
-2.0432518 0.4134958 1.3365041
-2.0432518 0.4134958 2.35
-2.1426342 0.5379671 2.4844053
-0.49999997 0.49999997 2.35
-0.34978345 0.6586556 2.4999998
-2.619727 1.6327857 2.4999998
-2.706373 1.7936267 0.17499998
-2.3249998 2.175 0.17499998
-2.4999998 1.9999999 0.9
-2.4999998 1.9999999 1.5999999
-2.3249998 2.175 2.3249998
-2.6804683 1.8290635 1.755234
-2.706373 1.7936267 2.3249998
-2.2525125 1.9999999 2.4999998
-4.4999995 1.9249998 1.7249999
-0.99999994 1.9999999 2.4999998
-0.1512538 0.86833835 2.4999998
-4.4999995 1.9999999 0.9
0 1.4999999 0.49999997
0 1.0280894 0.21685372
0 1.4999999 1.9999999
-2.7755574e-17 1.0280894 2.2831461
-0.49999997 0.49999997 1.2499999
-0.41291875 0.3258375 2.4999998
-2.286013 0.22084466 2.4999998
-0.24999999 0 1.7499999
-2.5643005 0 1.7499999
-2.5643005 0 2.4999998
-0.24999999 0 2.4999998
-2.214177 0.2778524 0
-0.43868712 0.37737423 0
-2.5643005 0 0.74999994
-0.24999999 0 0.74999994
-0.24999999 0 0
-2.5643005 0 0
-4.0961905 1.5444252 0.9990638
-4.080914 1.6766503 0.9993151
-4.1704187 1.7664847 0.99922013
-4.0936766 1.60976 0.99815124
-4.2282495 1.4930642 0.99695486
-4.3361115 1.5605872 0.9969619
-4.349075 1.6506131 0.9961086
-4.2923894 1.7369914 0.9971793
-4.1820827 1.7497414 0.99821293
-4.1178093 1.6988664 0.99750453
-4.1083407 1.5711529 0.9373704
-4.212116 1.508723 0.9373704
-4.318069 1.5523864 0.9373704
-4.3295016 1.6749692 0.9373704
-4.2435985 1.7420838 0.9373704
-4.1459804 1.7136365 0.9373704
-4.1198316 1.6355898 0.7498704
-4.198916 1.5160041 0.7498704
-4.3323665 1.6161797 0.7498704
-4.218657 1.7384665 0.7498704
3 5 6 7
3 7 6 13
3 8 5 9
3 8 9 10
3 10 9 11
3 11 9 12
3 11 12 13
3 13 12 7
3 8 6 5
3 14 15 16
3 14 16 17
3 15 14 18
3 116 15 117
3 117 15 18
3 117 18 118
3 118 18 0
3 0 18 14
3 0 14 1
3 1 14 17
3 1 17 2
3 2 17 3
3 3 17 16
3 3 16 4
3 4 16 116
3 116 16 15
3 21 20 22
3 23 26 24
3 24 26 25
3 28 29 27
3 24 30 23
3 43 26 44
3 44 26 23
3 44 23 31
3 31 23 30
3 31 30 42
3 42 30 22
3 42 22 40
3 40 22 41
3 41 22 20
3 41 20 39
3 39 20 21
3 39 21 19
3 39 19 36
3 36 19 37
3 37 19 28
3 37 28 38
3 38 28 27
3 38 27 29
3 38 29 46
3 46 29 25
3 46 25 48
3 48 25 26
3 48 26 43
3 32 25 33
3 33 25 29
3 34 24 32
3 35 22 34
3 33 28 35
3 35 28 19
3 35 19 21
3 21 22 35
3 34 22 30
3 34 30 24
3 32 24 25
3 29 28 33
3 47 37 38
3 36 41 39
3 42 44 31
3 43 45 48
3 46 47 38
3 46 48 45
3 37 49 36
3 36 49 50
3 36 50 41
3 41 50 40
3 40 50 51
3 40 51 42
3 42 51 52
3 42 52 44
3 44 52 53
3 44 53 43
3 43 53 45
3 45 53 54
3 45 54 55
3 45 55 46
3 46 55 47
3 47 55 56
3 47 56 37
3 37 56 49
3 58 60 57
3 57 60 59
3 61 62 63
3 61 64 62
3 62 64 65
3 66 63 5
3 66 5 67
3 66 68 63
3 63 68 69
3 69 68 70
3 65 9 62
3 62 9 5
3 62 5 63
3 64 61 71
3 71 61 69
3 69 61 63
3 49 53 52
3 49 52 50
3 50 52 51
3 53 49 56
3 53 56 54
3 54 56 55
3 72 73 74
3 72 74 75
3 73 72 76
3 76 72 77
3 76 77 78
3 78 77 79
3 77 72 66
3 77 66 67
3 66 72 80
3 80 72 75
3 81 82 80
3 80 82 83
3 80 83 68
3 68 66 80
3 82 84 83
3 83 84 85
3 83 86 68
3 68 86 70
3 67 87 77
3 88 79 87
3 87 79 77
3 5 7 67
3 67 7 87
3 79 88 78
3 78 88 35
3 78 35 34
3 87 7 88
3 88 7 89
3 88 89 35
3 35 89 90
3 35 90 33
3 33 90 91
3 91 90 92
3 91 92 93
3 93 70 86
3 91 93 94
3 94 93 86
3 92 69 93
3 93 69 70
3 95 92 90
3 92 95 69
3 69 95 71
3 94 96 91
3 91 96 33
3 33 96 32
3 85 97 83
3 83 97 86
3 86 97 96
3 86 96 94
3 89 7 98
3 98 7 12
3 89 98 90
3 90 98 95
3 95 98 12
3 95 12 9
3 95 9 71
3 71 9 65
3 71 65 64
3 34 99 78
3 78 99 100
3 78 100 76
3 32 96 101
3 101 96 102
3 102 96 97
3 60 99 59
3 59 99 34
3 59 34 57
3 57 34 58
3 58 34 32
3 58 32 101
3 99 60 101
3 101 60 58
3 74 73 103
3 103 73 85
3 103 85 84
3 73 76 85
3 85 76 97
3 97 76 100
3 97 100 102
3 102 100 101
3 101 100 99
3 84 82 104
3 104 82 105
3 80 103 81
3 81 103 106
3 81 106 107
3 107 106 108
3 108 106 109
3 104 105 109
3 109 105 108
3 82 81 105
3 105 81 107
3 105 107 108
3 84 104 103
3 103 104 106
3 106 104 109
3 110 75 111
3 111 75 74
3 112 113 80
3 80 113 103
3 113 112 114
3 114 112 115
3 111 114 110
3 110 114 115
3 74 103 111
3 111 103 113
3 111 113 114
3 75 110 80
3 80 110 112
3 112 110 115
3 116 117 119
3 119 117 125
3 125 117 118
3 125 118 124
3 124 118 0
3 124 0 123
3 1 2 120
3 120 2 3
3 120 3 4
3 4 116 119
3 122 123 0
3 122 0 1
3 122 1 121
3 121 1 120
3 126 119 125
3 119 126 4
3 4 126 120
3 120 126 127
3 120 127 128
3 120 128 121
3 121 128 129
3 121 129 122
3 122 129 123
3 123 129 130
3 123 130 124
3 124 130 131
3 124 131 125
3 125 131 126
3 126 132 133
3 126 133 127
3 127 133 128
3 128 133 134
3 128 134 129
3 129 134 135
3 129 135 130
3 130 135 131
3 131 135 132
3 131 132 126
3 132 6 133
3 133 6 8
3 133 8 10
3 133 10 134
3 134 10 11
3 134 11 135
3 135 11 13
3 135 13 132
3 132 13 6
