ply
format ascii 1.0
comment Created in Blender version 4.0.2
element vertex 62
property float x
property float y
property float z
element face 120
property list uchar uint vertex_indices
end_header
0.25492868 -0.44635853 -0.10889073
0.031148672 -0.44841903 -0.27650964
0.03836023 -0.801383 -0.20939688
0.25411943 -0.7898781 -0.06338909
-0.09449029 -0.44517457 -0.27332214
-0.27502337 -0.448419 -0.04170701
-0.23202518 -0.80537397 -0.047324516
-0.16389674 -0.12569009 -0.015099774
-0.05067088 -0.7885792 -0.26647547
0.25591895 -0.44411376 0.10102573
0.25517794 -0.7939978 0.047507793
0.15482466 -0.12569009 0.0030551015
0.26102534 -0.0051050233 -0.049023125
0.03853374 -0.80012333 0.19714215
-0.27474973 -0.44042525 0.06976813
-0.0048595797 -0.42941034 0.27391127
-0.065752976 -0.79057086 0.25289127
-0.20831613 -0.80147123 0.03277955
-0.21160607 -0.005605904 -0.19819143
-0.15060644 -0.0026272926 0.23680711
0.21593812 -0.0072929123 0.19872263
-0.2843803 -0.012603918 -0.0021693958
0.37604502 0.011825463 0.38417622
0.5885734 0.02256113 -0.17461823
0.45215288 0.026175508 -0.41905817
-0.058226455 0.014501899 -0.56274605
0.1991679 0.0310898 2.219898
0.6459212 0.031673957 2.1339316
-0.38472688 0.01918969 0.4792932
-2.0509717 0.027432881 0.8807389
-1.7862883 0.029655138 -1.3582546
1.1361719 0.03138058 -1.9254547
2.2327511 0.032589376 0.035343263
2.1782992 0.032353565 0.48221493
0.0013227604 -0.045230564 -0.26281294
-0.013613482 -0.12569006 0.15333836
-0.1287521 0.34447262 0.59727937
-0.13002414 0.025743995 0.5975729
-0.37624693 0.3495492 0.48115936
0.34001258 0.34793526 0.503755
0.53089243 0.34523898 0.29863527
0.59132826 0.34497467 -0.17596272
0.4499437 0.34929103 -0.4198783
0.009302041 0.35001683 -0.61943585
-0.2598978 0.34550846 -0.56654173
-0.5828465 0.023305543 -0.21978326
-0.58266544 0.34622708 -0.21656233
-0.6163343 0.34714302 0.06344822
-0.61332077 0.018180331 0.054954175
0.20652543 0.33755133 2.2227073
0.64681435 0.33733934 2.129666
2.186757 0.3338131 0.4763842
2.2284834 0.3373433 0.033643533
1.1353382 0.3372964 -1.9304031
0.7240228 0.3377936 -2.118763
0.72661906 0.030965095 -2.1208265
-1.4832917 0.032362312 -1.6858253
-1.4790925 0.33774966 -1.6856731
-1.7864704 0.33737975 -1.3514715
-2.0585904 0.33770722 0.8811928
-1.8424568 0.33531395 1.2744225
-1.8395452 0.030114237 1.2739643
3 2 34 1
3 2 1 0
3 2 0 3
3 6 7 5
3 7 21 5
3 6 5 4
3 6 4 8
3 13 11 10
3 10 11 9
3 11 12 9
3 10 9 13
3 13 9 15
3 17 35 16
3 16 35 15
3 16 15 14
3 16 14 17
3 12 0 34
3 34 0 1
3 34 4 18
3 18 4 5
3 18 5 21
3 21 14 19
3 19 14 15
3 19 15 20
3 20 15 9
3 20 9 12
3 22 20 23
3 23 20 12
3 23 12 24
3 24 12 25
3 25 12 34
3 25 34 18
3 25 18 45
3 20 22 37
3 37 22 26
3 26 22 27
3 20 37 19
3 19 37 28
3 19 28 48
3 48 28 61
3 48 61 29
3 19 48 21
3 21 48 45
3 21 45 18
3 30 56 45
3 45 56 25
3 24 25 55
3 24 55 31
3 32 33 23
3 23 33 22
3 17 14 7
3 7 14 21
3 8 4 34
3 34 6 8
3 13 15 35
3 3 0 11
3 11 0 12
3 11 2 3
3 11 7 34
3 7 11 35
3 35 17 7
3 7 6 34
3 34 2 11
3 11 13 35
3 28 37 36
3 28 36 38
3 39 22 40
3 41 23 42
3 42 23 24
3 25 44 43
3 46 45 48
3 46 48 47
3 37 26 36
3 36 26 49
3 26 27 49
3 49 27 50
3 22 33 40
3 40 33 51
3 33 32 51
3 51 32 52
3 24 31 42
3 42 31 53
3 31 55 53
3 53 55 54
3 46 58 45
3 45 58 30
3 58 57 30
3 30 57 56
3 48 29 47
3 47 29 59
3 60 59 61
3 61 59 29
3 38 60 28
3 28 60 61
3 39 50 22
3 22 50 27
3 41 52 23
3 23 52 32
3 43 54 25
3 25 54 55
3 25 56 44
3 44 56 57
3 41 40 51
3 51 52 41
3 41 42 40
3 40 42 47
3 40 47 39
3 39 47 36
3 36 47 38
3 42 43 47
3 43 42 54
3 54 42 53
3 43 44 47
3 47 44 46
3 46 44 57
3 46 57 58
3 38 47 60
3 60 47 59
3 39 36 49
3 49 50 39
