ply
format ascii 1.0
comment Created in Blender version 4.0.2
element vertex 151
property float x
property float y
property float z
element face 298
property list uchar uint vertex_indices
end_header
0.5877116 0.082345985 0.054875433
-0.086851254 0.59292716 -0.17004822
-0.09744644 0.57957625 -0.17197615
-0.082052715 0.5806529 -0.18133873
0.09891159 0.5775637 -0.16760457
0.0870675 0.5826776 -0.17996667
0.08960253 0.5926014 -0.16830681
0.08487653 0.5940829 0.04205018
0.098201804 0.58222437 0.042189054
-0.08890816 0.16253895 -0.18144897
-0.10019522 0.16935396 -0.17081892
0.089271866 0.16488093 -0.18104628
0.10100736 0.17072676 -0.1668721
0.08496565 0.19718386 0.056992736
0.099168204 0.17893843 0.045003578
0.102635674 0.16864952 0.056542736
-0.1663535 0.08078301 -0.18202727
-0.1805644 0.093563825 -0.17212337
-0.16738236 0.10107589 -0.1716846
0.16722669 0.085882485 -0.1811757
0.17394815 0.09701526 -0.16766469
0.13918461 0.13428278 -0.17486513
0.17549174 0.09547696 0.056667503
0.19136344 0.08592104 0.055567265
0.1760823 0.09739642 0.036260568
-0.5974424 0.08050733 -0.17171727
-0.5871786 0.09282348 -0.16971412
-0.58248943 0.080610245 -0.181349
0.5986983 0.08000727 -0.16717422
0.58757114 0.08263579 -0.17986761
0.58568925 0.09390646 -0.16753097
0.58268917 0.09444008 0.041866608
0.5972952 0.08495285 0.042942505
-0.59749705 -0.09165992 -0.16966607
-0.5846552 -0.10324565 -0.1671413
-0.5847938 -0.090291835 -0.18096142
0.5821783 -0.10347392 -0.1676046
0.5872237 -0.09156167 -0.18004255
0.5974026 -0.094141096 -0.16772142
0.59869736 -0.08943896 0.04205023
0.5868389 -0.10276413 0.042189147
-0.16710481 -0.09351249 -0.1814312
-0.17382388 -0.104811564 -0.17081839
0.16927846 -0.095634446 -0.18061428
0.17554148 -0.10571339 -0.16586965
0.18174694 -0.099047504 0.055000342
0.18354023 -0.10372838 0.045006298
-0.08934557 -0.1733077 -0.18103094
-0.10095128 -0.17971562 -0.1668729
0.08953712 -0.17324959 -0.18104337
0.10159936 -0.17912023 -0.16642211
0.14039521 -0.14560638 -0.16861975
0.10061642 -0.17999928 0.05516691
0.08708261 -0.2046427 0.05641017
0.09914471 -0.19251536 0.042954523
-0.098859385 -0.58674055 -0.16760461
-0.08694712 -0.59178597 -0.18004256
-0.08941697 -0.6019478 -0.16821936
0.08700321 -0.60201484 -0.17010215
0.099040374 -0.58888894 -0.16543005
0.08960244 -0.5903952 -0.17969011
0.09886141 -0.58977944 0.03964243
0.08746528 -0.60201454 0.044862762
-0.08489788 -0.6033075 0.041664716
-0.098241396 -0.5907455 0.042428143
-0.09416427 -0.18639235 0.05520761
-0.09911453 -0.18792568 0.045004033
-0.1386815 -0.1441807 -0.17431316
-0.17752391 -0.10380441 0.05227178
-0.19122152 -0.094947174 0.055726558
-0.5894546 -0.102083124 0.041614693
-0.5976323 0.08473043 0.041623536
-0.20131266 0.08057635 0.056872655
-0.18743916 0.09407412 0.04524696
-0.1749321 0.09636801 0.055170983
-0.13956468 0.13561125 -0.1717286
-0.0991888 0.17305514 0.052271046
-0.09033223 0.1867567 0.055726506
-0.09745581 0.580956 0.04684848
-0.08604827 -0.59102124 0.05551065
0.08937215 -0.5894501 0.054958582
-0.58758765 -0.09144401 0.05495974
-0.5988439 -0.08717498 0.0425436
0.58652186 -0.09062599 0.05551396
-0.5871912 0.08257487 0.054943632
-0.58250535 0.094287224 0.04258549
-0.08218207 0.58023345 0.056467053
-0.087541014 0.5929351 0.044314764
0.08602403 0.5824476 0.05537002
0.14246796 -0.14699574 0.057507664
0.14249405 0.13786215 0.057507683
0.058144927 -0.0899411 0.058538504
0.1009627 -0.05087727 0.058359366
0.10162866 0.031047672 0.058911372
0.07968847 0.041994117 0.06901072
0.045300845 0.07515161 0.07529729
0.001318409 0.098671846 0.059349775
0.046805736 0.089118056 0.05909518
-0.05207147 0.08313294 0.05984778
-0.03678584 0.07887333 0.07427334
-0.08237993 0.036993172 0.07135262
-0.10796722 0.023227442 0.058016777
-0.09164006 -0.018693006 0.0702086
-0.058083244 -0.0757966 0.071921036
-0.093371406 -0.04398354 0.05971427
-0.0608087 -0.08653402 0.059270885
0.0027488044 0.08534827 0.074989006
0.09133684 -0.0027185827 0.07348179
0.08407547 -0.042895332 0.06782495
0.057629734 -0.07634467 0.07217707
0.055604678 -0.07618494 0.256875
0.08700686 -0.029290572 0.25687468
0.07608598 0.051496185 0.25687438
0.022719415 0.08589452 0.25544006
0.020856777 0.08212582 0.12811844
-0.01376219 0.084326245 0.11883833
-0.022463357 0.094923116 0.25691476
-0.07583481 0.05149619 0.25687438
-0.0867557 -0.02929056 0.25687468
-0.055353522 -0.07618494 0.256875
-0.14231156 0.13778351 0.057507623
-0.1422854 -0.14691725 0.057507604
-0.018845951 -0.076399244 0.124275826
0.017703272 -0.07639886 0.12192738
0.07638416 -0.076368645 0.25855914
0.023858115 -0.07681665 0.30563876
0.074047565 -0.07630493 0.2950194
-0.023606965 -0.07681665 0.30563876
-0.07518412 -0.07635434 0.29375312
-0.0761958 -0.07637912 0.2587272
-0.02249579 0.09077992 0.30165827
0.022941077 0.08645706 0.30289596
0.022735428 0.10140108 0.26381606
-0.091718145 0.049106654 0.25820777
-0.09899179 -0.042443287 0.25859296
-0.05079744 0.08923202 0.2613964
-0.10650764 0.006254551 0.26299462
0.07382419 0.07294484 0.25903517
0.10288459 0.019727044 0.25860843
0.10199811 -0.03735527 0.2593402
-0.049658295 0.08998599 0.28585443
-0.08667925 0.054845333 0.29457083
-0.106488824 -0.003925051 0.2898047
0.058235496 0.08571787 0.2864189
0.09322557 0.047792323 0.28602278
0.106618345 -0.00070102117 0.290729
0.094338976 -0.05357019 0.28893816
-0.09099432 -0.016779663 0.3045691
-0.094757386 -0.052017003 0.28916493
0.086748034 -0.031953465 0.30373594
0.07773698 0.047773983 0.3032174
3 0 83 39
3 39 32 0
3 80 79 62
3 62 79 63
3 3 2 1
3 5 6 4
3 1 6 5
3 1 5 3
3 8 4 6
3 8 6 7
3 5 4 11
3 12 11 4
3 15 12 14
3 14 13 15
3 18 16 17
3 12 21 11
3 20 19 21
3 21 19 11
3 23 24 22
3 27 25 26
3 26 17 27
3 17 16 27
3 29 30 28
3 19 20 29
3 29 20 30
3 30 31 32
3 32 28 30
3 33 35 34
3 37 38 36
3 28 38 29
3 29 38 37
3 40 36 38
3 40 38 39
3 37 36 43
3 43 36 44
3 45 44 46
3 44 51 43
3 50 49 51
3 51 49 43
3 54 50 52
3 53 54 52
3 56 57 55
3 59 58 60
3 60 49 50
3 60 50 59
3 62 58 61
3 61 58 59
3 58 57 56
3 58 56 60
3 57 63 64
3 64 55 57
3 56 55 47
3 48 47 55
3 65 48 66
3 48 67 47
3 42 41 67
3 67 41 47
3 35 41 42
3 35 42 34
3 33 70 82
3 70 33 34
3 35 25 27
3 25 35 33
3 26 71 85
3 71 26 25
3 74 18 17
3 74 17 73
3 73 72 74
3 18 75 16
3 10 9 75
3 75 9 16
3 3 9 2
3 2 9 10
3 87 1 78
3 78 1 2
3 79 64 63
3 80 62 61
3 81 84 82
3 82 84 71
3 82 70 81
3 83 40 39
3 31 0 32
3 85 71 84
3 7 87 88
3 88 87 86
3 87 78 86
3 88 8 7
3 59 50 61
3 61 50 54
3 61 54 80
3 80 54 53
3 89 52 50
3 89 50 51
3 89 51 44
3 89 44 45
3 44 36 46
3 46 36 40
3 83 45 46
3 83 46 40
3 30 20 31
3 31 20 24
3 31 24 23
3 31 23 0
3 90 22 24
3 90 24 20
3 90 20 21
3 90 21 12
3 90 12 15
3 12 4 14
3 14 4 8
3 88 13 14
3 88 14 8
3 32 39 28
3 28 39 38
3 62 63 58
3 58 63 57
3 6 1 7
3 7 1 87
3 49 47 43
3 43 47 19
3 47 49 56
3 56 49 60
3 19 47 41
3 19 41 16
3 16 41 35
3 16 35 27
3 16 9 19
3 11 9 3
3 11 3 5
3 11 19 9
3 29 37 19
3 19 37 43
3 82 71 33
3 33 71 25
3 94 93 97
3 94 97 95
3 99 98 100
3 98 101 100
3 103 104 105
3 101 104 102
3 102 104 103
3 98 99 96
3 108 109 92
3 92 109 91
3 108 92 93
3 108 93 107
3 107 93 94
3 97 96 106
3 97 106 95
3 99 106 96
3 101 102 100
3 109 103 105
3 109 105 91
3 110 109 111
3 111 109 108
3 111 108 107
3 111 107 112
3 112 107 94
3 112 94 95
3 112 95 113
3 113 95 114
3 114 95 106
3 114 106 115
3 115 106 99
3 115 99 116
3 116 99 117
3 117 99 100
3 117 100 102
3 117 102 118
3 118 102 103
3 118 103 119
3 80 53 79
3 79 53 65
3 65 53 105
3 105 53 91
3 91 53 52
3 91 52 89
3 91 89 45
3 91 45 92
3 92 45 23
3 23 45 83
3 23 83 0
3 92 23 93
3 93 23 22
3 93 22 90
3 93 90 97
3 97 90 15
3 97 15 13
3 97 13 96
3 88 86 13
3 13 86 77
3 13 77 96
3 96 77 98
3 98 77 76
3 98 76 120
3 98 120 101
3 101 120 74
3 101 74 72
3 101 72 104
3 104 72 69
3 84 81 72
3 72 81 69
3 104 69 68
3 104 68 105
3 105 68 121
3 105 121 65
3 78 76 77
3 78 77 86
3 84 72 73
3 84 73 85
3 70 68 69
3 70 69 81
3 79 65 66
3 79 66 64
3 64 66 55
3 55 66 48
3 18 74 120
3 18 120 75
3 75 120 10
3 10 120 76
3 76 78 10
3 10 78 2
3 48 65 121
3 48 121 67
3 67 121 42
3 42 121 68
3 68 70 42
3 42 70 34
3 85 73 26
3 26 73 17
3 109 123 103
3 103 123 122
3 110 123 109
3 124 126 110
3 110 126 125
3 125 123 110
3 103 122 119
3 119 122 127
3 119 127 128
3 119 128 129
3 123 115 122
3 115 116 122
3 122 116 127
3 127 116 130
3 123 114 115
3 114 123 113
3 113 123 125
3 113 125 131
3 113 131 132
3 116 117 133
3 133 117 118
3 133 118 134
3 134 118 129
3 129 118 119
3 116 133 135
3 134 136 133
3 137 113 132
3 130 116 140
3 140 116 135
3 140 135 141
3 141 135 133
3 141 133 142
3 142 133 136
3 142 136 134
3 142 134 148
3 148 134 128
3 128 134 129
3 132 143 137
3 137 143 144
3 137 144 138
3 138 144 145
3 138 145 139
3 139 145 146
3 139 146 124
3 124 146 126
3 127 130 147
3 131 125 150
3 150 125 149
3 128 127 147
3 128 147 148
3 147 130 141
3 141 130 140
3 141 142 147
3 142 148 147
3 126 149 125
3 144 150 145
3 145 150 149
3 145 149 146
3 146 149 126
3 132 131 143
3 143 131 150
3 143 150 144
3 112 113 137
3 112 137 138
3 112 138 111
3 111 138 139
3 111 139 124
3 111 124 110
