ply
format ascii 1.0
comment Created in Blender version 4.0.2
element vertex 178
property float x
property float y
property float z
element face 352
property list uchar uint vertex_indices
end_header
0.9985404 0.43449008 0.08447997
0.915832 0.417839 0.32711744
0.8857834 0.4364683 0.122353815
0.9045176 0.44589084 -0.24654934
0.6966392 0.4694516 0.20960043
0.8309518 0.45309648 -0.06596166
0.6963426 0.48587483 -0.24654251
0.691109 0.4834829 -0.0076697916
0.5351548 0.53901803 0.14072554
0.493509 0.57126784 -0.24655682
0.5475603 0.5432385 -0.09849027
0.40457767 0.61998045 0.099313445
0.35208046 0.66925204 -0.24649337
0.248165 0.76371884 -0.24654296
0.26121676 0.7414055 0.07446776
-0.39641577 0.45754594 0.22439101
-0.35438812 0.43755224 0.26760262
-0.2787133 0.41355252 0.35476333
-0.30288953 0.6156496 0.10045017
-0.027611472 0.42288435 0.30657595
-0.062807105 0.4456756 0.24886556
-0.23554718 0.52707565 0.14891419
-0.12247165 0.49197912 0.18288648
0.058338523 0.5336433 0.1449554
0.034193844 0.47841325 0.19934154
0.31328118 0.58177686 0.11552927
0.29154164 0.48672548 0.18877643
0.5355011 0.45370528 0.23572497
0.68722177 0.43424016 0.27472174
0.45440173 0.5043892 0.16944134
0.07319911 -0.72689795 0.6729849
0.36793453 -0.7275175 0.67288536
0.41899025 -0.6981317 0.6780682
0.025192462 -0.69760245 0.6781465
0.4477178 -0.65103954 0.6863724
-0.31929982 0.21855514 0.83970803
-0.31929576 -0.11745444 0.7804548
-0.002267383 -0.65544474 0.6855966
-0.11863564 -0.46559066 0.71905005
-0.0055880696 -0.4830228 0.71598935
-0.11738375 -0.11747104 0.7804397
-0.11767164 0.34481603 0.8619689
0.50504017 0.34481147 0.8619673
0.56740797 -0.07898986 0.7872323
0.68082774 -0.00078111887 0.8009871
0.8008306 0.037653476 0.8078081
0.99856484 0.34482342 0.86196905
0.99856484 0.04007177 0.808228
0.9985628 0.44089448 -0.24654919
0.99856484 0.08036633 0.5448179
0.99856484 0.11669661 0.19181156
0.99856484 0.13324776 -0.24641183
-0.9982035 1.44127 -0.24655679
-0.9981862 1.3559356 -0.03388959
-0.99819213 0.52853477 -0.17993739
-0.9982014 -0.31114322 -0.24655819
-0.998186 0.49785686 -0.005798027
-0.9981869 0.37222385 -0.03177342
-0.99820346 0.33646464 0.17111868
-0.99820346 0.00042372942 0.111863755
-0.99819773 0.035241753 -0.085569635
-0.9954628 -0.31283158 -0.14862534
-0.79685295 -0.31663507 -0.12593949
-0.47175884 -0.33358216 -0.24654979
-0.49318522 -0.33539122 -0.121264815
-0.0055923536 -0.39947343 -0.24655727
-0.19958232 -0.3726046 -0.0060338676
-0.3596064 -0.36054844 0.123099744
-0.005596325 -0.40792096 0.06289134
-0.25802505 -0.38287216 0.2501774
-0.2033258 -0.39893967 0.34944078
-0.15657164 -0.42108625 0.4660864
-0.0055924132 -0.44339448 0.4493619
-0.127844 -0.44367194 0.59415555
-0.12042345 0.35818893 0.78376967
-0.11537263 0.21857035 0.83970356
-0.14501393 0.37980568 0.6420714
-0.13318986 0.2477116 0.6742498
-0.17276925 0.27235496 0.53470457
-0.19269145 0.39727098 0.5078683
-0.25140458 0.2998779 0.3785035
-0.5730105 0.35302195 0.077096075
-0.5785816 0.4794906 0.098241866
-0.79002446 0.49407005 0.015520096
-0.7680157 0.36637104 0.001438126
0.40352952 -0.6320424 -0.24655399
0.34527522 -0.64701 -0.24654105
0.4463632 -0.5718191 -0.2465564
0.0742217 -0.64633614 -0.24655333
0.79869133 0.13008152 -0.24655178
0.35116547 0.25312784 -0.24655777
0.45076847 -0.22409892 -0.24655703
0.6634337 0.08251305 -0.24655107
0.5661415 0.008561522 -0.24655136
0.48824334 -0.10159674 -0.24650395
0.024896704 -0.61637497 -0.24653643
-0.06573873 1.102336 -0.24655312
-0.3661161 1.2961676 -0.24655598
-0.50638294 1.356083 -0.24655506
-0.6904109 1.4083552 -0.24655768
-0.8769025 1.4368274 -0.24655572
-0.32580042 0.6665375 0.08764113
-0.4361372 0.8900282 0.048178405
-0.27244538 1.2438815 -0.01412794
-0.44125003 1.3267753 -0.028744921
-0.8906077 1.3395612 -0.031031013
-0.9982015 1.4391828 -0.048563182
-0.78383887 1.2928492 -0.022850677
-0.6738403 1.2097385 -0.008197382
-0.8461993 0.5267602 -0.16990712
-0.5542799 1.0744166 0.015673116
-0.6882884 0.5204388 -0.13393125
-0.56363875 0.5124354 -0.08857976
-0.45030928 0.5021199 -0.030165553
-0.3098078 0.48437375 0.070590116
-0.1535382 0.45643106 0.2301781
-0.005588658 -0.5710754 0.31225565
-0.0038146675 -0.5691097 -0.24654758
0.002609849 -0.60866773 0.28666708
0.058454245 -0.6559394 0.19675809
0.02508115 -0.63676023 0.22019362
0.34570575 -0.6859087 0.39435083
0.09782581 -0.69146043 0.43517855
0.09781405 -0.659424 0.116170645
0.34570205 -0.6572025 0.075530276
0.3856756 -0.68003255 0.41427386
0.41894728 -0.6335154 0.21514656
0.44911122 -0.5634819 0.2379161
0.44125903 -0.6015784 0.21554607
0.38569307 -0.64770293 0.054427132
0.44919938 -0.33543015 0.742021
0.8196576 0.124166355 0.056178197
0.8238906 0.099938035 0.3746861
0.83512014 0.06937078 0.61995316
0.7375709 0.07082546 0.48212057
0.72165525 0.100335464 0.061204076
0.6509767 0.063883334 0.115608044
0.62960756 0.018891275 0.47524008
0.5841187 0.016822666 0.08364491
0.5557684 -0.047400057 0.47702575
0.5172357 -0.06168273 0.119130515
0.50618255 -0.12489474 0.55281115
0.47180456 -0.16602007 0.28982368
0.47603047 -0.21877286 0.76259243
0.45254797 -0.2543946 0.36747074
0.998564 0.36800146 0.7235024
0.9985651 0.4015739 0.47125062
-0.13335559 -0.08965039 0.6226357
-0.17730454 -0.062023014 0.46605533
-0.27634013 -0.029931843 0.2839856
-0.38128674 -0.008641243 0.16328408
-0.4899221 0.007273406 0.07301626
-0.60964495 0.01955542 0.00330545
-0.7249548 0.027687237 -0.042794764
-0.85640085 0.033381253 -0.075087175
-0.6241986 -0.3273527 -0.06550582
-0.47979242 -0.3421746 0.018760905
-0.78117085 -0.005523175 0.14553288
-0.6066854 -0.020528972 0.23071009
-0.4117961 -0.05774787 0.44176355
-0.35345095 -0.07970774 0.56629467
-0.32289612 -0.10394156 0.70365644
-0.88711333 0.33524346 0.1779269
-0.3728341 0.32683784 0.22563156
-0.4657085 0.29198486 0.42336044
-0.39774597 0.27390087 0.52581096
-0.34856433 0.25335923 0.6423438
-0.3228302 0.23200276 0.76339775
-0.9195703 -0.0002052486 0.11547203
-0.734647 0.32738858 0.2225708
-0.65110826 0.319921 0.2648713
-0.5743784 0.31083927 0.31628913
-0.4872231 -0.03957957 0.33873212
-0.7811808 1.4233342 -0.045774296
-0.59337145 1.3809844 -0.038306743
-0.19005913 1.1953785 -0.24655727
-0.039520815 1.07638 0.015406013
0.0742778 0.9674253 -0.24655142
3 1 146 0
3 0 2 1
3 6 5 3
3 2 4 1
3 0 48 2
3 9 10 6
3 5 2 48
3 5 48 3
3 7 6 10
3 9 11 10
3 11 9 12
3 13 14 12
3 12 14 11
3 8 10 11
3 4 7 8
3 2 5 4
3 7 4 5
3 6 7 5
3 10 8 7
3 115 22 21
3 115 20 22
3 115 16 20
3 15 16 115
3 1 19 17
3 4 28 1
3 4 27 28
3 27 4 29
3 8 29 4
3 101 18 11
3 11 25 29
3 29 8 11
3 25 11 18
3 28 19 1
3 23 21 22
3 20 24 23
3 23 22 20
3 20 19 27
3 28 27 19
3 23 25 21
3 18 21 25
3 27 29 26
3 19 20 16
3 16 17 19
3 27 26 20
3 24 20 26
3 25 23 29
3 26 29 23
3 26 23 24
3 40 38 39
3 44 42 43
3 42 44 45
3 47 46 45
3 41 75 42
3 30 31 37
3 32 34 31
3 31 34 130
3 143 40 130
3 35 36 75
3 40 75 36
3 143 43 42
3 130 39 31
3 39 130 40
3 40 143 42
3 37 33 30
3 42 75 40
3 39 37 31
3 42 45 46
3 49 48 47
3 48 49 50
3 50 51 48
3 48 0 146
3 48 146 145
3 145 46 48
3 48 46 47
3 55 61 60
3 60 59 57
3 52 53 106
3 53 52 54
3 55 54 52
3 54 55 57
3 55 60 57
3 54 57 56
3 58 57 59
3 62 55 63
3 65 66 63
3 70 68 72
3 73 39 38
3 73 72 39
3 71 72 73
3 72 71 70
3 66 69 67
3 66 67 156
3 64 156 155
3 64 155 62
3 61 55 62
3 70 69 66
3 156 64 66
3 68 66 65
3 63 66 64
3 68 70 66
3 63 64 62
3 79 78 76
3 15 163 16
3 80 79 17
3 79 80 78
3 57 83 56
3 84 83 57
3 81 83 84
3 83 81 82
3 82 81 15
3 163 15 81
3 163 17 16
3 17 163 80
3 76 78 77
3 77 74 76
3 74 77 75
3 41 74 75
3 55 99 90
3 99 55 52
3 52 100 99
3 13 90 177
3 13 12 90
3 9 90 12
3 6 90 9
3 3 90 6
3 89 90 51
3 90 89 92
3 93 90 92
3 94 90 93
3 91 90 94
3 63 90 65
3 90 63 55
3 3 48 90
3 51 90 48
3 95 117 88
3 88 117 65
3 98 175 99
3 175 98 97
3 87 88 91
3 88 87 86
3 88 65 91
3 175 96 177
3 91 65 90
3 85 86 87
3 177 90 175
3 99 175 90
3 101 11 14
3 105 173 53
3 106 53 173
3 107 173 105
3 108 174 107
3 110 102 103
3 174 173 107
3 110 103 108
3 103 102 101
3 176 101 14
3 101 176 103
3 174 108 104
3 103 104 108
3 18 114 21
3 21 114 115
3 114 18 101
3 113 101 102
3 111 108 109
3 105 53 109
3 109 53 54
3 108 111 112
3 107 105 109
3 101 113 114
3 112 113 110
3 102 110 113
3 107 109 108
3 110 108 112
3 14 13 177
3 39 116 37
3 72 116 39
3 68 116 72
3 68 117 116
3 117 68 65
3 33 37 118
3 116 118 37
3 122 30 119
3 33 119 30
3 119 33 120
3 118 120 33
3 119 123 122
3 118 116 117
3 119 120 95
3 120 118 117
3 117 95 120
3 119 88 123
3 95 88 119
3 31 30 122
3 122 121 31
3 121 122 123
3 123 124 121
3 124 123 88
3 88 86 124
3 32 31 125
3 34 32 126
3 125 126 32
3 125 31 121
3 127 34 128
3 126 128 34
3 126 125 129
3 125 121 124
3 124 129 125
3 127 128 87
3 126 87 128
3 129 124 86
3 126 129 85
3 86 85 129
3 87 126 85
3 130 87 91
3 127 87 130
3 34 127 130
3 132 133 134
3 45 134 133
3 135 89 131
3 131 132 134
3 134 135 131
3 135 92 89
3 134 45 44
3 136 92 135
3 135 134 136
3 137 136 134
3 44 137 134
3 43 137 44
3 138 93 92
3 92 136 138
3 137 138 136
3 139 138 137
3 137 43 139
3 93 138 140
3 139 140 138
3 140 94 93
3 141 140 139
3 139 43 141
3 141 43 143
3 142 94 140
3 140 141 142
3 143 142 141
3 142 91 94
3 144 91 142
3 142 143 144
3 130 144 143
3 130 91 144
3 47 45 133
3 133 49 47
3 49 133 132
3 132 50 49
3 131 50 132
3 50 131 51
3 89 51 131
3 42 74 41
3 76 74 145
3 17 79 146
3 145 79 76
3 46 74 42
3 74 46 145
3 17 146 1
3 145 146 79
3 148 149 69
3 149 150 67
3 150 151 156
3 151 152 155
3 152 153 155
3 155 153 62
3 73 147 71
3 147 148 71
3 69 70 148
3 67 69 149
3 155 156 151
3 62 154 61
3 154 60 61
3 70 71 148
3 156 67 150
3 153 154 62
3 38 40 73
3 40 147 73
3 59 60 168
3 154 168 60
3 153 157 168
3 168 154 153
3 157 153 158
3 152 158 153
3 150 152 151
3 152 150 158
3 150 172 158
3 172 150 149
3 149 159 172
3 148 159 149
3 148 160 159
3 147 161 148
3 160 148 161
3 36 161 147
3 147 40 36
3 162 57 58
3 162 84 57
3 84 162 169
3 81 84 169
3 170 81 169
3 81 170 171
3 171 163 81
3 164 163 171
3 165 163 164
3 165 80 163
3 80 165 78
3 166 78 165
3 166 77 78
3 77 166 75
3 75 166 167
3 35 75 167
3 58 59 162
3 168 162 59
3 157 162 168
3 157 169 162
3 158 169 157
3 158 170 169
3 158 171 170
3 171 158 172
3 171 172 164
3 159 164 172
3 159 165 164
3 165 159 160
3 165 160 166
3 166 160 161
3 161 167 166
3 167 161 36
3 36 35 167
3 109 54 56
3 109 56 83
3 109 83 111
3 111 83 112
3 83 113 112
3 82 113 83
3 82 114 113
3 114 82 15
3 15 115 114
3 106 100 52
3 100 106 173
3 100 173 99
3 174 99 173
3 99 174 98
3 104 98 174
3 98 104 97
3 97 104 103
3 103 175 97
3 176 175 103
3 176 96 175
3 96 176 177
3 14 177 176
