ply
format ascii 1.0
comment Created in Blender version 4.0.2
element vertex 213
property float x
property float y
property float z
element face 374
property list uchar uint vertex_indices
end_header
0.8823008 1.1568232 -0.5439589
1.0532541 0.6898502 -0.1325211
0.10703407 0.8902379 0.097891755
0.4210276 1.461204 0.0037100038
0.9371885 0.67429626 -0.42549333
0.9654062 0.7321137 -0.5792083
0.7360536 1.2858052 -0.043327533
0.31889203 -0.07850176 -0.65036076
0.20822245 -0.024952888 -0.5868094
-0.1620808 -0.07714313 -0.5367612
1.1421181 0.8091905 -0.27239153
-0.17182131 0.9505935 -0.26085246
0.7096771 -0.07227695 -0.5412648
-0.04752765 -0.003016591 -0.6526468
-0.5329192 -0.029612184 -0.39494753
0.34871632 0.031209052 -0.4373979
-0.36430898 0.7958094 0.062420316
0.1741849 0.11906743 -0.65200347
0.078624226 0.9695792 -0.22872426
-0.069083035 0.13302982 -0.6750874
-0.6582147 0.20643562 -0.33192828
0.12495736 0.8649199 -0.4223992
-0.14361507 0.8244115 -0.4502107
1.105903 1.211676 -0.20020574
0.69741863 0.09767604 -0.257778
0.6508827 0.055123925 -0.23987785
-0.52064645 0.18043643 -0.3310394
-0.54516333 0.56143224 -0.04250462
0.05659436 0.2822944 -0.7115253
0.63942146 1.2543428 -0.14721288
0.2719802 0.37758744 -0.69037014
0.59400475 0.33535415 -0.538801
-0.10199238 0.40723526 -0.6810309
0.9972546 0.29944646 -0.3091006
0.79475933 0.25575244 -0.4845586
0.701474 1.2438551 -0.38767043
0.36165577 0.86974883 -0.30230615
0.9605232 0.72850204 0.033417653
0.48998123 0.47528076 -0.5263056
0.3823238 0.39106083 -0.50688964
0.36488652 0.8733984 0.047941264
0.6304707 0.5064713 -0.54337776
0.76846945 1.5310161 0.7439372
0.85971236 0.43958926 -0.52417916
0.18743372 0.5070342 -0.67874056
0.8945827 1.2629478 -0.018851575
0.32512367 0.5511278 -0.5449629
-0.046042226 0.58527005 -0.59576637
0.8238506 1.2462965 0.6485594
0.05679619 0.59750295 -0.5395492
0.63558394 0.62701094 -0.5204766
0.1639728 0.6765002 -0.5236248
0.7219767 0.74611807 -0.44891542
-0.2359831 0.69205356 -0.48919994
0.19498336 0.5844954 0.3050048
0.47221765 -0.19958597 -0.5174388
0.47306225 -0.034259558 -0.47652906
-0.39042392 0.75550056 -0.3693402
-0.24344668 0.07901633 -0.57769567
0.5946707 1.1074392 -0.07377807
0.24100399 1.6343775 0.19550255
-0.44211042 0.21765882 -0.45780155
1.0991583 1.0316082 -0.22764732
0.8807879 1.5689006 0.65529686
0.6723082 1.0803794 -0.35336143
0.22415951 1.3132108 0.06553626
0.6710461 0.8935311 -0.47834867
0.5262801 1.2629235 -0.07990067
1.0905402 0.89088094 -0.017165216
0.8123237 0.80054855 -0.6452081
-0.4664365 0.5864186 0.10371208
-0.26719427 0.33684236 -0.61623514
-0.48005396 0.4566635 -0.42980814
-0.26184714 0.5023502 -0.57760763
0.28950024 1.29738 0.15710072
-0.6840056 -0.045977473 -0.21423599
-0.5001872 -0.12663934 0.009341145
0.5715449 0.95248175 0.011942129
-0.30324605 -0.023379385 0.2515097
-0.023543548 0.5241811 0.39824277
0.111664176 1.3662132 0.22230831
-0.72322595 0.052173495 -0.06693019
-0.6023779 0.043329477 0.077337615
0.74118483 1.4155436 0.7460556
0.7563301 1.2035432 0.046160594
0.8046187 -0.21695736 0.089494556
-0.10654817 0.80457854 0.20970741
0.74372166 -0.2013123 -0.5417388
-0.45268312 0.3160619 0.17444552
-0.3872167 0.43847215 0.24390352
1.1291468 0.771685 -0.4992989
0.32947668 -0.19399256 -0.6605289
0.8919657 1.1757929 0.37752897
-0.7213043 0.2499131 -0.10042901
0.52865386 0.87044954 0.14284123
0.61188644 0.053490937 -0.1841004
0.4449462 -0.081066966 0.33270893
0.9342683 1.181051 0.050764043
0.52073413 0.89740324 -0.26736128
0.95092857 1.4928036 0.5640192
0.13537231 1.5930963 0.36469337
-0.5805978 0.2745418 -0.10534308
0.8368637 1.399792 0.24532495
-0.13091151 0.9448545 0.011401928
0.8261895 -0.17300332 -0.36538956
0.9765419 0.94947267 -0.6448865
0.61215717 -0.06408328 -0.21223377
1.0858485 1.09665 -0.4092757
0.6729438 0.0499714 -0.13687123
0.61121565 0.14406174 -0.4220456
0.96178585 0.47322357 0.15051308
0.77285427 1.1052455 0.0918939
0.5521949 -0.21927643 0.28488106
-0.19070473 0.5697465 0.2802632
0.6325091 -0.0049825907 -0.40345377
0.3254812 -0.008749068 0.2942124
0.39302805 0.018105447 0.12086354
0.4556049 0.7148284 0.22997428
0.7015348 0.09277141 0.02193842
0.067427844 0.7193018 0.25353688
0.3050532 0.6918994 0.26003814
1.0126724 0.29974192 -0.024152761
1.0468732 0.43372905 0.0019678222
0.4440911 0.42735136 0.2765266
1.0911783 0.5137193 -0.2750954
0.43947357 -0.21536157 0.37366658
0.6565051 1.1142269 0.013477913
0.8123408 -0.0735122 0.0057289232
-0.16651492 -0.19857347 0.26199
0.51725185 -0.039674163 0.13046835
0.6995337 0.6010921 0.24391031
0.17632467 -0.09616637 0.33300424
-0.10202563 0.008012533 0.35720494
0.31268567 1.4734972 0.24614367
-0.45429847 0.041134417 0.091394104
0.7076974 -0.0077127814 0.00045625746
-0.26838338 0.073924065 0.32564154
0.16446719 0.049401164 0.42210427
0.05637834 0.17063475 0.4282642
0.58296496 0.22722149 0.18991414
0.35706475 0.30282044 0.44263566
0.8188487 0.7953179 0.12333167
-0.10986638 0.27309114 0.40187037
0.764869 0.29586512 0.2329638
0.2858154 0.460778 0.45996466
0.07734344 0.37099284 0.46408117
-0.13511656 -0.2059257 0.15584484
0.50667375 -0.19414651 0.08530455
0.58689356 -0.21752214 0.16112764
0.35203865 -0.15825555 0.21444736
-0.07650571 -0.15008333 0.13872558
0.44280097 -0.14029068 0.069150664
0.058574732 -0.16639054 -0.18606427
-0.2489494 -0.20721632 0.010098911
-0.1118571 -0.21274823 -0.076257624
-0.24548934 -0.17196679 -0.053487595
-0.34010866 -0.20896119 -0.2011218
0.42350006 -0.17347258 0.034439806
-0.061308388 -0.20807159 -0.09468227
0.49662837 -0.18900853 0.010284431
-0.26707503 -0.20471662 -0.12894912
0.46549937 -0.2080971 -0.021254724
0.37834606 -0.16781142 -0.019577991
0.3987262 -0.14306727 0.003785395
0.8944554 -0.20229498 -0.065157846
0.5810368 -0.19315264 -0.1026137
0.43374717 -0.17927954 -0.057456613
-0.07595929 -0.19691497 -0.19668071
0.47875753 -0.2031047 -0.1385853
0.41607124 -0.20210272 -0.08345959
0.36217588 -0.16377687 -0.04593871
-0.24253291 -0.1663211 -0.26587504
0.65153855 -0.21571714 -0.17202856
0.34334195 -0.16893 -0.07246042
0.3992778 -0.22942469 -0.1092182
0.3806231 -0.20010254 -0.13175839
-0.117506824 -0.2177752 -0.2206199
0.36124954 -0.19053376 -0.20254268
0.3212702 -0.16847509 -0.19036025
-0.13181 -0.21238574 -0.24828257
0.44830382 -0.19495615 -0.1663993
-0.38814056 -0.069624424 -0.38671297
0.7559011 -0.19780374 -0.25073722
0.44297484 -0.20304817 -0.22222802
0.44471958 -0.20620343 -0.27017787
0.421312 -0.20516276 -0.41746166
-0.09902031 -0.15352479 -0.3915292
-0.04764822 -0.16299951 -0.41085884
-0.08992391 -0.22107625 -0.45221958
0.61799383 -0.20965207 -0.30689117
0.53880095 -0.21462494 -0.32682857
0.49311525 -0.21201411 -0.32606876
0.37049076 -0.18176118 -0.40360054
0.05879581 -0.12635273 -0.43937165
-0.0424598 -0.21748936 -0.4599328
-0.19549221 -0.19715121 -0.52518314
0.014072001 -0.15257606 -0.43131563
0.32102117 -0.1520842 -0.45974424
0.10429217 -0.15388295 -0.45598593
0.008643427 -0.2123926 -0.48191115
0.8372298 0.10765505 -0.18781082
0.404309 -0.22436598 -0.45966762
0.33643767 -0.17695394 -0.44063938
0.16612503 -0.14116606 -0.47624335
0.052010104 -0.19006765 -0.4942293
0.12089152 -0.22680214 -0.5175896
0.08797206 -0.1963771 -0.5107989
0.16050367 -0.20408502 -0.5234336
0.6929415 0.08385438 -0.20812595
0.37069482 -0.17646092 -0.49281514
0.2085626 -0.19515163 -0.5366349
0.3524043 -0.20174584 -0.5171189
0.85558367 1.086259 0.105332434
3 124 1 122
3 106 114 95
3 69 105 5
3 18 11 103
3 11 18 21
3 97 62 23
3 81 82 93
3 82 81 76
3 43 52 4
3 50 52 43
3 53 49 47
3 125 131 128
3 13 19 17
3 49 22 51
3 41 50 43
3 41 43 34
3 34 31 41
3 9 13 8
3 65 59 126
3 44 32 47
3 12 56 114
3 31 38 41
3 38 50 41
3 36 98 50
3 56 38 31
3 38 46 50
3 39 38 56
3 50 46 36
3 49 53 22
3 22 21 51
3 121 124 122
3 15 39 56
3 46 38 39
3 32 44 28
3 104 114 182
3 32 73 47
3 126 133 74
3 21 36 46
3 57 22 53
3 51 21 46
3 20 26 181
3 11 21 22
3 20 181 14
3 195 9 8
3 17 28 30
3 30 28 44
3 32 28 19
3 8 13 17
3 17 19 28
3 201 55 185
3 65 74 80
3 75 20 14
3 69 0 105
3 26 72 61
3 58 71 19
3 69 64 0
3 52 66 69
3 121 33 124
3 69 66 64
3 9 181 58
3 195 181 9
3 73 32 71
3 64 35 0
3 61 72 71
3 55 56 12
3 111 84 126
3 32 19 71
3 75 81 93
3 53 47 73
3 80 60 67
3 98 66 52
3 101 27 72
3 98 52 50
3 71 72 73
3 80 100 60
3 18 36 21
3 26 61 181
3 80 74 133
3 97 23 45
3 80 67 65
3 67 60 3
3 78 136 88
3 73 72 53
3 181 61 58
3 67 29 59
3 101 72 26
3 76 81 75
3 61 71 58
3 67 3 29
3 72 57 53
3 91 195 7
3 195 8 7
3 101 88 27
3 65 67 59
3 13 58 19
3 58 13 9
3 84 83 42
3 129 116 96
3 83 84 111
3 115 96 116
3 1 10 68
3 10 107 62
3 128 78 153
3 178 202 192
3 78 88 134
3 62 68 10
3 111 48 83
3 88 89 70
3 62 107 23
3 108 118 135
3 62 97 68
3 78 134 153
3 152 173 170
3 88 70 27
3 106 135 182
3 64 29 35
3 27 57 72
3 134 88 101
3 59 29 64
3 75 93 20
3 77 64 98
3 77 59 64
3 45 6 84
3 102 63 45
3 114 25 95
3 101 20 93
3 101 26 20
3 12 114 104
3 182 114 106
3 66 98 64
3 42 63 102
3 6 29 3
3 118 143 139
3 45 35 29
3 60 6 3
3 45 23 35
3 40 98 36
3 6 45 29
3 23 0 35
3 27 16 57
3 116 129 139
3 70 16 27
3 77 98 40
3 16 11 57
3 11 22 57
3 84 42 102
3 18 40 36
3 102 45 84
3 103 11 16
3 6 133 126
3 15 17 39
3 65 126 74
3 55 7 56
3 49 46 47
3 114 109 25
3 15 7 8
3 56 109 114
3 39 44 46
3 34 43 33
3 105 0 107
3 150 170 149
3 15 8 17
3 55 91 7
3 7 15 56
3 182 127 164
3 106 95 108
3 44 47 46
3 51 46 49
3 105 90 5
3 63 99 45
3 44 39 30
3 116 123 140
3 39 17 30
3 24 25 109
3 212 92 111
3 43 4 124
3 0 23 107
3 182 135 127
3 123 117 120
3 87 12 104
3 33 43 124
3 54 123 120
3 105 107 90
3 135 106 108
3 135 129 127
3 42 99 63
3 48 99 42
3 48 97 99
3 97 48 92
3 123 144 140
3 97 45 99
3 119 120 2
3 60 100 133
3 129 96 112
3 212 97 92
3 129 112 148
3 6 60 133
3 150 146 152
3 126 59 77
3 124 4 1
3 16 86 103
3 145 144 79
3 121 122 110
3 139 135 118
3 119 54 120
3 10 90 107
3 1 110 122
3 1 37 110
3 1 68 37
3 86 16 113
3 113 70 89
3 113 89 79
3 101 82 134
3 88 136 89
3 185 55 190
3 18 2 40
3 185 190 191
3 184 185 191
3 6 126 84
3 40 2 117
3 112 150 149
3 54 113 79
3 93 82 101
3 77 94 141
3 94 130 141
3 103 119 2
3 117 130 94
3 54 79 144
3 117 2 120
3 16 70 113
3 94 77 40
3 86 119 103
3 18 103 2
3 174 185 184
3 40 117 94
3 148 85 129
3 129 85 127
3 110 37 141
3 141 97 212
3 116 140 115
3 111 126 212
3 121 143 118
3 177 185 174
3 82 76 134
3 85 164 127
3 125 96 131
3 37 68 141
3 143 130 123
3 130 110 141
3 110 130 143
3 76 153 134
3 135 139 129
3 139 143 123
3 123 54 144
3 211 91 209
3 142 89 136
3 177 174 175
3 78 132 136
3 128 132 78
3 132 142 136
3 79 89 142
3 42 83 48
3 119 86 113
3 116 139 123
3 31 109 56
3 54 119 113
3 131 132 128
3 132 138 142
3 123 130 117
3 145 79 142
3 138 145 142
3 137 138 132
3 141 126 77
3 132 131 137
3 152 178 173
3 96 125 112
3 137 145 138
3 12 87 55
3 178 192 185
3 133 100 80
3 137 140 145
3 141 68 97
3 128 112 125
3 140 144 145
3 141 212 126
3 110 143 121
3 115 137 131
3 115 140 137
3 96 115 131
3 160 156 171
3 199 195 204
3 203 197 152
3 156 179 171
3 154 158 146
3 111 92 48
3 177 178 185
3 195 188 179
3 193 198 152
3 179 188 186
3 204 195 206
3 187 196 152
3 156 195 179
3 205 91 207
3 206 91 205
3 4 90 10
3 174 184 183
3 10 1 4
3 201 91 55
3 153 154 146
3 152 158 167
3 153 156 155
3 153 155 154
3 210 91 211
3 76 156 153
3 146 112 128
3 112 146 150
3 4 5 90
3 152 170 150
3 181 195 156
3 14 181 156
3 200 121 118
3 188 195 194
3 121 200 33
3 153 146 128
3 195 91 206
3 52 5 4
3 186 187 152
3 200 34 33
3 69 5 52
3 118 108 200
3 176 179 152
3 85 148 164
3 155 156 160
3 148 182 164
3 200 109 34
3 108 208 200
3 24 200 208
3 24 109 200
3 209 91 201
3 152 197 178
3 196 193 152
3 172 182 148
3 147 148 112
3 165 172 148
3 172 104 182
3 109 31 34
3 76 75 156
3 159 148 147
3 172 189 104
3 189 87 104
3 161 148 159
3 161 165 148
3 149 151 147
3 176 152 167
3 149 147 112
3 168 165 161
3 195 199 194
3 157 151 149
3 179 186 152
3 166 168 161
3 55 189 190
3 55 87 189
3 75 14 156
3 198 203 152
3 207 91 210
3 149 163 157
3 149 162 163
3 169 168 166
3 174 180 168
3 197 202 178
3 174 168 169
3 158 152 146
3 170 162 149
3 174 183 180
