ply
format ascii 1.0
comment Created in Blender version 4.0.2
element vertex 176
property float x
property float y
property float z
element face 262
property list uchar uint vertex_indices
end_header
0.16294757 -0.10417894 -0.19002353
0.19287866 -0.120669104 0.17473646
0.18256785 -0.09991904 0.1669075
0.19201483 -0.11918195 -0.2036909
0.12523028 0.0026178882 -0.45351583
0.20065786 -0.11775387 -0.2293748
-0.20175648 -0.11794972 -0.22866787
-0.1838992 -0.11557192 -0.20074762
0.16091698 -0.03107687 -0.2259935
0.13264011 0.03140503 -0.33800045
0.16188711 -0.030254632 -0.45863056
-0.16092548 -0.005976446 -0.45255637
0.13427213 -0.041437738 0.43623084
-0.13252997 -0.04584617 0.4395489
0.15618388 -0.04491774 0.43329525
-0.15703422 -0.042041436 0.4310335
0.19983812 -0.10733733 0.19624299
-0.19980413 -0.107359104 0.19624858
0.17369746 0.02466369 0.25593573
0.13778673 0.01962423 0.37979868
-0.15659444 -0.1057351 0.46670383
0.14445357 -0.10848888 0.47507197
-0.07768141 0.019113401 -0.4333304
-0.00095966016 0.050787825 -0.40482834
0.0025542192 0.08610381 -0.29163927
0.12595655 0.10417875 -0.17542289
-0.13156259 0.10762375 -0.17181945
0.139045 0.077900715 -0.23234838
-0.1794146 0.07171813 0.109129645
-0.13717285 0.028176043 -0.32087433
0.16242848 0.14999571 0.07836365
0.15197437 0.0021446794 -0.4521658
-0.20174724 -0.004580576 -0.36393517
0.07953011 -0.047336273 0.47108847
0.18003112 0.07194141 0.10399703
-0.10009688 -0.004266992 0.43210036
-0.09906791 0.10197081 0.34151036
0.08906226 0.14067696 0.30690116
-0.066516474 -0.0057270005 0.45346466
0.08078061 0.09700805 0.3534909
-0.19245456 -0.12028026 0.17541802
0.20221865 -0.06606759 -0.25242573
0.19643424 -0.056996964 -0.44265094
0.18583183 -0.116097875 -0.2014331
-0.19262989 -0.0850913 0.4133254
0.20120615 -0.007977046 -0.3103919
0.112749666 -0.026396096 -0.46215847
-0.20198238 -0.015085302 -0.2980287
-0.13252269 -0.09399713 -0.48270053
-0.09301208 -0.012336072 -0.44179708
-0.16149881 0.15143037 0.05680752
-0.16049944 0.15721448 0.07858064
0.15476091 0.15289429 -0.09895978
0.15533029 0.12567075 -0.13157268
0.2017074 -0.010380857 -0.3845915
-0.053299125 -0.07548319 -0.4922447
-0.010936788 -0.061187796 -0.50008595
0.20392816 -0.065671846 0.208354
-0.20230877 -0.06587271 0.20900925
0.20505024 -0.017948687 0.26067334
0.18663059 0.013582554 0.28923923
-0.18756111 0.01422783 0.2869557
-0.1787801 -0.029506624 0.40518197
0.15331514 -0.028565966 0.42027998
-0.15349425 -0.028252028 0.42050013
0.15607443 0.16941875 0.0164428
0.13867067 -0.053354584 0.44325557
0.07066052 -0.08472698 0.48261237
-0.04967754 -0.03394413 -0.48369244
0.04218571 0.04679226 -0.40334696
0.11102348 0.050391566 -0.35398751
0.06301815 0.085296884 -0.2799098
0.082572885 0.090672106 -0.18386278
-0.1785865 0.032845207 -0.09762483
0.17889325 0.033871453 -0.09487834
-0.17698495 0.074227676 0.04296977
0.1771398 0.087785006 0.07715976
-0.17821315 0.08263089 0.08010375
0.15963261 0.15811568 0.055345114
-0.1850556 -0.03787767 0.1843877
0.15872562 0.16428557 0.089512035
-0.17098905 0.072322145 0.22089186
0.037492365 0.1661092 0.28672066
-0.009712099 0.17179726 0.28589183
0.14828858 0.12606789 0.27244744
0.052449558 -0.0034145787 0.45630854
0.017860554 0.09822561 0.3640766
-0.060391806 0.096760824 0.35895988
0.17625542 -0.107707135 -0.19730179
0.18524313 -0.04508724 -0.23329228
0.19288144 -0.12057003 0.17464082
-0.14986923 -0.04425548 -0.46556318
0.1358535 -0.0938073 -0.48238522
-0.11615343 0.023190865 -0.3847444
-0.16400068 -0.103686266 -0.19066796
-0.12037729 -0.0027952902 -0.45296335
-0.19665004 -0.05844266 -0.44575962
-0.18484394 -0.02053205 -0.25809282
0.05626598 -0.07578976 -0.4925009
0.09749821 -0.004831042 -0.43569642
-0.18944405 -0.119602166 -0.12688442
-0.19383028 -0.11780851 -0.20483327
0.042622965 -0.04299794 -0.49138856
-0.16643603 0.025311612 -0.33378854
-0.14452992 -0.053582244 0.4426037
0.17345725 0.020683179 -0.32093105
-0.20349076 -0.068753056 -0.25007212
-0.037489593 0.21877158 0.01080146
-0.10169673 0.18521509 -0.12357095
0.062393345 0.1907151 -0.12370407
0.039156664 0.21188742 0.15018578
-0.08548329 0.19773188 0.19777045
-0.1775906 0.013123646 0.2381709
-0.0149552 -0.09746852 -0.4998132
-0.2022093 -0.016889237 0.26551825
-0.13566558 0.020315558 0.380656
0.1776799 -0.035164803 0.41021436
0.20274259 -0.022583388 0.34238195
0.19246861 -0.08654351 0.41552496
-0.20323518 -0.024842538 0.34661874
-0.11983332 0.20428011 0.06701129
-0.09944625 -0.11237592 0.48969883
-0.067578696 -0.07650333 0.4835467
0.043906245 -0.113779135 0.49905962
0.09345612 0.18605235 0.21820742
0.15768799 0.15739089 0.16581313
-0.046560686 0.04837887 -0.39778027
-0.06032141 0.082263455 -0.29452598
0.0015728909 -0.009861093 -0.47769395
-0.078714915 0.09087157 -0.18422234
-0.11644077 0.06363399 -0.31789243
0.15087688 0.08276893 -0.18089591
-0.13858756 0.07603471 -0.23850654
-0.15016548 0.08278467 -0.1837173
-0.1607112 -0.030209139 -0.22398686
0.13553825 0.1281204 -0.15603957
0.16099413 0.090093814 -0.14344369
-0.15943271 0.099818155 -0.1429718
-0.16425318 0.07959787 -0.13622068
0.16613685 0.07338564 -0.11768966
0.18548563 0.052999444 0.067653954
-0.1805194 -0.10031336 0.036875047
-0.18498805 0.054266967 0.069534115
0.17535093 0.070991926 0.010849062
-0.17058253 0.07095556 -0.074461244
0.17737113 0.081517324 0.055379543
-0.17617406 0.08915183 0.057289347
-0.15735038 0.16912678 0.035057917
0.14561827 0.17835379 -0.030516915
0.11792811 0.1739392 -0.1262287
-0.1536402 0.16077368 -0.06877647
-0.15581723 0.13456142 -0.12577029
-0.12898198 0.15812865 -0.1361228
0.08342431 0.21175495 -0.0051073083
0.11623236 0.20305848 0.09337123
-0.15638004 0.16306672 0.13455296
0.040156294 -0.06672374 0.49121755
-0.07489376 -0.05409111 0.47733477
0.14584126 0.05147968 0.34958488
0.12210744 0.022005958 0.40021363
0.16882937 0.074515596 0.23847048
-0.14433537 0.058615223 0.34956163
-0.16387084 0.08276574 0.24746443
-0.092235245 0.13395616 0.31116185
-0.053274892 0.1607785 0.28993714
-0.1489959 0.13064827 0.2651994
0.1563608 0.1345673 0.2300828
-0.15630777 0.13576764 0.22886658
0.100611754 0.106360205 0.33798018
0.16262393 0.10183328 0.2519004
-0.16081771 0.1066882 0.24984998
-0.001917481 0.024098946 0.44862285
0.09954144 0.004290249 0.42529786
-0.11876785 -0.0391457 -0.46599218
0.13303801 -0.04726915 -0.4685988
-0.033689905 -0.06693289 0.4921676
3 93 95 11
3 90 88 2
3 97 106 134
3 97 134 103
3 62 20 104
3 4 9 31
3 45 89 41
3 4 99 9
3 48 91 173
3 54 105 45
3 92 113 98
3 55 113 48
3 11 91 96
3 96 91 48
3 7 94 134
3 10 31 42
3 9 105 31
3 105 54 31
3 47 106 97
3 106 6 7
3 7 134 106
3 11 103 93
3 3 88 90
3 104 15 62
3 141 100 40
3 174 99 46
3 93 103 29
3 45 105 89
3 99 4 46
3 103 47 97
3 8 105 9
3 113 56 98
3 11 96 32
3 20 62 44
3 94 101 100
3 43 89 0
3 141 94 100
3 88 0 2
3 10 92 174
3 42 92 10
3 89 43 41
3 43 5 41
3 8 0 89
3 49 95 93
3 47 103 32
3 99 174 98
3 42 31 54
3 89 105 8
3 103 11 32
3 29 103 134
3 95 49 173
3 22 128 68
3 98 56 102
3 16 1 57
3 40 17 58
3 58 79 40
3 58 114 79
3 114 61 79
3 2 57 1
3 59 57 18
3 18 57 2
3 18 60 59
3 61 112 79
3 61 115 112
3 128 56 68
3 119 61 114
3 59 60 117
3 117 60 19
3 117 19 116
3 19 60 18
3 19 63 116
3 92 98 174
3 48 173 55
3 49 55 173
3 62 61 119
3 62 115 61
3 62 64 115
3 116 118 117
3 44 62 119
3 14 116 63
3 64 62 15
3 63 19 67
3 63 67 12
3 64 13 115
3 118 116 21
3 66 116 14
3 21 116 66
3 80 78 65
3 154 65 148
3 154 80 65
3 148 153 154
3 148 149 153
3 154 125 80
3 120 150 147
3 51 155 147
3 120 147 155
3 150 120 108
3 108 151 150
3 21 66 67
3 12 67 66
3 115 13 121
3 104 20 121
3 104 121 13
3 121 122 115
3 123 21 67
3 156 123 67
3 121 175 122
3 123 156 175
3 121 123 175
3 154 124 125
3 84 125 124
3 110 124 154
3 110 83 124
3 120 165 111
3 120 155 165
3 84 124 37
3 122 175 157
3 69 99 128
3 99 69 70
3 128 99 102
3 128 23 69
3 126 23 22
3 126 127 23
3 22 23 128
3 69 71 70
3 69 24 71
3 24 69 23
3 127 126 130
3 130 126 22
3 27 70 71
3 132 129 127
3 130 132 127
3 24 127 129
3 23 127 24
3 71 72 27
3 72 71 24
3 56 128 102
3 24 129 72
3 27 72 25
3 26 129 132
3 56 113 55
3 68 56 55
3 102 99 98
3 49 22 68
3 55 49 68
3 49 93 22
3 9 99 70
3 130 22 93
3 9 70 27
3 27 136 9
3 132 130 29
3 93 29 130
3 29 138 132
3 27 25 131
3 136 27 131
3 136 74 9
3 8 9 74
3 138 133 132
3 133 26 132
3 138 29 73
3 135 131 25
3 139 74 136
3 133 151 26
3 133 138 137
3 0 8 74
3 134 94 73
3 94 141 73
3 52 131 135
3 131 52 53
3 53 136 131
3 151 133 137
3 134 73 29
3 143 74 139
3 140 74 143
3 73 144 138
3 142 144 73
3 74 2 0
3 140 143 145
3 142 75 144
3 2 74 140
3 142 73 141
3 50 146 142
3 142 146 75
3 30 76 140
3 76 34 140
3 77 142 28
3 50 142 77
3 77 51 50
3 30 140 78
3 30 78 80
3 78 140 145
3 147 50 51
3 52 149 148
3 148 65 52
3 108 152 151
3 149 52 135
3 26 151 152
3 149 109 153
3 107 110 153
3 110 154 153
3 120 111 107
3 107 108 120
3 109 107 153
3 108 107 109
3 110 107 111
3 110 111 83
3 82 124 83
3 111 164 83
3 124 82 37
3 165 163 111
3 33 156 67
3 33 172 156
3 33 67 19
3 175 35 157
3 157 115 122
3 33 159 172
3 159 33 19
3 159 19 158
3 35 115 157
3 35 161 115
3 79 141 40
3 141 79 142
3 79 112 142
3 112 81 142
3 28 142 81
3 160 140 34
3 158 18 160
3 140 18 2
3 140 160 18
3 81 112 161
3 19 18 158
3 160 84 158
3 160 169 84
3 112 115 161
3 162 81 161
3 158 84 159
3 168 39 159
3 159 37 168
3 39 172 159
3 159 84 37
3 36 165 161
3 163 164 111
3 155 167 165
3 166 125 84
3 166 84 169
3 167 170 165
3 36 163 165
3 170 162 161
3 165 170 161
3 171 156 85
3 175 156 171
3 175 171 38
3 156 172 85
3 38 35 175
3 85 39 171
3 39 85 172
3 36 38 171
3 35 38 36
3 86 171 39
3 171 86 87
3 87 36 171
3 36 161 35
