ply
format ascii 1.0
comment Created in Blender version 4.0.2
element vertex 277
property float x
property float y
property float z
element face 552
property list uchar uint vertex_indices
end_header
-0.5103642 -0.10754615 0.12047385
-0.5364807 0.023885526 0.12692407
-0.55179644 -0.150029 0.085249275
-0.5107822 -0.17266932 -0.0746723
-0.4860904 -0.17678216 0.07125762
-0.40498126 -0.16733822 -0.124223605
-0.40186527 -0.18768895 -0.19826764
-0.4019883 -0.3205043 -0.15830497
-0.41717833 -0.4432463 -0.1763253
-0.46992528 -0.531337 -0.17090221
-0.42078537 -0.48733354 -0.21663328
-0.47168022 -0.5538197 -0.24428535
-0.41282412 -0.56822413 -0.13663635
-0.3758944 -0.5522437 -0.21974194
-0.35860115 -0.4662897 -0.19645186
-0.33603212 -0.37743628 -0.1768312
-0.38087636 -0.36581683 -0.18531163
-0.40499514 -0.16669917 0.12670773
-0.29457027 -0.17587042 -0.1375698
-0.21293019 -0.15521583 -0.08894206
-0.19053322 -0.083230495 -0.17713177
0.0790547 -0.13970682 -0.2535118
0.26637504 -0.15106067 -0.16019401
0.23314615 -0.08641879 -0.3026797
0.39084175 -0.033747703 -0.196402
0.39316177 0.06537029 -0.2657437
0.59103644 -0.24623159 -0.20175251
0.44320324 0.11398331 -0.28861794
0.38267723 0.21952693 -0.24963306
0.5400924 0.34195262 -0.24639976
0.32519168 0.44491124 -0.20962273
0.64202666 0.4564552 -0.1740184
0.6698779 0.553903 -0.0036293038
0.73783636 0.46176925 0.022421215
0.77820504 0.43151543 0.017573318
0.7306654 0.11161682 -0.009855764
0.761453 0.10975014 -0.008983402
0.75021833 0.13043945 0.021211328
0.76770484 -0.085227326 0.057569053
0.74452716 -0.18321958 0.02388957
0.8181274 -0.17979324 0.055837423
0.7463186 0.5049586 -0.008727851
0.6740056 0.5217353 -0.02967823
0.66681683 0.50544167 -0.10299741
0.7025427 0.48625448 -0.009377665
0.6767392 0.52585363 0.03492937
0.25393578 0.465596 0.14635131
0.17138688 0.5011693 0.0006834073
-0.10701476 0.49335924 -0.01796016
-0.41003898 0.50228494 0.034832966
-0.39970753 0.4878233 -0.061512657
-0.34988487 0.40653867 -0.16294195
-0.48681685 0.17309329 -0.25095028
-0.5590643 0.17116469 -0.14534332
-0.59538025 -0.026518986 -0.058283646
-0.5983406 -0.029012948 0.054622393
-0.57965535 -0.1150811 -0.067228004
-0.5163141 -0.11791241 -0.11274361
-0.5688386 0.06790401 -0.10560986
-0.45332372 -0.026014417 -0.1891402
-0.5140403 0.065860204 -0.2078915
-0.3746145 0.068837136 -0.2608465
0.21518871 0.21530066 -0.30854487
0.291426 0.3278879 -0.24432966
-0.18128464 0.09852755 -0.2531261
0.12879248 0.10772431 -0.34838054
0.07022539 -0.03907518 -0.33047995
-0.40984347 -0.06343086 -0.23675413
-0.2974192 -0.09712815 -0.2256457
-0.25555253 -0.0653487 -0.18899672
0.7579504 0.4223629 -0.027658649
-0.80925566 0.26962 0.03497367
-0.80792105 0.26873967 -0.035380494
-1.0424391 0.3175091 -0.050191276
-1.0729693 0.38171536 -0.07016179
-1.145306 0.4240128 -0.052014038
-1.1983984 0.42042947 -4.3064163e-05
-1.1917766 0.36471206 -0.024104157
-1.1848706 0.38092518 0.031972412
-1.1745194 0.35824746 0.058243833
-1.1343569 0.3762958 0.074092425
-1.0802071 0.33766767 0.06363249
-1.1686424 0.32488927 0.029559877
-1.1369327 0.3174981 -0.035136092
-1.0674732 0.39014518 0.06957628
-1.0359646 0.5237675 0.035429116
-1.035262 0.5295217 -0.031854253
-1.1534791 0.42712978 0.051890578
-1.008254 0.54616165 -0.09587311
-0.9890546 0.5852809 -0.09906732
-0.86173815 0.54163957 -0.11435539
-0.9147567 0.3748771 -0.12907353
-0.9526813 0.5513881 -0.1261629
-0.88438773 0.6552993 -0.044614777
-0.5633278 0.17402104 0.140912
-0.49325755 0.41629624 0.10131678
-0.5306022 0.19983365 0.20972118
-0.3384794 0.39290935 0.17565002
-0.7455323 0.25951454 0.07766827
-0.50752306 0.07994202 0.22015992
-0.44636887 -0.023048282 0.21076615
-0.37862104 -0.093058616 0.2388245
-0.29725903 -0.09783648 0.22524962
-0.3992775 -0.1844123 0.20343596
-0.35612208 -0.3918603 0.18223354
-0.3196834 -0.3198054 0.16940625
-0.3450805 -0.48143518 0.18117343
-0.37771803 -0.4480462 0.13660006
-0.4704508 -0.53356326 0.16881773
-0.47752997 -0.5513505 0.24188277
-0.4314733 -0.5682372 0.13564879
-0.4174578 -0.4764312 0.20748512
-0.3652947 -0.45988154 0.1978984
-0.3918165 -0.38100392 0.16685738
-0.3656295 -0.34378454 0.1311927
-0.43883726 0.15678391 0.26221648
-0.103198 0.41689435 0.122165635
0.39201686 -0.033443987 0.19727288
0.5111777 -0.13624847 0.19386989
0.47500226 -0.22793683 0.1093362
0.53154236 -0.23972777 0.118746854
0.5367759 -0.23285213 0.08588195
0.52053285 -0.2908399 0.09381099
0.27487507 -0.13904026 0.16749297
0.3250407 -0.15998334 0.15192744
0.23314615 -0.08641885 0.30267963
0.0790547 -0.13970688 0.25351173
-0.21133393 -0.14663905 0.0983082
-0.29914388 -0.17547983 0.13444985
0.37416714 0.11244741 0.28213817
0.2143469 0.21388283 0.3090969
0.40233442 0.25571418 0.23731562
0.54005843 0.34221554 0.24631846
0.6420012 0.45641878 0.17405958
0.66681683 0.50544167 0.10299746
0.74193776 0.4241798 -0.10169791
0.73423237 0.41720054 -0.0156120015
0.7468853 0.45128846 0.07416809
0.32519168 0.44491118 0.20962279
0.29142597 0.32788783 0.24432969
0.1885821 0.43757907 0.14034341
-0.17297782 0.12911879 0.2609504
-0.3357589 0.07539034 0.25854644
0.1276109 0.10928097 0.3481736
0.06602282 -0.040210202 0.3296791
0.42832944 0.11460331 0.29140848
0.5730304 -0.21831065 0.14053188
0.6285311 -0.35829538 0.17065434
0.59840196 -0.45001304 0.17876256
0.64839214 -0.47908062 0.22642061
0.6279065 -0.38056368 0.20684554
0.60711825 -0.18101686 0.2266386
0.50840247 -0.058851168 0.24131279
0.58784413 0.06323056 0.25827
0.61797804 -0.5625705 0.25908676
0.6247963 -0.56071997 0.17788574
0.56719506 -0.57864714 0.16401763
0.52514887 -0.54420096 0.19667576
0.58241785 -0.48730975 0.23620158
0.5161227 -0.5616374 0.2700551
0.6632189 -0.48053044 0.18036
0.7053219 -0.24308768 0.17155096
0.67772627 -0.15740809 0.1313597
0.6757598 -0.16047516 -0.13324638
0.566705 -0.2165767 -0.13251092
0.5299749 -0.28208196 -0.08793088
0.5171812 -0.28626904 -0.11182988
0.45898715 -0.22718823 -0.099238046
0.52861583 -0.23139071 -0.0767836
0.43849617 -0.23068309 0.08594103
0.42627093 -0.2847682 0.08778841
0.35995045 -0.20583722 0.06621164
0.24704947 -0.19897825 0.12553634
0.09044136 -0.21190706 0.16061975
0.08621206 -0.21212655 -0.15757881
0.20241776 -0.20653057 -0.14670217
0.31266236 -0.17944157 -0.1295738
0.52192 -0.15457669 -0.19076315
0.38729256 -0.2260254 -0.06821443
0.38764113 -0.24774602 -0.09280793
0.42627093 -0.28476813 -0.08778847
0.6083803 -0.18069327 -0.22645752
0.64732045 -0.09389301 -0.18426375
0.70675427 -0.23666671 -0.16914512
0.7334441 -0.069482625 -0.11835208
0.70409614 0.24000475 -0.054882735
0.7008265 0.13994388 0.105241254
0.7335249 -0.062954485 0.11779845
0.6497239 -0.08020188 0.17172833
0.7283341 0.331121 0.07186032
0.7278675 0.33385378 -0.058900703
0.3930303 -0.27713537 0.09449048
0.6559221 0.075883605 0.20984901
-0.3860808 -0.5526502 0.23130107
-0.37995082 -0.5510411 0.14850631
-0.24013534 -0.06450622 0.17919321
-0.6361656 0.55793333 -0.00027398198
-0.76349443 0.56628156 -0.08710681
-0.81643236 0.51893914 -0.10576554
-0.7999251 0.57084155 -0.1688989
-0.85159194 0.63190925 -0.22007826
-0.8749009 0.5775657 -0.16273437
-0.8300982 0.5632267 -0.16487826
-0.8198787 0.6158382 -0.2897343
-0.827726 0.5139742 -0.2085804
-0.8034257 0.62192154 -0.07985395
-0.8075235 0.6455393 0.055666998
-0.76480186 0.5951965 0.0804104
-0.8169559 0.60096055 0.16294308
-0.8408358 0.607731 0.12242634
-0.8434732 0.5641178 0.15725547
-0.82613426 0.5188337 0.20758323
-0.8561372 0.6293001 0.2090964
-0.80001855 0.5581101 0.16344495
-0.8125013 0.51792175 0.10325398
-0.6529576 0.5021204 0.066204146
-0.8262843 0.35176975 0.10339477
-1.05502 0.31886107 0.04185393
-0.8853018 0.38518488 0.13814352
-0.93763953 0.47728875 0.11466706
-0.9554864 0.5474286 0.12745406
-1.0090876 0.5543023 0.092366844
-0.9868386 0.51944685 0.118034065
-0.86184937 0.54403627 0.113588236
-0.9747007 0.5884309 0.10678098
-0.8730875 0.6624466 0.04989547
-0.8238579 0.6622273 -0.05967602
-0.85690695 0.68503803 -0.1706729
-0.89440304 0.6476871 -0.1913739
-0.9130325 0.65230656 -0.1627284
-0.9862648 0.6932544 -0.16364068
-0.8827434 0.6773554 -0.14125435
-0.8895045 0.6113957 -0.09319172
-0.84628814 0.60463977 -0.1173976
-0.8194613 0.66355014 0.020172415
-0.8930162 0.62337214 0.089976095
-0.9446808 0.69293606 -0.19758415
-1.0914061 0.34078375 -0.06467665
-0.8195363 0.60701156 0.2893445
-0.85231596 0.68646497 0.14707074
-0.9262893 0.69289505 0.20189491
-0.9899646 0.6767973 0.17674123
-0.9124885 0.6525638 0.1616238
-0.9208806 0.69055545 0.16445133
-0.87245363 0.6417999 0.17755198
-0.52717894 0.49729213 0.05170728
-0.59859294 0.50092286 -0.054823246
-0.8367318 0.36826515 -0.11430945
-0.6284637 0.3156641 -0.09903054
-0.4782983 0.41164306 -0.11378987
-0.54186773 0.19804406 -0.19297262
-0.7140442 0.23245713 -0.07896392
0.18885075 0.4375828 -0.14052203
0.2588416 0.4668598 -0.14771323
-0.18789531 0.2878679 -0.21790667
0.61321837 -0.3074666 -0.16816428
0.6150306 -0.47785765 -0.16373421
0.5884068 -0.5786421 -0.16485153
0.6289797 -0.5619748 -0.24725585
0.5819871 -0.48698795 -0.23622139
0.6100647 -0.39620483 -0.20534796
0.5257693 -0.54081655 -0.19949766
0.522581 -0.5638371 -0.2722948
0.6491999 -0.47882956 -0.22579928
0.6636047 -0.48777246 -0.1806016
0.67644083 -0.3522012 -0.17592628
0.6683833 0.020863086 -0.15670982
0.58653903 0.0635322 -0.25920603
-0.35560828 -0.47837198 -0.14430077
-0.3792197 -0.42863333 -0.13768715
0.74108875 -0.10741043 -0.023209695
0.8024746 -0.03598085 -0.026176786
0.8742206 -0.23873726 -0.034627665
0.86226857 -0.24802971 -0.0030118763
0.85605294 -0.10563901 0.008781207
-0.9857481 0.52370083 -0.119086206
-1.1620479 0.3614806 -0.0698641
3 0 1 2
3 2 1 55
3 2 56 3
3 2 3 4
3 5 6 7
3 7 16 8
3 9 8 10
3 11 13 12
3 269 12 268
3 268 12 13
3 268 13 14
3 15 14 8
3 8 14 10
3 14 13 10
3 8 16 15
3 11 10 13
3 100 0 17
3 17 0 4
3 17 4 5
3 5 4 3
3 17 5 18
3 17 18 19
3 19 18 69
3 19 69 20
3 174 20 21
3 174 21 22
3 22 21 23
3 177 24 25
3 177 25 26
3 27 28 29
3 29 30 31
3 31 30 43
3 43 30 253
3 43 253 42
3 42 253 32
3 37 33 35
3 38 37 39
3 38 39 40
3 37 274 36
3 37 38 40
3 33 37 34
3 33 34 41
3 33 41 45
3 45 41 32
3 32 41 42
3 45 42 33
3 42 45 43
3 45 32 46
3 116 47 48
3 116 48 49
3 50 51 249
3 249 51 52
3 250 52 53
3 55 56 2
3 57 3 56
3 57 58 59
3 59 58 60
3 59 60 61
3 65 254 62
3 30 28 63
3 63 28 62
3 254 65 64
3 254 64 52
3 52 64 61
3 30 29 28
3 28 25 62
3 62 25 23
3 62 23 65
3 65 23 66
3 66 21 20
3 23 24 22
3 24 177 22
3 21 66 23
3 28 27 25
3 23 25 24
3 61 67 59
3 57 59 5
3 57 5 3
3 58 57 56
3 58 56 54
3 6 5 59
3 6 59 67
3 68 67 61
3 68 61 69
3 20 64 66
3 64 65 66
3 20 69 64
3 64 69 61
3 42 44 33
3 33 44 70
3 33 70 35
3 44 42 70
3 42 41 70
3 35 70 36
3 70 41 34
3 70 34 36
3 34 37 36
3 4 0 2
3 100 1 0
3 55 71 72
3 78 76 82
3 78 82 79
3 217 81 82
3 217 82 83
3 83 77 276
3 77 76 75
3 79 82 81
3 81 80 79
3 80 84 85
3 85 86 87
3 87 86 75
3 87 75 76
3 80 87 79
3 79 87 78
3 87 76 78
3 89 232 92
3 92 232 90
3 275 86 88
3 92 275 88
3 92 88 89
3 88 86 89
3 86 74 75
3 86 275 74
3 74 275 91
3 86 93 89
3 55 72 54
3 95 94 96
3 95 96 97
3 98 94 95
3 94 98 71
3 1 94 71
3 1 71 55
3 72 217 73
3 217 72 71
3 115 99 100
3 100 17 103
3 101 100 103
3 102 101 103
3 105 104 112
3 105 112 106
3 105 106 107
3 107 110 108
3 109 108 110
3 109 111 108
3 107 113 114
3 102 103 104
3 102 104 105
3 113 107 108
3 107 114 105
3 108 111 113
3 1 99 94
3 99 96 94
3 100 99 1
3 96 115 97
3 47 140 46
3 140 47 116
3 121 120 122
3 122 120 119
3 118 117 123
3 123 125 126
3 123 126 173
3 173 126 195
3 127 195 128
3 128 195 102
3 102 105 128
3 125 123 117
3 125 117 129
3 125 129 130
3 131 145 132
3 45 134 44
3 44 134 137
3 44 137 43
3 43 137 135
3 153 133 132
3 145 131 129
3 133 137 134
3 137 136 135
3 44 43 45
3 134 45 46
3 134 46 138
3 139 138 140
3 139 140 130
3 141 97 142
3 142 97 115
3 99 115 96
3 97 141 116
3 116 141 130
3 116 130 140
3 46 140 138
3 134 138 133
3 133 138 132
3 138 131 132
3 129 131 130
3 142 115 100
3 130 143 125
3 143 144 125
3 125 144 126
3 138 139 131
3 131 139 130
3 141 143 130
3 145 117 152
3 145 153 132
3 117 145 129
3 118 119 146
3 146 119 120
3 148 160 149
3 150 161 151
3 152 151 153
3 152 153 145
3 151 152 150
3 117 118 152
3 152 146 150
3 150 146 147
3 150 147 148
3 150 148 158
3 150 158 149
3 157 158 148
3 158 159 154
3 154 156 155
3 159 156 154
3 157 159 158
3 149 158 154
3 149 154 155
3 149 155 148
3 146 152 118
3 149 160 150
3 160 147 161
3 161 146 162
3 162 146 163
3 164 163 168
3 168 165 166
3 168 121 119
3 122 119 121
3 170 191 171
3 171 124 172
3 172 123 173
3 127 173 195
3 174 22 175
3 179 176 177
3 172 174 175
3 172 175 176
3 174 173 19
3 19 173 127
3 19 127 17
3 17 127 128
3 103 17 113
3 178 171 176
3 176 171 172
3 169 170 171
3 169 171 168
3 178 168 171
3 178 179 180
3 178 180 167
3 178 167 168
3 164 166 167
3 166 164 168
3 167 177 164
3 164 177 26
3 181 182 183
3 183 182 163
3 187 185 186
3 192 153 151
3 186 192 188
3 186 188 187
3 185 187 184
3 184 187 162
3 188 192 151
3 188 151 161
3 188 161 162
3 162 163 184
3 150 160 161
3 187 188 162
3 184 163 266
3 186 185 189
3 29 31 267
3 29 267 27
3 25 27 26
3 178 176 179
3 179 167 180
3 179 177 167
3 169 168 119
3 163 146 168
3 168 146 121
3 148 147 160
3 161 147 146
3 118 124 119
3 118 123 124
3 119 124 171
3 119 171 191
3 124 123 172
3 169 119 191
3 169 191 170
3 186 189 192
3 192 189 137
3 192 137 133
3 133 153 192
3 189 190 137
3 137 190 136
3 43 135 31
3 135 136 190
3 189 185 190
3 113 104 103
3 113 111 104
3 104 111 112
3 106 112 193
3 110 193 109
3 109 193 111
3 111 193 112
3 107 106 194
3 107 194 110
3 106 193 194
3 110 194 193
3 146 120 121
3 128 105 114
3 128 114 17
3 17 114 113
3 142 102 195
3 142 195 141
3 142 100 102
3 102 100 101
3 141 195 144
3 197 198 199
3 233 199 200
3 203 200 199
3 203 204 202
3 200 202 201
3 200 201 233
3 199 233 205
3 199 205 197
3 199 204 203
3 246 197 196
3 196 197 205
3 196 205 234
3 207 234 206
3 207 206 209
3 207 209 208
3 209 223 210
3 210 211 238
3 207 208 213
3 207 213 214
3 95 215 216
3 95 216 98
3 98 216 71
3 71 216 217
3 217 216 81
3 81 84 80
3 84 218 219
3 219 218 223
3 220 224 221
3 220 221 222
3 219 222 84
3 222 221 85
3 86 85 93
3 85 84 222
3 84 81 218
3 85 221 93
3 227 226 205
3 227 205 228
3 228 236 227
3 234 93 225
3 235 225 93
3 93 221 224
3 235 93 224
3 230 231 236
3 231 230 229
3 233 232 228
3 228 232 229
3 232 231 229
3 231 227 236
3 227 231 226
3 226 231 93
3 93 231 232
3 93 232 89
3 90 232 233
3 230 236 228
3 73 83 237
3 83 73 217
3 215 214 216
3 216 214 218
3 218 81 216
3 210 223 214
3 210 214 211
3 211 213 238
3 238 213 208
3 208 212 238
3 209 212 208
3 214 213 211
3 220 223 224
3 224 223 235
3 225 235 239
3 240 243 241
3 241 243 242
3 220 219 223
3 223 209 235
3 240 239 243
3 235 242 243
3 215 207 214
3 212 210 238
3 212 209 210
3 205 226 234
3 241 244 240
3 240 244 239
3 239 244 209
3 239 209 206
3 234 225 239
3 234 239 206
3 235 209 242
3 244 242 209
3 196 234 207
3 207 215 196
3 245 49 196
3 196 49 246
3 245 196 215
3 49 245 95
3 95 245 215
3 49 50 246
3 198 246 247
3 91 247 73
3 73 237 74
3 73 74 91
3 91 90 247
3 198 90 201
3 198 201 204
3 201 202 204
3 201 90 233
3 204 199 198
3 198 197 246
3 73 247 72
3 72 247 251
3 251 247 248
3 248 246 249
3 246 50 249
3 248 247 246
3 249 52 250
3 116 49 97
3 252 47 253
3 252 254 48
3 48 254 51
3 52 61 60
3 58 53 60
3 60 53 52
3 62 254 252
3 62 252 63
3 51 254 52
3 253 30 252
3 252 30 63
3 47 252 48
3 48 51 50
3 47 46 32
3 47 32 253
3 141 144 143
3 49 48 50
3 159 157 156
3 148 155 156
3 156 157 148
3 219 220 222
3 87 80 85
3 76 77 82
3 82 77 83
3 242 244 241
3 177 176 22
3 176 175 22
3 20 174 19
3 164 26 255
3 255 260 256
3 258 262 259
3 256 260 261
3 261 262 257
3 257 262 258
3 257 256 261
3 261 259 262
3 259 261 260
3 260 263 259
3 257 258 256
3 256 258 263
3 256 263 264
3 183 265 260
3 183 260 181
3 265 255 256
3 256 264 265
3 255 265 164
3 265 183 164
3 164 183 163
3 264 263 265
3 263 260 265
3 260 26 181
3 263 258 259
3 260 255 26
3 185 184 266
3 267 182 181
3 267 181 26
3 26 27 267
3 182 267 135
3 135 267 31
3 135 190 266
3 135 266 182
3 182 266 163
3 18 68 69
3 8 9 269
3 12 269 9
3 268 14 15
3 268 15 269
3 269 15 18
3 68 18 15
3 7 269 5
3 5 269 18
3 10 11 9
3 11 12 9
3 269 7 8
3 15 16 6
3 68 6 67
3 6 16 7
3 15 6 68
3 58 54 72
3 58 251 53
3 251 58 72
3 251 249 53
3 53 249 250
3 249 251 248
3 270 36 271
3 274 271 36
3 35 36 270
3 37 35 39
3 39 35 270
3 272 270 271
3 270 272 39
3 39 272 273
3 39 273 40
3 40 274 37
3 272 274 273
3 40 273 274
3 274 272 271
3 166 165 167
3 167 165 168
3 275 92 91
3 91 92 90
3 75 74 276
3 75 276 77
3 237 83 276
3 237 276 74
3 203 202 200
3 55 54 56
3 172 173 174
3 144 195 126
3 93 234 226
3 228 205 233
3 214 223 218
3 235 243 239
3 247 90 198
3 97 49 95
3 190 185 266
3 230 228 229
