ply
format ascii 1.0
comment Created in Blender version 4.0.2
element vertex 8
property float x
property float y
property float z
element face 12
property list uchar uint vertex_indices
end_header
0.53181446 -0.53181446 -0.53181446
0.53181446 0.53181446 -0.53181446
0.53181446 -0.53181446 0.53181446
0.53181446 0.53181446 0.53181446
-0.53181446 -0.53181446 -0.53181446
-0.53181446 0.53181446 -0.53181446
-0.53181446 -0.53181446 0.53181446
-0.53181446 0.53181446 0.53181446
3 1 2 0
3 3 6 2
3 7 4 6
3 5 0 4
3 6 0 2
3 3 5 7
3 1 3 2
3 3 7 6
3 7 5 4
3 5 1 0
3 6 4 0
3 3 1 5
