ply
format ascii 1.0
comment Created in Blender version 4.0.2
element vertex 317
property float x
property float y
property float z
element face 610
property list uchar uint vertex_indices
end_header
-0.27158213 -1.8566641 -0.7761667
-0.2683459 -1.7920204 -0.21789363
-0.57337415 1.0521638 0.24612895
-0.5932431 -0.8965729 -1.1198174
-0.93469363 0.9019359 -1.2400569
-0.61532027 -0.86162823 -0.5600307
-0.096093565 -0.94244844 -0.06605676
-0.6114384 0.43795156 0.15380353
-0.512384 -0.6150349 0.29136315
-0.23568106 -0.18306945 0.62810385
-0.5023455 -0.22779386 0.34106275
-0.9220455 0.3591661 -0.65803754
-0.53954476 -0.5901393 -0.43952885
-0.67256457 0.25234258 0.20582762
-0.8620195 0.37504783 -0.3814498
-0.68180984 -0.10639246 0.024233192
-0.6986683 0.46175456 0.040108472
-0.8888442 1.1531403 -0.33799317
-0.88981 1.3335772 -0.5083939
-0.6913032 1.3812128 -0.0777069
-0.637626 0.68792176 0.22033647
-1.0021954 0.6285462 -0.60090053
-0.6219726 -0.823718 -0.89631
-1.0156233 0.9186815 -0.93387866
-0.9645118 0.530752 -1.0550971
0.38998526 -0.8949533 -0.14930156
-0.21096444 -0.88908714 -0.097210914
-0.17745525 -0.71038777 0.624728
-0.37935632 -0.85765725 -0.25660458
-0.46401983 -1.6111968 -0.35572883
-0.4902354 -0.61801344 -1.0834233
-0.21198142 1.1575228 0.41228414
-0.099114984 0.058512732 0.76966846
-0.46512318 -1.015088 -0.3481556
-0.111934096 -0.3391196 0.6350817
0.07804319 -0.98507506 -0.054520994
-0.16060823 -1.3690472 -0.23382017
-0.08880147 -0.42020708 0.67851144
-0.37769234 -0.18806498 0.42827013
-0.69429547 0.11266234 -1.3089367
-0.11081451 -0.8176771 0.6664995
-0.76334935 -0.10144834 -0.4931862
-0.88433653 0.183235 -0.6451038
-0.39789742 -0.49610186 0.40346494
-0.7425731 0.14497475 0.053931266
-0.5927359 -0.40774757 -0.730108
-0.5317289 -1.3508272 -0.4493105
-0.394584 -0.7573581 -0.15826926
-0.64974385 -1.0540655 -0.6795771
-0.7407066 -0.20908578 -0.4100758
-0.36880708 -0.3303203 0.5089819
-0.5813472 -0.224533 -0.92129827
-0.79241127 -0.03169194 -0.48978904
-0.41413462 -0.2900132 -1.1295128
-0.47446042 0.77632695 0.40445307
-0.37341446 1.367823 0.27674228
-0.10856056 -0.5298558 0.6282689
0.20039646 0.869165 0.5126816
0.27559558 1.291126 0.34965247
0.42170036 0.7555346 0.46460724
0.5590526 1.2240258 0.27573138
0.5328657 0.21628927 0.42120448
0.4148102 -0.50833946 0.47302696
0.6616676 -0.22929849 0.2800816
0.6421646 0.22196902 0.3461188
-0.0440858 0.06503463 0.9168439
-0.028074414 0.61367685 0.48833522
-0.43219054 0.71997344 -1.7955984
-0.6017535 0.21696179 -1.4812384
-0.50874174 0.42305577 -1.6995956
-0.46879244 -0.166474 -1.3176177
-0.31005347 -0.70191467 -1.3711982
-0.23497134 -0.45579827 -1.410086
-0.15424532 -0.3009085 -1.4327805
-0.43666667 -0.83204 -1.3089098
-0.043819547 -0.16205369 -1.5749396
0.26798695 -0.77423 -1.4309878
0.37651622 -0.00959906 -1.5977386
0.45451576 -0.13203926 -1.433886
0.33796751 -0.36461556 -1.2918937
0.47215053 1.3505982 -1.5906652
0.54102063 0.49997538 -1.7375747
-0.085680485 -1.7906708 -0.1671389
-0.0546515 1.512724 0.24369618
-0.25838578 0.7744055 0.49066812
0.15184131 -1.5486617 -0.17735574
0.41241282 -1.7740322 -0.11265972
0.5755596 -1.7941974 -0.22399125
0.5231576 -1.8013934 -0.18516615
0.331926 -0.35674614 0.5835116
0.5249938 -0.4907686 0.43936253
0.27938825 -0.9563605 -0.07035491
-0.35344535 0.6126381 0.42263523
0.2423643 -0.40138084 0.6750149
-0.45734173 0.6625037 0.35672086
-1.0186584 0.26182184 -0.79327977
-0.15431839 0.43871254 0.41629583
-1.0548337 0.039083585 -0.9525714
-0.4232263 -0.8203713 0.15036651
0.068229765 -0.89020914 0.5951177
-0.27363694 -0.3544249 0.5280463
-0.46687645 0.4995206 0.31534392
-0.8244961 0.19630997 -0.55468166
-0.18003511 0.21227963 0.5348994
-0.79595727 0.10267846 -0.6503718
-0.21016914 0.071645886 0.5234752
-0.9130252 -0.101386055 -0.65326333
-0.59164095 -0.62873006 0.10006705
-0.35123104 -1.8357965 -0.5915346
0.0031870604 0.5009111 0.70732844
-0.2858861 0.3931644 0.40259254
-0.16641867 0.91191024 0.50691694
0.6747025 0.855456 0.27013993
0.2283383 -0.2253644 0.7379986
0.06999931 0.62758416 0.5040786
0.121340156 0.039279267 0.95127285
0.24712667 0.19832878 0.5441669
-1.0076146 0.9501888 -0.6334348
-0.6625909 1.6212368 -0.49936578
-0.416592 1.6492275 -0.05099961
-0.15582371 0.57734627 0.36869276
0.24677418 -1.7773849 -0.11002973
0.05908826 -0.10920043 0.67754006
-0.1711067 -0.058890387 0.5620772
-0.44190627 -1.091285 -1.063746
-0.24812424 -1.508178 -0.9209367
-0.68260974 -0.3410892 -0.43701652
-0.73674446 0.7019079 -1.5637373
-0.38319254 -0.26197308 -1.256967
-0.3519885 0.06064409 -1.6269869
-0.46180516 0.96142936 -1.7200941
-0.21247876 0.91088134 -1.8273805
0.01160109 -0.44960552 -1.377988
0.22335678 -0.566632 -1.4083133
0.27520683 0.34462953 -1.7704817
0.41349378 -0.65140605 -1.3279464
0.3454037 -0.26017338 -1.3266501
0.5691881 -0.8865325 -1.2109716
0.81273663 0.36140603 -1.4497367
0.72703457 0.7911211 -1.6206278
0.9131104 0.53206015 -1.4377867
0.9423976 1.4025521 -1.101202
0.61911875 -0.5646609 -0.9900162
1.0498013 0.9502344 -1.1629739
0.6342808 -0.33279556 -0.9624809
0.80080074 -0.003233537 -1.1962491
0.7262541 -0.2404093 -0.7844888
0.4375946 -1.3260164 -0.9340824
0.76723814 -0.39121556 -0.511451
0.26364088 -0.55508906 0.6278619
0.6279832 -1.6063778 -0.32106093
1.1202374 0.73198324 -1.041599
1.1114036 0.016728178 -1.0502706
0.7668263 -0.91283053 -0.96184194
0.93873405 -0.19019286 -0.7674836
0.9868951 0.2797908 -0.71544826
1.062629 0.4535179 -0.63169086
0.6723764 -0.39213675 -0.6886431
0.8376043 -0.29863274 -0.666558
0.64145434 -0.6643593 -0.5111581
0.893102 -0.101476565 -0.6297022
0.93518317 0.14992328 -0.62236035
0.83121586 -0.34503138 -0.5574504
0.8465286 -0.20109595 -0.52045643
0.5113714 -1.8520592 -0.575806
0.5871632 -1.8050381 -0.3383204
0.7223184 -0.62311745 -0.28427908
0.8037245 -0.1483802 -0.0028543472
0.6065618 -1.7292286 -0.28872702
0.5154122 -0.7669485 -0.26538154
0.7034088 -0.6169852 -0.116523
0.9131982 0.1903786 -0.14969149
0.12267327 -0.051329896 0.65032184
0.46311325 -0.06112252 0.51545095
0.44029164 1.5148154 0.1610885
0.33862773 -1.7856843 -0.11338672
0.4035453 -1.5644054 -0.17462167
0.97126484 0.44877863 -0.30758628
0.2714081 0.046600282 0.6404929
0.27562502 0.02064389 0.54511917
0.43476105 -0.18733908 0.51744634
0.23021661 0.578873 0.37055147
0.6468122 -0.5724212 0.30154204
0.5949609 -1.7289176 -0.23670623
0.8248074 0.22777835 0.12857911
0.8680109 0.42967495 -0.10666284
0.79246116 0.7654267 0.08777228
0.6694427 -0.8301024 -0.56467557
1.1181896 0.968009 -0.57572424
0.9913396 1.1351011 -0.39409795
0.8837175 -0.0398629 -0.8004054
1.0852826 0.23691449 -0.775756
0.46377382 -0.7611865 0.46706736
-0.09586209 -0.9186006 0.536714
0.26368442 -0.91176325 0.56983304
-0.054864645 0.047209054 0.66898996
-0.3812868 -0.05190952 0.48570842
0.027500987 -0.035356477 0.709388
-0.6762106 -0.10163547 -0.7561799
-0.60284543 -0.22387342 -0.6701312
-0.18016362 -0.91932017 0.19314766
-0.42143244 -1.8066276 -0.40762624
-1.0342717 0.3096128 -0.69949484
-0.65725476 -0.44347245 -0.1299248
-0.89097506 0.5983786 -1.2734507
-0.7534018 0.9742302 -1.4999783
0.70629895 0.63013804 0.29097366
0.70661664 1.436425 0.00035315752
0.40529543 0.41937256 0.39934397
-0.19745976 1.7937096 -0.16278914
-0.26872396 0.7130715 0.3831407
-0.08610913 -0.19795631 0.7270364
0.14169379 -1.7867439 -0.12397471
0.3546865 0.64775366 0.42078227
-0.9712128 0.011734486 -0.67177594
-0.79079646 -0.046805397 -0.6417954
-0.43987435 0.19738731 0.38629
-0.87150556 0.80695784 -0.21627817
-0.17235821 0.042247444 0.67288446
-0.4334392 -1.7906836 -0.30680254
-0.38268453 -0.089816466 -1.5300542
-0.82967895 1.1388578 -1.331932
-0.7361476 -0.01921101 -1.0973681
-0.7681348 -0.01792647 -0.83612514
-0.8490558 0.20856829 -0.8918185
-0.28492767 0.35053736 -1.7572383
0.025547653 0.40222877 -1.8344406
-1.0785732 0.26299578 -0.9708574
-0.86694866 0.11563857 -0.888571
-0.91352063 -0.009189546 -0.8874116
-0.8892563 -0.17224579 -0.77984834
-0.54718673 1.3285159 -1.5593857
-0.19987643 -1.0675564 -1.1338806
-0.036666125 1.3216747 -1.7022744
-0.11223608 1.6310583 -1.5056939
-0.04218498 -0.78352225 -1.443756
0.113886535 0.61061144 -1.8945416
0.12355566 -1.1960592 -1.0099269
0.16039845 -0.33651757 -1.4041239
0.17062767 -0.19271766 -1.5157381
0.38631102 0.1518306 -1.6955723
0.31369185 0.8644214 -1.7934257
0.5052773 -1.0943583 -1.054148
0.9568102 0.24296156 -0.96328866
0.06703463 -0.00042535365 -1.6717786
-0.20877856 -1.8689181 -0.9094629
-0.09382975 -1.4032968 -0.9385934
0.17317517 -1.8880259 -0.8955492
0.3020242 -1.8882216 -0.8745284
0.35534087 -1.8714556 -0.8551204
0.41138768 -1.8783597 -0.78859484
0.7096479 -0.03833203 -1.3105448
0.761565 1.2761141 -1.374021
0.94769216 1.0819592 -1.3432685
0.85929066 0.114673324 -1.1104687
0.92854565 0.08492481 -0.98841226
1.0095522 0.4594599 -1.1784396
0.81553507 1.5788995 -0.88251257
1.0853564 1.2551637 -0.9956119
0.8448539 -0.060330316 -0.94508266
1.1138465 0.8137799 -0.6462842
0.71621037 -0.74229014 -0.75792027
0.9837378 -0.18043761 -0.98291576
0.8446018 -0.28600514 -0.7991735
0.72336316 -1.262242 -0.47241107
0.7826142 -1.0897206 -0.6084435
0.68197316 -0.70987195 0.0039913654
1.0278242 -0.043675408 -0.82173645
0.8536622 -0.120926335 -0.67471015
0.8997542 1.4330077 -0.57133925
1.0620028 1.2281431 -0.6053709
0.6942005 1.6241235 -0.31266764
0.7472379 0.39933485 0.07787627
0.757864 1.1875802 0.089055
0.5626818 0.45277035 0.32071114
0.2190531 0.40168557 0.4328792
0.2353746 -0.7611839 0.7041435
0.09752658 0.51102006 0.7004617
0.18580613 0.06482084 0.7625437
0.16086313 0.6558762 0.47948617
0.6532488 0.5468584 0.2861488
0.46892244 -1.1374844 -0.28176543
0.59506285 0.51193094 0.3639047
0.9811484 0.7259177 -0.274861
1.1196864 0.24274564 -0.8803786
0.24707998 -0.90955776 0.30531704
0.55421036 -0.8273353 0.21004778
0.0668641 -0.3274119 0.67163676
-0.007992685 -0.011196196 0.89811355
-0.79311675 -0.24733056 -0.5889623
-0.9579286 1.3125621 -0.894402
-0.41356647 1.528536 -1.4801247
-0.53689015 1.691271 -1.1208386
-0.8990938 1.2909166 -1.1498225
0.23406292 1.7670211 -0.10185185
0.13456519 1.8883725 -0.44332084
0.16859555 0.0279039 0.6398016
0.23179163 -0.038968727 0.6081684
0.11414829 -0.018894136 0.87446976
0.25418282 0.51378304 0.36115623
-0.9166786 0.32879162 -0.85179865
-1.0938301 0.24390009 -0.91341937
0.92925185 0.11345206 -0.74074495
0.97726583 -0.122624114 -1.0379288
0.96856993 0.31375423 -0.88646734
0.32734057 -1.8596715 -0.8617157
0.38082123 -1.5849864 -0.8759563
0.51574105 1.7603078 -0.28602222
0.08152822 1.87635 -0.96227956
-0.29763937 1.805391 -1.1330218
0.08463314 1.7756718 -1.3089316
0.31816882 1.6633015 -1.4634435
0.5559865 1.7344368 -1.1239011
-0.4028883 1.7953209 -0.50944054
1.0928674 0.17120546 -1.0982114
1.1269772 0.17174217 -1.020231
0.47354195 0.06929435 0.46253344
3 315 314 284
3 152 314 315
3 314 243 284
3 308 295 312
3 271 257 307
3 234 310 311
3 234 291 309
3 309 310 234
3 311 310 312
3 309 308 310
3 312 310 308
3 307 257 312
3 307 312 295
3 294 295 209
3 309 295 308
3 313 209 295
3 309 313 295
3 309 292 313
3 257 258 141
3 306 249 305
3 25 169 266
3 266 286 25
3 152 262 303
3 152 303 314
3 255 314 303
3 304 284 243
3 155 191 304
3 191 284 304
3 303 262 263
3 158 146 263
3 158 162 148
3 158 148 146
3 148 162 163
3 163 160 161
3 268 154 190
3 191 161 302
3 302 161 160
3 302 160 268
3 284 302 267
3 191 302 284
3 254 243 255
3 254 255 259
3 166 169 159
3 301 202 227
3 227 202 11
3 227 11 300
3 223 228 224
3 51 198 223
3 51 223 222
3 97 227 229
3 301 227 97
3 104 42 214
3 215 214 106
3 222 128 53
3 280 59 213
3 282 299 274
3 181 213 279
3 84 120 66
3 110 120 101
3 278 115 298
3 298 197 278
3 297 178 278
3 296 172 297
3 122 123 211
3 113 122 287
3 128 70 220
3 73 128 220
3 207 307 174
3 174 307 294
3 294 307 295
3 174 294 83
3 114 109 277
3 66 109 114
3 294 209 83
3 209 119 83
3 55 83 119
3 209 313 119
3 313 292 118
3 291 292 309
3 292 231 293
3 231 221 293
3 291 231 292
3 109 66 96
3 52 203 15
3 18 17 19
3 19 118 18
3 219 29 201
3 52 104 41
3 204 68 39
3 197 288 195
3 210 120 84
3 84 54 210
3 107 47 98
3 203 47 107
3 289 126 49
3 42 202 95
3 95 202 301
3 123 195 218
3 115 288 298
3 298 288 197
3 197 296 278
3 218 195 32
3 278 296 297
3 172 197 122
3 192 194 285
3 193 200 99
3 194 99 200
3 285 286 192
3 194 200 285
3 91 286 285
3 25 286 91
3 91 285 35
3 6 285 200
3 35 285 6
3 170 169 166
3 190 154 267
3 302 190 267
3 260 283 177
3 283 260 188
3 283 185 177
3 189 273 283
3 186 185 283
3 273 186 283
3 187 159 281
3 186 272 185
3 272 186 206
3 272 206 280
3 274 280 282
3 280 206 59
3 63 173 182
3 25 85 281
3 35 85 25
3 282 213 299
3 89 62 90
3 180 113 90
3 181 299 213
3 173 316 116
3 59 279 213
3 113 89 90
3 116 179 173
3 296 197 172
3 277 115 116
3 116 115 278
3 277 116 275
3 178 179 278
3 116 278 179
3 277 275 114
3 297 179 178
3 181 114 275
3 194 192 276
3 93 149 62
3 276 192 149
3 316 173 63
3 90 192 182
3 192 286 182
3 64 63 184
3 64 272 274
3 207 60 273
3 182 286 266
3 63 182 266
3 266 167 63
3 167 266 170
3 272 184 185
3 207 273 189
3 167 171 184
3 169 25 281
3 170 166 167
3 207 269 271
3 269 207 189
3 159 169 281
3 168 150 183
3 281 265 187
3 265 281 264
3 257 271 269
3 269 189 270
3 187 261 159
3 189 188 270
3 268 158 154
3 265 153 187
3 270 258 269
3 190 302 268
3 155 161 191
3 269 258 257
3 169 170 266
3 166 148 163
3 148 166 159
3 268 160 163
3 148 159 157
3 264 150 147
3 147 150 306
3 265 264 147
3 151 260 156
3 304 156 155
3 256 151 156
3 156 304 256
3 262 154 263
3 146 157 144
3 260 258 188
3 261 144 157
3 258 260 151
3 142 144 261
3 261 153 142
3 304 254 256
3 151 143 258
3 146 144 259
3 259 144 145
3 258 143 253
3 138 256 254
3 312 257 141
3 256 140 151
3 254 304 243
3 253 143 140
3 253 140 139
3 254 145 138
3 80 311 141
3 252 80 141
3 139 252 253
3 138 145 251
3 150 165 164
3 147 242 153
3 164 306 150
3 252 139 80
3 136 251 144
3 242 137 153
3 77 251 78
3 240 251 77
3 251 136 78
3 79 136 144
3 306 250 249
3 139 81 241
3 241 81 236
3 248 306 305
3 246 147 306
3 133 238 79
3 248 247 306
3 246 237 147
3 306 247 245
3 306 245 246
3 125 246 245
3 243 314 255
3 255 303 259
3 303 263 146
3 259 303 146
3 137 237 76
3 137 242 237
3 80 241 233
3 236 81 134
3 237 242 147
3 236 134 226
3 76 235 133
3 244 240 77
3 311 80 233
3 244 77 239
3 226 134 244
3 76 237 235
3 244 239 75
3 236 233 241
3 133 235 132
3 239 238 75
3 233 234 311
3 232 235 237
3 132 73 238
3 236 131 233
3 235 73 132
3 75 238 73
3 232 237 246
3 233 291 234
3 244 75 220
3 244 220 129
3 74 235 232
3 233 231 291
3 74 232 124
3 232 246 124
3 126 289 198
3 230 198 289
3 223 198 230
3 229 223 230
3 228 223 229
3 224 228 300
3 229 230 97
3 229 227 228
3 300 228 227
3 225 226 244
3 226 225 236
3 225 67 236
3 71 235 74
3 67 130 131
3 130 231 131
3 225 129 69
3 246 125 124
3 245 108 125
3 125 108 29
3 204 4 127
3 198 199 126
3 12 126 199
3 125 29 46
3 3 46 48
3 223 224 222
3 46 3 124
3 125 46 124
3 224 24 222
3 51 53 30
3 128 222 70
3 70 222 39
3 70 39 68
3 71 30 53
3 70 68 220
3 68 129 220
3 127 69 68
3 29 108 201
3 98 8 107
3 44 102 15
3 102 44 14
3 12 203 126
3 49 126 203
3 198 51 45
3 23 117 290
3 24 300 21
3 21 23 24
3 4 24 23
3 32 109 96
3 123 105 38
3 2 19 217
3 16 13 7
3 20 2 217
3 13 16 14
3 17 217 19
3 13 14 44
3 12 45 5
3 14 217 21
3 21 217 117
3 41 106 289
3 216 7 13
3 9 211 123
3 37 100 43
3 103 110 216
3 111 31 84
3 6 26 36
3 92 94 101
3 216 10 196
3 33 28 5
3 5 28 12
3 219 33 29
3 29 33 46
3 104 214 215
3 33 36 28
3 60 207 174
3 173 179 180
3 60 58 57
3 116 316 275
3 174 83 58
3 113 172 122
3 85 82 121
3 211 287 122
3 82 212 121
3 35 6 85
3 82 219 1
3 92 120 210
3 82 33 219
3 210 94 92
3 123 38 9
3 19 119 118
3 119 313 118
3 8 10 107
3 208 275 61
3 275 208 299
3 316 61 275
3 59 206 112
3 111 114 57
3 31 55 2
3 31 57 58
3 3 22 30
3 22 5 45
3 104 102 42
3 68 204 127
3 20 217 16
3 26 28 36
3 195 288 32
3 98 47 200
3 200 47 26
3 199 198 45
3 53 51 222
3 65 32 288
3 10 216 13
3 41 289 49
3 42 102 202
3 197 123 122
3 38 196 10
3 301 97 95
3 210 54 94
3 89 113 287
3 189 283 188
3 184 171 185
3 186 273 112
3 186 112 206
3 167 184 63
3 274 272 280
3 59 112 60
3 173 90 182
3 90 173 180
3 275 299 181
3 62 89 93
3 297 180 179
3 114 181 279
3 171 177 185
3 121 175 86
3 281 85 176
3 121 176 85
3 66 114 111
3 66 111 84
3 86 176 121
3 282 280 213
3 208 274 299
3 109 115 277
3 288 115 65
3 167 166 163
3 171 167 161
3 165 150 168
3 171 161 177
3 161 167 163
3 155 156 177
3 163 162 158
3 155 177 161
3 268 163 158
3 177 156 260
3 159 261 157
3 261 187 153
3 258 270 188
3 154 158 263
3 315 284 267
3 152 267 154
3 154 262 152
3 152 315 267
3 150 264 281
3 150 281 176
3 183 150 176
3 87 86 88
3 64 61 316
3 164 250 306
3 147 153 265
3 146 148 157
3 259 145 254
3 140 143 151
3 153 135 142
3 144 251 145
3 135 153 137
3 141 258 253
3 140 256 138
3 137 76 135
3 79 144 142
3 79 142 135
3 253 252 141
3 311 312 141
3 240 138 251
3 138 240 81
3 81 240 134
3 238 136 79
3 239 136 238
3 239 77 78
3 239 78 136
3 244 134 240
3 73 220 75
3 238 133 132
3 225 244 129
3 72 235 71
3 131 231 233
3 225 69 67
3 74 124 3
3 73 72 128
3 67 69 127
3 24 224 300
3 4 221 205
3 222 24 39
3 120 96 66
3 103 96 110
3 7 20 16
3 196 103 216
3 218 32 105
3 215 106 41
3 18 118 290
3 292 290 118
3 290 292 293
3 64 184 272
3 307 207 271
3 62 149 192
3 297 113 180
3 172 113 297
3 56 40 276
3 58 60 174
3 64 208 61
3 27 40 56
3 65 115 109
3 83 31 58
3 120 110 96
3 4 205 127
3 245 0 108
3 11 21 300
3 12 47 203
3 52 41 49
3 14 11 102
3 230 289 106
3 230 106 97
3 105 123 218
3 9 50 100
3 102 11 202
3 193 8 98
3 23 290 4
3 27 43 8
3 214 42 95
3 194 276 99
3 200 193 98
3 6 200 26
3 99 40 193
3 38 10 8
3 197 195 123
3 196 105 103
3 94 54 7
3 120 92 101
3 196 38 105
3 183 86 87
3 183 176 86
3 64 316 63
3 59 57 279
3 287 93 89
3 57 114 279
3 93 287 34
3 93 34 37
3 81 140 138
3 140 81 139
3 139 241 80
3 79 135 76
3 79 76 133
3 236 67 131
3 73 235 72
3 129 68 69
3 67 127 130
3 127 205 130
3 85 6 36
3 32 65 109
3 32 96 103
3 74 30 71
3 41 104 215
3 50 9 38
3 14 16 217
3 2 84 31
3 60 112 273
3 64 274 208
3 90 62 192
3 60 57 59
3 56 276 149
3 57 31 111
3 84 2 54
3 52 102 104
3 32 103 105
3 128 72 53
3 117 23 21
3 130 205 231
3 97 106 214
3 102 52 15
3 7 216 101
3 46 33 48
3 43 50 38
3 47 12 28
3 211 9 100
3 43 56 37
3 43 38 8
3 7 101 94
3 20 7 54
3 44 10 13
3 101 216 110
3 193 40 8
3 37 34 100
3 100 50 43
3 25 91 35
3 287 211 34
3 85 36 82
3 36 33 82
3 214 95 97
3 293 221 4
3 30 74 3
3 205 221 231
3 71 53 72
3 290 17 18
3 54 2 20
3 55 31 83
3 45 12 199
3 15 10 44
3 24 204 39
3 5 48 33
3 8 40 27
3 43 27 56
3 47 28 26
3 211 100 34
3 276 40 99
3 4 204 24
3 52 49 203
3 217 17 117
3 107 15 203
3 290 117 17
3 5 22 48
3 19 2 55
3 14 21 11
3 15 107 10
3 56 149 93
3 93 37 56
3 45 51 30
3 30 22 45
3 48 22 3
3 4 290 293
3 55 119 19
