ply
format ascii 1.0
comment Created in Blender version 4.0.2
element vertex 517
property float x
property float y
property float z
element face 1030
property list uchar uint vertex_indices
end_header
0.1076356 1.0839295 -0.6009436
0.2970744 0.7790154 0.1303386
0.34781933 0.73565924 0.18884632
0.24275169 0.8102038 0.14821823
0.37241828 0.63150364 0.027708134
0.5087447 0.7111994 0.08088759
0.43542138 0.75755835 0.033452462
0.12601092 0.6865401 0.18573374
0.1378565 0.7558652 0.20278798
0.1366675 0.99308246 0.26058233
0.25716847 0.75518554 0.22528133
0.27757004 0.80268806 0.26555654
0.25783318 0.83447737 0.19926724
0.22319049 0.9151567 0.19220859
0.35748655 0.9481409 0.29798916
0.31445643 0.9072411 0.28530967
0.26768193 0.9467153 0.2703841
0.22362335 0.965352 0.2254611
0.3032322 1.0054212 0.27491862
0.27444482 0.9875497 0.22464727
0.2591826 1.019741 0.24109255
0.19961347 0.988816 0.1775187
0.40689018 1.0592138 0.1864389
0.38594508 1.0523367 0.05558922
0.36790508 1.0641634 0.11080648
0.33891726 0.8172172 0.27070203
0.18380363 0.83660483 0.20837586
0.33668947 0.8549345 0.25315866
0.38325393 0.92784125 0.16951004
0.46751666 0.94678944 0.16916914
0.39113727 0.9834357 0.17374052
0.33313927 1.0387673 0.25142983
0.45410112 0.99300605 0.19120257
0.485197 1.0267606 0.18331778
0.18695956 1.0152483 0.1366265
0.25881243 1.0101275 0.024769349
0.21323551 0.8728479 0.17255151
0.5088813 0.99986446 0.12882133
0.41808122 0.7578714 0.0791972
0.5702941 0.8103012 0.106321216
0.5670477 0.82554656 0.04422011
0.53888804 0.8602637 -0.0120977545
0.46467546 0.90737915 -0.017485851
0.51410776 0.88807786 -0.05989371
0.44763857 1.045531 0.15834343
0.5866365 0.78533685 0.022754814
0.528113 0.9310447 0.074198484
0.47980127 0.96880984 0.061925266
0.32452568 0.9249018 -0.13806146
0.47882923 0.89743376 0.034588497
0.3526245 0.8827549 -0.15478484
0.37997335 0.941691 -0.012973284
0.32289436 0.9287507 -0.060428012
0.45987013 0.88386095 -0.081243396
0.28382382 0.68128884 -0.0058379783
0.303353 0.78522754 -0.08825597
0.32327244 0.85348046 -0.089969516
0.40111098 0.69554126 -0.041669846
0.41208842 0.75219595 -0.027288554
0.39015555 0.83321196 -0.044215392
0.4168962 0.82246006 -0.07233838
0.4413617 0.695902 0.05396314
0.37346065 0.6548389 0.11271853
0.49353778 0.7623074 0.0076510347
0.57610804 0.7679632 0.1269265
0.46638286 0.7667202 0.12990128
0.34509727 0.69106174 0.09765229
0.3527578 0.74180853 0.15634635
0.40632045 0.83733547 0.16331543
0.48855278 0.8035252 0.13265975
0.4641867 0.8434251 0.20043138
0.37296978 0.75722593 0.2452765
0.32399604 0.74948096 0.25894386
0.25915843 0.8882301 0.23352852
0.34519473 0.9166778 0.2338597
0.15178102 0.89212084 0.21416424
0.51313287 0.7592623 -0.063226275
0.59593827 0.7371185 0.041511487
0.28718483 0.60610324 0.07163694
0.52879155 0.7939628 -0.044781055
0.56265694 0.86941195 0.14910403
0.39245752 0.7960465 0.19472583
0.40474206 0.850256 0.21784595
0.39989397 0.96946716 0.22571623
0.2813606 0.66725516 0.03368475
0.28238916 1.0332928 0.19855793
0.47003284 0.75360984 -0.07725828
0.3784012 0.64838636 -0.023186386
0.5170455 0.83236474 0.02233691
0.33986884 1.046545 -0.15129255
0.3397974 0.9993484 -0.1636429
0.4194274 1.0817249 0.12745364
0.45288798 1.0276103 0.030368993
0.30233026 0.72847897 -0.06939693
0.35037482 1.0144513 0.15784754
0.5018554 0.9325019 0.042176537
0.30245107 0.9949659 0.066392906
0.316702 0.9857242 -0.018602563
0.33500367 0.821561 -0.14534084
0.29574397 0.69439185 0.08142788
0.28379285 0.6953895 0.03173756
0.43707645 0.7741089 0.09614675
0.2715951 0.7830893 0.07576349
0.16480254 0.6353069 -0.48306486
0.17946874 0.79158735 -0.46439093
-0.26613978 -0.6654852 -0.04854356
-0.2421646 0.4866417 0.18164584
-0.26627344 0.45672035 0.12379566
-0.67957085 -0.5291564 0.47112557
-0.7016734 -0.5737628 0.29681498
-0.73487943 1.1754689 -0.318074
-0.416184 0.89144444 0.23163371
-0.5096555 0.91411513 0.23441474
-0.51568973 0.96809 0.22199044
-0.40765193 0.9338433 0.28323185
-0.5445162 1.0165278 0.2031319
-0.5938249 1.0198774 0.15052468
-0.49373624 1.0232233 0.24101534
-0.4550759 1.0555812 0.19950551
-0.42079616 1.1541414 0.20006745
-0.5466887 1.1847643 0.07292067
-0.46472996 1.2606432 0.11110123
-0.6052705 0.94865376 0.15068868
-0.56899124 0.9588257 0.16705117
-0.67964077 1.2117383 -0.30416855
-0.54257697 1.1700361 -0.6123581
-0.5539264 0.91510046 -0.68189204
-0.5622904 1.0856836 -0.5818023
-0.5823443 1.115059 -0.5950551
-0.6389881 1.163998 -0.406869
-0.015436668 1.0035987 -0.6790398
-0.2562454 0.59605634 -0.64706534
-0.3362283 0.7542367 -0.7043118
-0.32627413 0.79826367 -0.7260948
-0.26254344 0.9036696 -0.72392553
-0.24834761 1.0847323 -0.7095778
-0.57086146 0.7894887 -0.67917866
-0.47331956 0.78188086 -0.7000208
-0.40956944 0.8429564 -0.7362604
-0.45452744 1.0295451 -0.70098424
-0.6693811 0.76309717 0.014825437
-0.6285561 0.84858423 0.06745628
-0.5463841 0.86278987 0.16602004
-0.7982656 0.8363366 -0.27754492
-0.77266353 0.8641934 -0.15255116
-0.7607675 0.9422232 -0.12974146
-0.6358685 1.0096607 0.1101326
-0.7168891 1.0835376 -0.10726037
-0.6479853 1.0952473 0.0028791695
-0.5748766 1.2443365 -0.05581658
-0.67641425 1.1618683 -0.22088136
-0.63399744 1.1982787 -0.35808703
-0.542314 1.2920405 -0.07945127
-0.5930674 1.163373 -0.50849265
-0.60425663 1.1938089 -0.5575936
-0.55526596 1.2395103 -0.54991555
-0.6346016 1.1361151 -0.3618154
-0.2745888 0.7612605 0.27919525
-0.2795056 0.81788355 0.28142148
-0.4233088 0.82964814 0.24291217
-0.36988464 0.76473045 0.24417515
-0.16492823 0.802928 0.28951365
-0.10107858 0.81436765 0.30759552
-0.22870542 0.89063656 0.29626817
-0.07795289 0.83751655 0.32444948
-0.12880273 0.88236725 0.30576035
-0.34864536 0.8834313 0.27682775
-0.056105763 0.8885892 0.30973566
-0.34481716 1.0097022 0.31020448
-0.21310881 0.96938306 0.32294998
-0.26246354 1.0167091 0.32033214
-0.13771027 1.0125356 0.33312002
-0.00615289 0.99751276 0.32283002
-0.26973638 1.0412812 0.28001052
-0.17053227 1.0792677 0.28750247
0.10962552 1.028801 0.22040918
-0.24464072 1.1967432 0.25903568
-0.28265762 1.2902484 0.19939262
-0.22994573 1.3183773 0.19114381
-0.3444824 1.4064217 -0.10406273
-0.00015287068 0.9533722 0.31495044
-0.020083271 1.0297348 0.27951044
-0.11454047 1.3427178 0.14398901
-0.15656054 1.4387624 -0.06063881
0.20118017 0.70030206 0.13063201
0.004825748 0.76119393 0.29643327
0.10603049 0.84712565 0.27722356
-0.056352675 1.2261581 0.23466167
0.17451356 1.2070959 0.07799699
0.0763225 1.1578215 0.20204082
-0.009890726 1.2690234 0.18031673
0.04933541 1.3038268 0.105641425
-0.02010043 1.4118748 -0.06957589
0.14704007 1.3383892 -0.27862373
0.21508011 1.1586838 0.03810398
0.17986125 1.2312 0.031766612
0.28769928 1.105499 -0.26941413
0.3378116 0.94788253 -0.2530781
0.33769846 1.0843155 -0.21233238
0.2625752 1.1921861 -0.23978597
0.12503277 1.3351622 -0.046628896
0.28187042 0.65547764 -0.06994328
0.36109427 0.8953798 -0.25546613
0.2900108 0.87108624 -0.37735477
0.3107285 0.9143624 -0.38941988
0.36229098 0.9879769 -0.21792148
0.2924185 1.0903109 -0.15909824
0.19331546 1.245822 -0.39731655
0.16937643 0.69318616 -0.3956516
0.30591482 0.6291597 -0.19205491
0.29299366 0.7737293 -0.23629212
0.34370762 0.81985795 -0.20493872
0.3326111 0.8203249 -0.30783433
0.23658432 0.7936766 -0.38207686
0.3095719 0.9535714 -0.35454202
0.24678694 0.974038 -0.45722976
0.18627667 0.9958642 -0.5528876
0.30023304 1.0609554 -0.3873112
0.24108894 1.076988 -0.47847217
0.16903944 1.1124692 -0.53873426
0.19895388 1.1166174 -0.45976537
0.09281313 1.130379 -0.5539423
0.11978023 0.78120893 -0.5521631
0.2829027 0.8192114 -0.3833926
0.26293573 0.9071729 -0.47270608
0.32826924 0.99759734 -0.3791124
0.2985724 1.0886338 -0.41592008
-0.0016199392 1.051708 -0.6543388
0.055513553 1.0931833 -0.6465348
-0.04741132 1.1259735 -0.6272131
0.050596207 1.2760537 -0.51673126
0.07518551 0.6018331 -0.4906354
0.005238063 0.69375205 -0.54705876
0.058899 1.0067446 -0.6333275
-0.12674193 1.0117297 -0.700735
0.07932805 0.52237797 -0.46418542
0.08682844 0.62567854 -0.45299795
0.077667154 0.7159201 -0.51626146
-0.08435373 0.7286922 -0.6269718
-0.12388829 0.7223166 -0.6481433
0.080903344 0.77519643 -0.58630925
-0.1965099 0.7961291 -0.69384706
-0.033495158 0.63199687 -0.56971824
0.1754373 0.6838251 -0.5287365
-0.096342266 1.063226 -0.68674797
-0.12228219 1.1625366 -0.6440839
-0.31889054 0.7348484 0.2878533
-0.24756981 0.6141614 0.16608177
-0.7851348 0.74910283 -0.29149842
-0.75640523 0.7384111 -0.42836177
-0.6775356 0.73328614 -0.5600665
-0.71331793 0.8224534 -0.5045137
-0.65914345 0.85656095 -0.59958535
-0.7544035 0.87926555 -0.43123692
-0.65410084 1.0540819 -0.50408447
-0.74049747 0.9637639 -0.40819347
-0.61656594 1.1187295 -0.409686
-0.6204131 1.0874696 -0.5479887
-0.59279525 1.1826098 -0.45225832
-0.5512669 1.2175276 -0.3484081
-0.55111116 0.41027334 -0.14189644
-0.52067214 0.40383005 -0.41160864
-0.48715803 0.36335853 -0.31895885
-0.4962947 0.44306183 -0.3141372
-0.535413 1.0482749 0.14348082
-0.0645141 0.9362175 -0.6937262
-0.3924141 0.97873616 -0.7304338
-0.724631 1.0799726 -0.32661083
-0.74321085 1.1085751 -0.2782821
0.23837079 0.8392527 -0.4851278
0.16568947 0.83335304 -0.5394023
0.22377154 0.8815752 -0.48529825
0.21000525 0.90188795 -0.5546376
0.16577794 0.9653695 -0.5462333
0.12179381 0.9688989 -0.5867936
0.14128208 0.80424845 -0.5870274
0.14960916 0.9143512 -0.5974663
0.037952058 0.80303085 -0.5601087
0.0047931443 0.82645416 -0.6378164
0.08648277 0.8156995 -0.5820768
0.065625906 0.96089906 -0.60226333
0.0012357989 0.9712773 -0.6501884
0.09251288 0.86792064 -0.6162215
-0.011777661 0.8898763 -0.68078655
0.07386905 0.9336701 -0.63609475
-0.727394 1.0594912 -0.31265846
-0.693425 1.1182914 -0.22010973
-0.71266073 1.081058 -0.4060196
0.1625922 0.6237345 0.19173239
0.05064693 0.6360346 0.22139403
-0.17068928 0.624699 0.18025568
-0.45814806 0.5995498 0.10694535
-0.40356496 0.57278734 0.091887
-0.28558517 0.6181818 0.13920903
-0.0011479772 0.74153435 0.25449967
-0.33416703 0.6345724 0.1589246
0.09498874 0.7678868 0.2732155
-0.3182697 0.6761967 0.18851598
-0.21670187 0.6660359 0.29279095
-0.4748459 0.65964144 0.09717076
-0.20362835 0.73181045 0.21691106
-0.3848154 0.7353858 0.17481127
-0.47869295 0.75957257 0.18397233
-0.16541824 0.761529 0.2934941
0.052490607 0.824427 0.29168433
0.13625562 0.903023 0.26552466
-0.2594813 0.7792506 0.2914134
-0.5345386 0.7850703 0.13974844
0.04507806 0.90151083 0.3122834
-0.17145029 0.84800386 0.31767115
-0.5341056 0.81993973 0.18813287
-0.023017287 0.91956025 0.3331857
-0.2474804 0.8584371 0.30950317
-0.10487513 0.92166024 0.3340382
-0.40831068 0.8536036 0.27366665
-0.19103412 0.9045819 0.32849059
-0.1303767 0.9637546 0.31753078
-0.25531706 0.9180766 0.32707307
-0.47081387 0.8869498 0.22184736
0.22209066 0.61968344 0.11502465
0.12178698 0.559749 0.2334097
0.22037397 0.639499 0.13912353
0.08864114 0.87821037 0.26263696
0.042298585 0.8609374 0.30807763
0.085173726 0.99441403 0.29394844
-0.76122504 0.7261659 -0.16907361
-0.26678798 0.62220746 0.25948957
-0.6334676 0.7134129 0.02882272
-0.37028152 0.71413517 0.23038907
-0.3117465 0.71889365 0.25489753
-0.6050022 0.89679205 0.14866452
-0.56679565 0.4932338 -0.0831655
-0.6203961 0.81820184 0.12075525
-0.3054605 0.56079364 0.131006
-0.6536931 0.6286542 -0.12228254
0.009276658 0.27239302 -0.46388385
0.34824392 0.47306573 0.0043203356
0.3068795 0.77132475 -0.15096639
0.31206885 0.67930514 -0.12815805
0.28647947 0.55796164 -0.15113059
0.3444635 0.21145758 -0.09582264
0.26301432 0.6449205 -0.23833159
-0.29415628 0.31930795 -0.5713078
-0.37903255 0.4602883 -0.5569654
-0.4943783 0.55036384 -0.5883712
-0.5316322 0.491489 -0.47673455
-0.47771344 0.26159602 -0.21587968
-0.7143225 0.6413665 -0.4300309
-0.5381269 0.49016574 -0.31888324
-0.5992287 0.5054865 -0.42237714
-0.54072934 0.42876107 -0.25854334
-0.57652813 0.4444288 -0.21735777
-0.67274654 0.5311688 -0.24973728
-0.33433792 0.30361587 -0.44054157
-0.14058433 0.27733397 -0.5337783
-0.4802921 0.40834093 -0.4559978
-0.38944584 0.37049916 -0.4670806
-0.18658195 0.37955853 -0.6094647
-0.27756453 0.46629596 -0.6161187
-0.4124702 0.47382873 -0.4657556
-0.3867908 0.5896061 -0.66290355
-0.60856587 0.66258156 -0.60367817
0.13153939 0.6982584 -0.46917787
0.1137286 0.5252785 -0.40980175
0.23093802 0.66137946 -0.47213465
0.14416647 0.53030187 -0.47522098
0.21837404 0.74803567 -0.51700175
-0.1239431 0.6774287 -0.62663347
0.17587529 0.55231225 -0.43846834
-0.3330958 1.3856094 0.04032048
-0.14400068 1.4555511 -0.16024072
-0.33475256 1.3495351 -0.4586113
0.008500028 1.3717864 -0.41464102
-0.14527941 1.3943427 -0.43813854
-0.15246034 1.314748 -0.5510852
-0.5541898 1.2267535 -0.42230412
-0.28831956 1.2522967 -0.60456955
-0.49515668 1.215339 -0.49545664
-0.4841265 1.1513783 -0.58807623
0.07817185 1.1291983 -0.5977721
-0.4255882 1.1496239 -0.64226496
-0.037642885 1.1040179 -0.6743902
-0.24092925 0.569151 0.21098654
-0.28898224 0.5655383 0.18064159
-0.19126189 0.5965153 0.2507411
0.105667815 0.4866349 0.24244705
0.18907171 0.5121841 0.20096576
-0.021817816 0.3901388 0.2636402
-0.19484559 0.5287755 0.14319189
0.9063464 -0.47980797 0.5472955
0.78128684 -0.49083048 0.51499265
-0.4208144 -0.50968796 0.51535964
-0.26040357 -0.45463383 0.71003413
0.058912173 -0.4192934 0.79494697
0.35423288 -0.38542378 0.80796367
0.83441776 -0.25186306 0.49298245
1.0399352 -0.5535472 0.2667079
-0.4349586 -0.59930116 0.19027838
-0.4591919 0.13341257 0.37806222
-0.19646303 0.18292865 0.4838052
-0.010371559 0.14506203 0.5539155
0.20192038 0.1322507 0.48542663
0.3213285 0.32699987 0.32519996
0.5331725 0.20419002 0.4481649
0.38614115 0.36219022 0.23351613
0.40781924 0.36658612 0.06435415
-0.003188 0.17012967 -0.30917495
0.721905 -0.5746954 0.21677013
0.95034134 -0.58814853 0.15302333
0.83593047 -0.5907987 0.15191382
0.7853803 -0.4031163 0.07633664
0.6540883 -0.63797945 -0.008322111
-0.07038826 -0.68845683 -0.17161618
-0.18924277 0.25710908 -0.49636266
-0.22057815 0.15772986 -0.3786126
-0.20478573 0.088023186 -0.3087653
-0.2379594 0.08076355 -0.22840442
-0.06861667 0.1518696 -0.08266908
-0.37804016 0.2023844 -0.33031186
-0.35226518 0.1864851 -0.28301403
-0.32018057 0.16468108 -0.16865417
-0.33818328 0.19285393 -0.034345757
-0.42376268 0.22665486 -0.13632192
-0.22080766 0.106862634 -0.16312861
-0.32408738 0.21083653 -0.3668897
0.10070823 0.23859577 -0.24610052
0.91128725 0.030713767 0.009640757
-0.47160098 0.2872818 -0.0441709
-0.5175398 0.002758652 0.08713184
0.16375273 0.0939309 -0.14239258
-0.5490737 0.04027134 0.12667747
0.1598891 0.3426679 -0.2954372
-0.15366822 -0.1548096 -0.092397265
-0.32229084 -0.106196225 0.028183604
-0.009160641 -0.0026791096 -0.13070263
0.22031334 0.04402259 -0.13445295
0.011775022 0.062042713 -0.095345296
-0.06116651 0.06429362 -0.03358469
-0.44818264 0.111905426 0.14248845
-0.2889825 0.19338772 0.22741792
-0.28354058 0.07676533 0.105366305
-0.12563352 0.16914937 0.108364396
-0.48583573 0.14014804 0.24316679
-0.14857346 0.28260213 0.253693
0.24872582 0.16853881 -0.14484726
0.42680246 0.24845132 -0.031652447
0.39646178 0.048940927 -0.122774966
0.550241 0.1522679 0.012063008
0.57617044 0.2559269 0.1267419
-0.12888882 0.28549516 0.3429831
0.015162695 0.31208202 0.37349808
0.8315622 0.1369994 0.2578911
0.66644603 -0.05868712 -0.057579298
0.7231081 0.12912291 0.028919922
-0.53788483 -0.5029118 0.5506548
0.66827863 -0.4410584 0.69258296
0.19999449 -0.42591268 0.78931075
-0.34510553 -0.5695742 0.29112682
-0.56451964 -0.6187734 0.15180266
0.26372916 0.5763815 0.09599568
0.5292645 -0.6636731 -0.13277817
0.32108873 -0.68355364 -0.16220458
-0.23703063 0.27478796 -0.4329567
-0.28792462 0.24448864 -0.43253252
-0.4400991 0.2761777 -0.35248026
-0.43473262 0.28395593 -0.28507203
-0.36872804 0.24444142 -0.1832678
-0.28226224 0.27985728 -0.482862
-0.39983484 0.27432653 -0.4067371
-0.49332044 0.25546497 -0.40686074
-0.5232427 0.28419018 -0.15709448
-0.4525685 0.2575454 -0.44660538
-0.40652657 0.46922302 0.054860838
-0.1422897 0.3468033 0.14186677
-0.054328073 0.51581365 0.19583158
-0.636899 -0.5114494 0.15073073
-0.23206796 -0.58384293 -0.12800366
-0.5736831 -0.5345818 0.12377073
-0.48268217 -0.37501496 0.07910619
-0.47098175 -0.26845747 0.0395946
-0.71406835 -0.48682684 0.4239292
-0.13062191 0.17850366 0.017374355
-0.110367 0.31540203 0.2218295
-0.3415033 -0.5366128 0.043730155
-0.15668555 -0.5174663 -0.1880858
0.6520139 -0.36854452 -0.12356811
0.81768066 -0.31491637 0.018266989
0.7658926 -0.23545659 -0.037361432
0.87957674 -0.010387719 -0.028995419
0.26245743 -0.049781084 -0.17955114
0.17115316 -0.51796633 -0.19645011
0.00995784 -0.51444083 -0.220125
0.34581256 -0.4575317 -0.22167453
-0.61278725 -0.34720403 0.5065383
-0.6299409 -0.13450986 0.4194726
-0.46826893 -0.22437316 0.5369849
-0.3707703 -0.13055158 0.5838083
-0.16863571 -0.3071453 0.7422325
0.4476831 -0.42441708 0.7784212
0.6529086 -0.24639642 0.6751551
0.58898085 -0.04372725 0.6192863
0.033687923 -0.23543632 0.7136588
0.33030024 -0.30650377 0.76937354
1.0151411 -0.49475032 0.4850168
0.97601944 -0.2280649 0.45813787
0.8409414 -0.09862125 0.46900272
0.99502134 -0.09699917 0.32445496
0.90457356 -0.034558237 0.40014338
1.0538516 -0.2147209 0.24372241
1.0417553 -0.2641822 0.35511446
0.9991862 -0.12770206 0.100264505
0.9278158 0.08528304 0.10343953
0.72290397 -0.49165595 0.16081737
0.6628213 -0.53438085 -0.03068494
-0.35366118 -0.31555218 -0.072205745
-0.69970214 -0.31676316 0.23342744
-0.6349335 -0.026143342 0.28075677
3 424 463 462
3 284 280 274
3 469 464 465
3 12 3 1
3 1 10 12
3 1 67 2
3 2 10 1
3 1 3 102
3 92 44 37
3 23 91 92
3 23 24 91
3 91 44 92
3 442 443 439
3 95 47 46
3 85 94 96
3 37 44 33
3 63 5 6
3 77 5 63
3 57 87 54
3 45 77 63
3 93 54 201
3 55 337 98
3 50 211 202
3 64 77 45
3 93 201 338
3 61 4 87
3 73 27 74
3 84 459 78
3 21 175 9
3 66 4 62
3 457 483 105
3 79 86 53
3 43 41 79
3 60 58 59
3 52 97 51
3 97 35 96
3 97 23 92
3 96 23 97
3 30 83 28
3 90 48 205
3 74 83 14
3 74 28 83
3 82 68 28
3 72 71 25
3 71 2 81
3 481 421 423
3 67 101 68
3 39 40 80
3 321 319 184
3 233 281 130
3 39 64 45
3 62 4 61
3 20 17 19
3 469 468 464
3 15 73 74
3 75 36 13
3 73 12 27
3 89 205 198
3 30 28 29
3 30 29 32
3 11 72 25
3 27 81 82
3 10 72 11
3 26 3 36
3 8 102 3
3 72 2 71
3 72 10 2
3 68 69 70
3 70 39 80
3 333 383 247
3 101 69 68
3 70 69 39
3 1 99 67
3 101 65 69
3 99 66 67
3 101 38 6
3 99 4 66
3 48 56 50
3 53 59 52
3 53 60 59
3 53 86 60
3 37 46 47
3 40 45 63
3 52 59 56
3 55 59 93
3 58 93 59
3 480 493 494
3 22 91 24
3 52 48 90
3 92 37 47
3 50 56 98
3 98 337 211
3 59 55 56
3 79 76 86
3 282 283 284
3 22 32 91
3 31 83 94
3 28 74 82
3 27 82 74
3 33 32 37
3 42 88 41
3 29 80 46
3 46 80 40
3 40 39 45
3 21 75 13
3 17 16 19
3 18 16 15
3 206 97 89
3 352 350 351
3 18 14 31
3 9 75 21
3 31 14 83
3 70 29 28
3 173 181 174
3 69 65 64
3 66 62 38
3 13 36 73
3 23 94 24
3 94 22 24
3 91 32 44
3 32 33 44
3 22 94 30
3 21 20 85
3 85 20 31
3 31 20 18
3 17 20 21
3 20 19 18
3 19 16 18
3 12 11 27
3 27 11 25
3 55 98 56
3 87 57 61
3 32 22 30
3 278 279 277
3 268 110 151
3 511 451 506
3 77 64 5
3 141 142 330
3 391 495 454
3 368 365 364
3 279 240 277
3 456 502 393
3 456 394 502
3 151 129 156
3 43 79 53
3 195 191 188
3 469 262 261
3 375 259 377
3 458 478 397
3 426 488 453
3 392 495 391
3 410 513 486
3 465 464 418
3 512 513 410
3 100 4 99
3 461 490 492
3 389 505 395
3 6 65 101
3 61 6 38
3 394 498 502
3 442 449 443
3 64 39 69
3 51 97 92
3 411 460 485
3 108 454 493
3 367 239 238
3 437 481 417
3 437 441 481
3 516 442 430
3 515 516 430
3 108 480 109
3 475 479 478
3 209 341 338
3 340 339 445
3 483 478 476
3 457 478 483
3 458 475 477
3 458 109 475
3 229 381 244
3 476 478 479
3 379 228 227
3 390 395 455
3 155 125 154
3 219 0 221
3 377 378 155
3 231 236 103
3 254 258 257
3 220 219 221
3 260 351 350
3 220 226 218
3 317 114 166
3 372 207 230
3 196 226 220
3 373 372 374
3 124 151 110
3 196 198 217
3 259 151 124
3 142 141 332
3 386 404 459
3 179 183 370
3 369 179 152
3 264 115 118
3 236 362 103
3 367 358 131
3 375 129 151
3 358 343 131
3 363 235 365
3 279 282 270
3 278 283 279
3 450 449 398
3 477 478 458
3 236 237 362
3 195 200 191
3 103 243 366
3 236 231 237
3 338 341 337
3 339 341 209
3 452 453 488
3 363 365 368
3 127 125 378
3 185 296 304
3 298 290 300
3 384 290 298
3 388 290 384
3 199 206 196
3 309 165 163
3 166 312 163
3 312 309 163
3 309 162 165
3 387 450 385
3 372 230 374
3 109 480 515
3 314 166 111
3 159 111 318
3 239 241 278
3 160 166 159
3 157 306 158
3 301 328 160
3 328 246 160
3 333 247 293
3 382 326 247
3 383 382 247
3 106 383 333
3 107 106 333
3 473 388 107
3 398 442 516
3 473 387 474
3 263 348 349
3 482 387 473
3 322 308 167
3 384 329 326
3 350 352 348
3 350 348 263
3 243 362 237
3 463 353 467
3 468 418 464
3 29 37 32
3 103 366 364
3 357 342 358
3 141 330 144
3 71 27 25
3 329 246 328
3 301 160 302
3 295 328 301
3 297 326 329
3 297 247 326
3 30 94 83
3 333 295 292
3 352 325 248
3 348 352 349
3 263 260 350
3 422 470 346
3 466 422 346
3 465 466 346
3 465 346 262
3 261 263 349
3 344 359 345
3 343 359 344
3 471 353 468
3 463 424 418
3 358 359 343
3 462 463 467
3 392 393 497
3 457 458 397
3 67 81 2
3 308 180 311
3 498 394 456
3 323 322 167
3 304 322 323
3 305 75 9
3 322 75 305
3 304 26 186
3 289 8 294
3 198 196 206
3 210 212 211
3 337 341 210
3 430 442 438
3 446 435 340
3 70 28 68
3 486 487 488
3 447 445 448
3 310 142 332
3 448 445 405
3 477 475 478
3 21 35 34
3 398 449 442
3 324 180 308
3 414 462 413
3 422 466 420
3 21 85 96
3 417 423 416
3 49 95 46
3 416 423 420
3 419 420 466
3 255 287 256
3 302 310 307
3 424 462 414
3 118 119 264
3 113 114 117
3 300 303 306
3 318 111 114
3 38 101 66
3 111 166 114
3 318 112 142
3 165 313 315
3 163 165 315
3 159 166 314
3 160 312 166
3 165 167 313
3 160 158 312
3 157 158 160
3 303 158 306
3 327 307 310
3 303 162 161
3 492 460 461
3 300 306 157
3 185 162 303
3 514 476 479
3 328 297 329
3 418 424 466
3 294 296 185
3 241 283 278
3 51 53 52
3 8 296 294
3 291 292 299
3 382 384 326
3 333 293 295
3 106 384 382
3 382 383 106
3 472 292 291
3 255 267 287
3 479 428 433
3 324 175 181
3 35 97 206
3 50 197 48
3 253 143 255
3 274 280 233
3 216 273 274
3 122 123 146
3 272 276 273
3 282 276 270
3 265 133 134
3 389 504 505
3 275 279 270
3 232 277 240
3 366 222 275
3 208 104 213
3 233 227 0
3 281 265 130
3 276 284 274
3 270 276 272
3 114 113 112
3 283 282 279
3 269 270 271
3 104 270 269
3 277 238 278
3 104 269 213
3 238 239 278
3 237 240 222
3 273 276 274
3 269 271 213
3 270 366 275
3 104 366 270
3 264 146 116
3 268 150 110
3 268 286 150
3 268 285 286
3 285 268 267
3 115 117 118
3 474 388 473
3 265 234 130
3 304 162 185
3 11 12 10
3 128 153 154
3 128 154 125
3 256 129 258
3 156 268 151
3 267 268 156
3 51 92 47
3 42 49 88
3 202 214 197
3 136 252 126
3 143 325 144
3 507 403 500
3 262 263 261
3 260 331 351
3 384 246 329
3 384 298 246
3 105 483 476
3 367 137 132
3 237 232 240
3 232 237 231
3 378 125 155
3 372 373 370
3 228 379 0
3 219 216 0
3 218 216 219
3 485 452 487
3 217 218 226
3 215 218 225
3 215 216 218
3 162 312 158
3 213 271 223
3 203 212 223
3 366 243 222
3 61 38 62
3 207 193 199
3 0 379 221
3 225 218 217
3 214 215 225
3 214 204 215
3 444 340 435
3 58 57 93
3 203 224 204
3 203 271 224
3 223 271 203
3 232 242 238
3 211 212 203
3 255 251 253
3 226 196 217
3 188 194 195
3 188 35 194
3 298 300 157
3 365 103 364
3 49 47 95
3 191 182 190
3 336 84 78
3 89 198 206
3 187 175 189
3 180 324 172
3 322 305 9
3 321 184 7
3 289 288 7
3 304 186 322
3 317 169 168
3 317 315 169
3 210 211 337
3 418 466 465
3 171 172 181
3 324 181 172
3 169 171 170
3 454 495 493
3 169 316 171
3 315 316 169
3 180 316 313
3 313 316 315
3 313 167 180
3 164 323 167
3 177 187 178
3 176 187 177
3 49 40 88
3 164 304 323
3 167 311 180
3 164 167 165
3 121 152 149
3 162 164 165
3 303 161 158
3 246 157 160
3 258 375 155
3 153 258 154
3 153 257 258
3 56 48 52
3 150 124 110
3 287 156 129
3 267 156 287
3 481 473 421
3 157 246 298
3 115 264 116
3 42 43 51
3 146 123 116
3 320 385 386
3 113 117 115
3 113 115 116
3 123 113 116
3 113 123 330
3 330 112 113
3 140 141 144
3 159 314 111
3 248 325 143
3 332 141 140
3 327 332 140
3 266 135 234
3 106 388 384
3 36 12 73
3 99 102 100
3 127 257 128
3 360 131 343
3 271 272 224
3 330 123 122
3 93 57 54
3 435 436 429
3 81 68 82
3 120 119 121
3 318 114 112
3 129 256 287
3 469 465 262
3 369 183 179
3 275 222 240
3 61 58 6
3 488 510 396
3 403 404 402
3 439 438 442
3 96 94 23
3 248 347 349
3 196 207 199
3 237 222 243
3 215 273 216
3 509 504 503
3 50 98 211
3 167 308 311
3 189 34 188
3 21 34 175
3 499 502 498
3 15 74 14
3 202 203 204
3 100 8 184
3 420 421 422
3 233 280 281
3 469 471 468
3 89 90 205
3 396 510 508
3 365 235 231
3 255 145 147
3 179 377 259
3 70 80 29
3 381 229 379
3 229 221 379
3 276 282 284
3 230 221 229
3 510 511 508
3 172 171 316
3 180 172 316
3 476 412 105
3 498 455 499
3 17 13 15
3 274 0 216
3 390 457 407
3 507 451 403
3 447 448 453
3 453 446 447
3 112 330 142
3 55 93 337
3 93 338 337
3 279 275 240
3 5 64 65
3 476 514 484
3 6 86 76
3 198 225 217
3 377 155 375
3 353 342 467
3 208 368 364
3 429 444 435
3 419 414 420
3 294 303 300
3 460 492 485
3 193 370 192
3 260 427 331
3 168 114 317
3 319 321 288
3 361 347 250
3 395 390 389
3 100 54 4
3 353 471 356
3 6 5 65
3 220 230 207
3 14 18 15
3 386 84 319
3 135 380 376
3 8 289 7
3 8 3 26
3 425 335 431
3 238 242 367
3 433 432 479
3 366 208 364
3 506 508 511
3 395 499 455
3 342 413 467
3 173 176 119
3 422 427 470
3 144 145 143
3 479 475 428
3 253 251 249
3 463 468 353
3 361 345 261
3 168 169 170
3 218 219 220
3 369 182 183
3 307 327 302
3 8 26 296
3 411 485 513
3 497 393 501
3 501 400 497
3 31 94 85
3 310 159 318
3 347 251 252
3 440 434 432
3 138 126 139
3 285 147 286
3 357 354 342
3 375 258 129
3 445 446 340
3 242 335 367
3 238 277 232
3 260 262 470
3 274 233 0
3 475 515 430
3 177 119 176
3 127 128 125
3 289 474 320
3 509 396 508
3 474 385 320
3 187 174 181
3 425 417 406
3 40 63 88
3 249 143 253
3 119 118 173
3 354 406 415
3 192 370 183
3 299 301 302
3 29 46 37
3 136 137 343
3 486 485 487
3 317 166 163
3 436 425 429
3 71 81 27
3 146 147 330
3 450 400 402
3 251 254 252
3 154 258 155
3 352 351 331
3 63 79 41
3 415 417 416
3 163 315 317
3 321 7 288
3 187 182 178
3 67 68 81
3 140 352 334
3 512 411 513
3 308 322 324
3 322 9 324
3 341 431 363
3 58 60 86
3 293 297 328
3 371 374 376
3 228 0 227
3 51 49 42
3 507 499 505
3 257 252 254
3 241 367 132
3 257 153 128
3 488 408 486
3 54 87 4
3 310 318 142
3 339 336 405
3 266 265 134
3 215 224 272
3 21 96 35
3 511 448 404
3 496 392 497
3 472 299 331
3 150 259 124
3 397 478 457
3 400 501 401
3 434 484 432
3 484 514 432
3 372 193 207
3 489 490 491
3 371 370 373
3 494 516 480
3 160 310 302
3 488 487 452
3 103 362 243
3 199 195 194
3 338 339 209
3 295 299 292
3 494 398 516
3 472 333 292
3 294 290 289
3 54 84 336
3 414 354 415
3 358 356 359
3 506 504 509
3 481 423 417
3 288 289 320
3 440 441 437
3 324 9 175
3 50 202 197
3 189 191 190
3 97 90 89
3 265 241 132
3 159 310 160
3 280 283 265
3 374 245 376
3 435 489 436
3 285 267 255
3 257 127 139
3 409 512 410
3 356 355 345
3 501 502 403
3 173 170 181
3 490 412 491
3 200 193 192
3 152 286 148
3 256 254 251
3 371 380 378
3 440 438 439
3 369 177 178
3 299 327 334
3 202 204 214
3 327 310 332
3 399 497 400
3 213 212 210
3 452 492 489
3 200 199 193
3 107 427 421
3 352 331 334
3 130 381 227
3 262 346 470
3 404 336 459
3 414 416 420
3 398 493 496
3 436 417 425
3 194 35 206
3 296 26 304
3 149 120 121
3 441 443 482
3 34 35 188
3 413 462 467
3 365 231 103
3 49 51 47
3 459 336 78
3 175 187 181
3 482 449 387
3 495 496 493
3 515 480 516
3 49 46 40
3 26 75 322
3 164 162 304
3 205 197 214
3 440 428 430
3 453 511 426
3 441 473 481
3 259 375 151
3 42 41 43
3 192 182 191
3 408 410 486
3 325 140 144
3 144 330 145
3 135 245 229
3 244 130 135
3 250 136 361
3 135 266 139
3 469 355 471
3 106 107 388
3 36 3 12
3 120 264 119
3 484 491 412
3 99 1 102
3 271 270 272
3 66 101 67
3 466 424 419
3 444 425 431
3 61 57 58
3 480 108 493
3 386 402 404
3 131 360 137
3 367 357 358
3 131 137 367
3 398 399 450
3 450 387 449
3 51 43 53
3 389 503 504
3 264 148 146
3 474 290 388
3 158 161 162
3 162 309 312
3 255 256 251
3 121 369 152
3 396 408 488
3 488 426 510
3 403 451 404
3 349 352 248
3 248 249 347
3 196 220 207
3 189 175 34
3 499 500 502
3 202 211 203
3 319 84 100
3 100 102 8
3 8 7 184
3 184 319 100
3 420 423 421
3 147 285 255
3 255 143 145
3 150 152 179
3 179 371 377
3 259 150 179
3 229 245 230
3 230 220 221
3 510 426 511
3 476 484 412
3 15 16 17
3 17 21 13
3 13 73 15
3 408 396 503
3 503 389 390
3 390 455 498
3 456 393 392
3 390 498 456
3 408 503 390
3 407 409 408
3 460 411 407
3 412 461 460
3 457 105 412
3 109 458 457
3 454 108 109
3 456 392 391
3 391 454 109
3 457 412 460
3 391 109 457
3 390 456 391
3 407 408 390
3 457 460 407
3 390 391 457
3 507 506 451
3 76 63 6
3 6 58 86
3 198 205 225
3 353 356 342
3 208 363 368
3 419 424 414
3 294 185 303
3 193 372 370
3 260 470 427
3 168 117 114
3 288 320 386
3 386 459 84
3 319 288 386
3 135 139 380
3 425 406 335
3 433 440 432
3 432 514 479
3 366 104 208
3 506 509 508
3 395 505 499
3 342 354 413
3 173 174 176
3 422 421 427
3 463 418 468
3 349 347 361
3 361 344 345
3 345 355 261
3 261 349 361
3 369 178 182
3 252 250 347
3 347 249 251
3 139 266 138
3 138 136 126
3 357 335 354
3 445 447 446
3 242 232 231
3 231 235 335
3 335 357 367
3 242 231 335
3 260 263 262
3 430 428 475
3 475 109 515
3 177 121 119
3 289 290 474
3 509 503 396
3 474 387 385
3 187 176 174
3 249 248 143
3 354 335 406
3 344 361 136
3 136 138 133
3 133 132 137
3 137 360 343
3 343 344 136
3 136 133 137
3 486 513 485
3 330 122 146
3 146 148 147
3 147 145 330
3 386 385 450
3 450 399 400
3 400 401 403
3 402 386 450
3 400 403 402
3 41 88 63
3 63 76 79
3 415 406 417
3 187 190 182
3 334 327 140
3 140 325 352
3 512 407 411
3 213 210 341
3 341 339 340
3 340 444 431
3 431 335 235
3 363 208 213
3 431 235 363
3 341 340 431
3 363 213 341
3 328 295 293
3 293 247 297
3 371 373 374
3 507 500 499
3 505 504 507
3 257 126 252
3 241 239 367
3 405 445 339
3 339 201 336
3 133 138 266
3 266 234 265
3 134 133 266
3 272 273 215
3 215 204 224
3 404 451 511
3 448 405 404
3 496 495 392
3 331 427 472
3 472 291 299
3 299 334 331
3 484 434 489
3 489 492 490
3 491 484 489
3 371 179 370
3 194 206 199
3 199 200 195
3 338 201 339
3 295 301 299
3 472 107 333
3 294 300 290
3 336 201 54
3 54 100 84
3 414 413 354
3 358 342 356
3 506 507 504
3 436 434 440
3 440 439 443
3 440 443 441
3 437 436 440
3 190 187 189
3 189 188 191
3 97 52 90
3 132 133 265
3 265 283 241
3 265 281 280
3 280 284 283
3 374 230 245
3 435 446 489
3 489 434 436
3 139 126 257
3 127 380 139
3 409 407 512
3 345 359 356
3 356 471 355
3 403 401 501
3 501 393 502
3 502 500 403
3 173 118 117
3 117 168 170
3 170 171 181
3 173 117 170
3 490 461 412
3 148 149 152
3 152 150 286
3 286 147 148
3 256 258 254
3 378 377 371
3 371 376 380
3 380 127 378
3 369 121 177
3 299 302 327
3 213 223 212
3 489 446 453
3 452 485 492
3 489 453 452
3 421 473 107
3 107 472 427
3 381 379 227
3 227 233 130
3 404 405 336
3 414 415 416
3 497 399 398
3 398 494 493
3 496 497 398
3 436 437 417
3 149 148 120
3 482 443 449
3 322 186 26
3 26 36 75
3 214 225 205
3 205 48 197
3 430 438 440
3 440 433 428
3 453 448 511
3 441 482 473
3 191 200 192
3 192 183 182
3 408 409 410
3 229 244 135
3 135 376 245
3 244 381 130
3 130 234 135
3 250 252 136
3 469 261 355
3 120 148 264
3 444 429 425
