ply
format ascii 1.0
comment Created in Blender version 4.0.2
element vertex 246
property float x
property float y
property float z
element face 488
property list uchar uint vertex_indices
end_header
-0.1032487 0.82646304 -0.16582873
0.5613791 -0.5134898 0.023868449
0.12028311 1.2140973 -0.15845783
0.83390164 0.40332568 -0.4885968
0.069794625 -0.13267908 0.49627632
0.06738736 -1.318005 0.20750394
-0.44571888 0.30943882 -0.42627594
-0.495095 0.42800236 -0.29776838
0.35651246 1.0834684 0.2453855
0.6800108 0.33628452 -0.36275896
-0.6493429 0.29485828 0.030318342
0.45317698 -0.22858305 0.44449383
0.28033218 0.803631 -0.16620679
0.25989285 -1.35491 -0.30544144
-0.6002381 0.49505556 -0.30856025
-0.1288313 -1.3395963 -0.30104184
0.2811301 1.6263244 -0.003269706
0.34494942 1.3395207 -0.059058957
0.32274383 -1.3339286 -0.041807212
-0.077861205 -0.36078167 0.48594362
-0.5462484 0.42335796 -0.043117125
-0.15724686 -0.06583457 0.37546715
0.009605572 0.75039387 -0.299445
0.8003621 0.15823686 -0.08078995
-0.12849578 1.5248088 0.13238087
0.37946397 -1.347275 -0.2865138
0.03392914 0.27472478 -0.23960742
0.021149881 -1.1453393 -0.0941613
0.03400989 -1.3563483 -0.30454698
0.27098298 0.8794416 -0.16349633
-0.10401951 -1.3436836 -0.031316392
0.2248607 0.3842976 0.32854494
-0.06626649 1.6422704 0.15438037
-0.14004228 -1.2651939 -0.30404866
0.13606797 -0.57934517 0.19233629
0.20605224 -1.1498884 -0.057316102
-0.16218355 -1.181717 -0.14148575
0.30367106 0.85452443 -0.32232186
0.18899931 -1.3270706 0.18270606
0.9577491 0.36759627 -0.3479165
-0.32017818 -1.3068839 0.049422048
0.9638965 0.26246428 -0.14725606
0.4479605 -0.5205546 -0.0910065
0.87045896 0.18666154 0.018210284
-0.10825431 -0.1518617 -0.28849593
0.918083 0.4339646 -0.45371765
-0.12675577 -0.6426047 -0.090606466
-0.2984426 -1.271947 0.1927846
-0.037924573 0.9922062 -0.27560973
-0.080271035 0.7225037 -0.10560961
0.3287671 -0.18141021 0.51285547
0.008597232 1.3717244 -0.11409964
-0.30081803 -0.17757578 0.11965898
0.282992 0.75591713 -0.2870918
0.36071008 0.7673039 -0.075348884
0.2638506 -1.2780422 -0.33049193
0.3360144 0.3956288 -0.21909654
0.15446971 1.5942715 -0.07499458
0.80120546 0.47322953 -0.34243357
0.78328484 0.33929694 -0.33828163
-0.06294966 0.82834506 -0.1997744
0.4197417 -0.70493776 -0.093975306
-0.005958423 0.5790655 -0.16294399
0.12875037 -0.6258852 0.05435732
-0.120222956 -1.3730241 0.26428434
0.86657757 0.40212536 -0.41433674
0.00069640577 0.8830302 -0.16490212
0.5867535 -1.2275425 0.01599558
-0.058039144 1.156842 -0.15668723
-0.23714408 -1.3449228 -0.22716008
0.7105898 0.318047 -0.42741242
0.44794607 -0.8971947 -0.09914416
0.50909 0.27848202 0.09268224
-0.5901299 0.37675458 0.092700854
-0.65155846 0.4118598 -0.46956846
0.42096272 -0.4814512 0.2994652
-0.1422497 0.6756752 0.11754513
0.19725946 -0.64899766 0.2181665
0.11156583 -0.31229043 -0.3118776
0.45325196 -0.11858392 -0.21326093
-0.30385807 -1.3400733 -0.15159847
-0.43394464 0.37318522 -0.097337365
0.19748986 -1.3192683 -0.18412127
0.38809788 1.5491904 0.15123755
0.8756287 0.33717299 0.115623534
-0.06645891 -1.2813756 -0.30694142
0.13010974 0.8600834 -0.2003828
0.44240975 0.2646255 0.16568479
0.2603064 -0.91882575 -0.06950934
-0.08760008 1.2818533 -0.096334636
0.33822498 0.6285249 0.2382223
-0.624338 0.1884827 -0.0052536055
-0.5647124 0.36337078 -0.48491225
-0.2885382 -1.2393315 -0.043160465
0.0967361 -0.68524086 0.15629129
0.5735475 -0.2751369 0.12922962
-0.40573037 0.3419925 -0.37076077
0.5034187 -1.3670697 0.055087343
-0.2660244 -1.3722343 0.013059292
0.4102552 0.98834854 0.1510222
-0.7168833 0.35950917 -0.44265097
-0.13772598 -0.8046946 -0.12635854
-0.16334414 -0.4770649 0.30426142
0.57233155 -1.3369491 -0.15604132
0.11096524 1.4940671 0.42879614
0.23931895 1.712343 0.19613169
-0.715658 0.3883422 -0.32224366
-0.0057631135 -1.3145756 0.27884534
-0.16228467 -0.8994077 -0.09673554
-0.5166334 0.45576113 -0.40144032
0.8038402 0.42227417 -0.043008994
-0.026979327 -0.23313145 0.52580625
0.17598265 1.15409 -0.2914466
-0.43886268 0.32693717 0.24419525
0.32053858 0.9916532 -0.24722598
-0.16782328 -0.19156577 0.45740122
0.7683456 0.41626304 -0.314756
0.9932548 0.41998142 -0.27946407
0.118404984 -1.2719076 -0.064073965
0.3143772 -0.36136055 0.49184394
0.12663902 1.0032898 0.35548732
-0.62837815 0.37035066 -0.46519965
0.57399416 0.52607954 0.0065523647
-0.28861037 -0.38630223 0.17373969
0.46711114 0.24652828 0.07060499
0.14987642 -1.2843109 -0.048297517
-0.5215553 0.3817137 -0.4807174
-0.1520068 1.0586972 0.258745
-0.46968848 0.3884133 -0.22155178
0.07417138 0.7970455 -0.29473245
-0.024614379 1.5831127 -0.014027128
0.19704323 -0.4645664 -0.16925111
-0.47828597 0.15897867 -0.052468415
-0.52547556 0.3961032 -0.37477756
0.23432967 1.0708549 -0.16361888
0.07952301 1.6938877 0.04392101
0.13862991 -0.32858956 0.47744894
0.32234985 0.26403028 -0.2066353
0.8146374 0.3837546 -0.37776855
-0.26982954 -0.59224945 -0.011037117
-0.078503296 0.40459007 -0.21799517
0.2360589 -1.2321689 -0.29423612
0.91020614 0.37147754 -0.46937686
0.57128185 -1.3230832 0.1190508
0.50872964 0.30841613 0.20036893
0.15469852 1.3243494 -0.1483352
0.42135313 -1.1955389 -0.14930262
-0.07113832 0.63025564 0.24501047
0.41090673 -1.3707396 0.25753096
0.98193765 0.35093933 -0.4350166
0.39948297 -0.8049886 -0.1284092
-0.1427623 0.97140974 0.14245209
-0.082168624 0.96557945 -0.0888848
0.076164685 -0.101557076 -0.3571926
0.056435123 -1.3471519 0.09775488
0.88431823 0.26324677 -0.2991072
0.22177099 1.2982677 -0.17198052
-0.18252414 1.1113844 0.14043643
-0.16803521 0.25975895 0.18115343
0.18738396 -1.3164431 -0.28571862
0.319064 -1.3260336 0.3019616
0.5119126 -1.2945888 -0.23323359
-0.20168674 0.24863984 0.079210185
0.5125407 0.36119574 -0.007956348
0.111695275 1.1859552 -0.29561004
0.12146489 1.0700686 -0.22929645
0.2857632 -0.16922958 -0.32948893
0.08748636 0.40168548 0.33833995
0.31361803 -0.59175855 -0.10448156
0.041669056 0.6307888 -0.19300072
0.17249027 -1.1746936 0.058433987
0.35160035 1.3019876 -0.10329365
-0.09874612 0.37738734 0.2519335
0.40735722 0.6767155 0.12357132
-0.6175094 0.25766432 -0.29002458
-0.4922145 0.30284625 -0.25104815
-0.71016073 0.44979155 -0.30695412
0.8083742 0.35705912 -0.48468775
-0.17777035 -0.94798577 0.30753174
-0.054399684 1.5049901 0.34497318
0.6363322 0.48522913 0.25109646
0.00845474 0.8007253 -0.1767923
-0.5867047 0.40457922 -0.40494072
-0.018848106 -0.5234351 0.307761
-0.14074099 0.6498733 0.014574442
0.49963713 -1.3372178 -0.23912966
0.10397317 -1.190985 0.066599034
0.016621828 1.0680552 -0.15899336
0.315363 -0.53342193 0.30741522
0.26405987 0.62042195 -0.16463858
0.9107206 0.49196112 -0.31518406
-0.24996501 0.26321024 0.1319843
0.050129183 -0.6620834 -0.037624918
0.33338106 1.1583323 -0.13761108
0.5707866 -1.0669655 0.19872788
0.3522545 0.82428604 -0.18677367
-0.51015776 0.35303956 -0.34111214
0.45506203 -1.2763618 0.29958314
0.3969531 0.61549556 -0.01707418
-0.42032707 0.5278378 0.14404556
-0.37655336 0.4583897 0.25547162
0.08168588 -1.297979 -0.2674235
-0.14427564 1.1651708 0.14184184
-0.123092264 0.24266495 -0.14292827
-0.46355247 0.18838581 0.110518664
0.4098452 -1.2825763 -0.31428638
-0.14353168 -1.3151677 0.3069051
0.0074751824 -1.3549774 -0.1337362
0.27262408 -1.3583313 -0.16979174
-0.26887357 -0.16428272 -0.082442194
0.018095106 1.67072 0.28847492
-0.04203835 0.87143564 -0.31794992
0.17266552 1.6431904 0.3499138
0.7064979 0.37662482 -0.08466694
0.025679052 -0.46976203 -0.17279954
0.31300235 -1.1467792 -0.12683524
0.3408411 0.9784896 -0.08609085
0.5255056 -0.435318 0.21967837
0.9400869 0.4061433 -0.38706732
0.035990454 -1.2530814 -0.3232501
0.7397084 0.35034972 -0.23466031
-0.0972013 1.0408013 0.23368368
0.039428405 1.3152702 -0.16690356
-0.19815364 0.40785313 -0.012242716
0.7554717 0.16441971 0.0827061
0.43030754 1.0655979 0.25644994
0.44989 1.1067104 0.13782378
0.41137922 1.1637683 0.13702478
0.05970806 1.1637713 -0.19038726
0.6740276 0.25496602 -0.07488313
1.0095243 0.39388615 -0.4140124
0.7461523 0.49027693 0.14557506
0.16666734 -0.6809294 0.09246123
0.33215815 1.5163351 0.34005305
0.7111354 0.3323222 0.24058965
-0.65540105 0.38403678 -0.38302073
0.34186107 0.38249576 0.257261
0.21302679 1.1618667 -0.19346239
-0.26447994 0.49747986 -0.014137248
-0.25251472 -1.3027011 -0.23227091
0.23595089 0.8515783 -0.23982134
0.5047481 0.030295596 -0.06533532
0.20618528 -0.6406006 -0.029929418
0.42315924 0.43847108 -0.04504321
-0.25715572 0.28486753 0.0422865
0.279778 0.009968452 0.44048765
3 182 121 74
3 92 14 109
3 92 109 126
3 133 182 92
3 121 182 235
3 138 177 65
3 177 3 65
3 92 126 133
3 177 58 3
3 109 133 126
3 45 142 65
3 14 92 182
3 142 218 65
3 142 45 218
3 121 235 74
3 74 235 176
3 39 218 149
3 138 116 177
3 116 58 177
3 45 190 218
3 58 65 3
3 14 182 74
3 45 65 190
3 59 70 116
3 6 196 7
3 106 100 235
3 117 149 230
3 149 117 39
3 176 100 106
3 230 149 218
3 230 218 190
3 65 58 190
3 70 59 220
3 9 70 220
3 218 155 65
3 138 65 155
3 59 138 155
3 174 235 182
3 133 196 182
3 196 174 182
3 7 96 6
3 109 7 133
3 100 176 235
3 159 55 13
3 153 78 44
3 78 153 166
3 166 153 137
3 6 175 196
3 235 174 106
3 116 138 59
3 133 7 196
3 109 14 7
3 37 211 48
3 201 28 219
3 85 219 28
3 39 41 155
3 39 155 218
3 230 190 117
3 14 74 176
3 211 37 60
3 37 48 114
3 161 185 205
3 185 25 205
3 85 28 15
3 25 55 205
3 13 55 25
3 33 85 15
3 55 159 141
3 132 174 196
3 132 196 175
3 9 116 70
3 96 7 128
3 53 22 129
3 239 15 69
3 15 239 33
3 137 79 166
3 96 175 6
3 39 117 41
3 96 128 175
3 9 58 116
3 37 240 60
3 60 0 211
3 164 112 165
3 141 215 55
3 85 33 36
3 58 9 220
3 7 14 128
3 53 129 195
3 208 13 25
3 205 146 161
3 146 205 55
3 36 33 239
3 78 131 214
3 78 42 131
3 42 78 166
3 44 78 214
3 42 166 79
3 153 26 137
3 91 106 174
3 22 53 169
3 169 53 189
3 22 0 129
3 114 165 134
3 48 165 114
3 165 48 187
3 207 15 28
3 215 146 55
3 153 44 26
3 59 155 229
3 59 229 220
3 56 137 26
3 106 10 176
3 22 49 0
3 181 12 129
3 0 60 129
3 240 37 195
3 60 240 66
3 165 112 237
3 228 164 165
3 208 25 185
3 208 82 13
3 13 82 159
3 118 28 201
3 28 118 207
3 103 185 161
3 159 82 141
3 85 36 219
3 42 168 131
3 46 44 214
3 44 203 26
3 56 26 189
3 62 26 140
3 128 14 20
3 22 169 49
3 53 195 189
3 129 60 181
3 240 195 29
3 86 240 29
3 240 86 66
3 164 228 2
3 237 112 164
3 237 164 2
3 219 27 201
3 36 27 219
3 140 26 203
3 81 175 128
3 10 73 176
3 220 213 58
3 26 62 189
3 189 62 169
3 12 195 129
3 114 195 37
3 228 165 187
3 165 237 134
3 98 15 207
3 80 69 15
3 239 69 80
3 82 125 141
3 27 118 201
3 41 117 84
3 190 58 213
3 20 14 176
3 73 20 176
3 86 12 181
3 0 48 211
3 48 152 187
3 68 228 187
3 93 239 80
3 139 44 46
3 155 41 23
3 81 128 20
3 12 29 195
3 60 66 181
3 86 29 12
3 114 134 216
3 237 193 134
3 237 2 156
3 193 237 156
3 2 68 222
3 228 68 2
3 145 2 222
3 222 68 89
3 103 208 185
3 207 118 154
3 146 103 161
3 239 93 36
3 103 146 67
3 215 141 35
3 203 44 209
3 155 23 229
3 137 241 79
3 110 190 213
3 181 66 86
3 216 134 193
3 2 145 156
3 193 156 171
3 89 51 222
3 145 222 51
3 98 80 15
3 79 1 42
3 44 139 209
3 49 169 62
3 195 54 189
3 145 17 156
3 145 51 57
3 125 82 208
3 71 146 215
3 192 101 46
3 168 242 131
3 174 132 91
3 175 81 244
3 229 213 220
3 117 190 84
3 190 110 84
3 62 140 223
3 243 56 189
3 54 195 216
3 195 114 216
3 152 48 0
3 17 171 156
3 35 141 125
3 35 88 215
3 150 71 88
3 150 168 61
3 168 42 61
3 63 192 214
3 41 43 23
3 191 132 175
3 191 175 244
3 54 198 189
3 0 49 152
3 17 145 57
3 17 57 16
3 97 208 103
3 30 98 207
3 27 186 118
3 10 106 91
3 124 137 56
3 124 56 243
3 140 203 223
3 203 162 223
3 62 223 184
3 198 243 189
3 62 184 49
3 68 187 152
3 209 162 203
3 223 81 238
3 57 51 130
3 208 97 18
3 40 93 80
3 125 170 35
3 61 1 71
3 162 209 52
3 43 224 23
3 137 124 241
3 223 244 81
3 163 213 229
3 122 213 163
3 243 122 163
3 223 238 184
3 193 171 216
3 171 17 216
3 30 207 154
3 98 40 80
3 1 79 241
3 110 213 122
3 198 122 243
3 184 152 49
3 216 17 227
3 170 88 35
3 40 139 93
3 224 72 23
3 72 229 23
3 223 162 244
3 163 124 243
3 81 20 76
3 81 76 238
3 76 184 238
3 198 54 227
3 54 216 227
3 68 152 202
3 135 57 130
3 1 241 95
3 91 132 204
3 41 84 43
3 163 229 72
3 89 68 202
3 130 51 24
3 51 89 24
3 16 57 135
3 97 103 143
3 40 98 47
3 38 125 208
3 232 63 242
3 20 199 76
3 73 199 20
3 99 173 198
3 184 151 202
3 184 202 152
3 99 198 227
3 17 83 227
3 83 17 16
3 32 135 130
3 30 64 98
3 67 143 103
3 124 163 72
3 84 110 231
3 122 198 173
3 24 89 202
3 18 38 208
3 52 139 123
3 95 241 124
3 84 224 43
3 110 122 173
3 151 184 76
3 130 24 32
3 125 38 170
3 244 162 191
3 10 91 113
3 173 231 110
3 226 99 227
3 135 105 16
3 148 97 143
3 148 18 97
3 5 154 118
3 132 191 204
3 151 157 202
3 16 105 83
3 38 18 148
3 194 143 67
3 5 118 186
3 1 194 67
3 95 124 87
3 91 204 113
3 144 124 72
3 173 180 231
3 77 63 232
3 1 95 217
3 52 158 162
3 124 144 87
3 99 226 225
3 135 32 210
3 105 135 210
3 154 64 30
3 232 170 38
3 224 144 72
3 224 84 234
3 151 76 147
3 151 147 221
3 64 47 98
3 191 113 204
3 158 191 162
3 113 73 10
3 84 231 234
3 76 199 147
3 8 173 99
3 157 127 202
3 5 64 154
3 5 186 94
3 191 172 113
3 73 113 200
3 231 180 234
3 200 199 73
3 199 200 147
3 173 90 180
3 157 151 127
3 227 225 226
3 83 233 227
3 197 143 194
3 11 95 87
3 236 87 144
3 225 8 99
3 151 221 127
3 21 52 123
3 52 21 158
3 158 172 191
3 224 234 144
3 8 225 227
3 202 127 221
3 233 8 227
3 179 24 202
3 179 202 221
3 105 233 83
3 160 38 148
3 64 5 107
3 234 236 144
3 8 90 173
3 24 179 32
3 212 105 210
3 64 107 206
3 64 206 47
3 178 47 206
3 77 188 34
3 158 21 172
3 180 236 234
3 113 172 147
3 113 147 200
3 180 90 236
3 221 147 179
3 148 143 197
3 160 148 197
3 172 167 147
3 90 31 236
3 179 210 32
3 197 75 188
3 197 188 160
3 115 21 123
3 105 212 233
3 31 90 120
3 167 120 147
3 95 11 217
3 87 236 245
3 236 31 245
3 21 167 172
3 31 120 167
3 90 8 233
3 167 21 4
3 120 90 104
3 90 233 104
3 183 34 19
3 104 179 147
3 104 212 210
3 119 34 188
3 19 102 183
3 119 217 11
3 75 217 119
3 19 115 123
3 19 123 102
3 245 11 87
3 11 245 50
3 245 31 167
3 245 167 4
3 120 104 147
3 212 104 233
3 179 104 210
3 75 119 188
3 19 34 136
3 136 34 119
3 115 4 21
3 111 4 115
3 111 115 19
3 136 111 19
3 119 11 50
3 50 4 136
3 50 136 119
3 4 111 136
3 4 50 245
3 27 108 101
3 88 71 215
3 108 27 36
3 101 139 46
3 192 46 214
3 101 108 139
3 67 146 71
3 139 108 36
3 139 36 93
3 101 192 27
3 88 168 150
3 63 131 242
3 131 63 214
3 61 71 150
3 42 1 61
3 168 88 242
3 1 67 71
3 88 170 232
3 88 232 242
3 186 27 94
3 94 27 192
3 94 192 34
3 52 209 139
3 34 192 63
3 40 123 139
3 40 47 123
3 194 1 217
3 63 77 34
3 183 5 94
3 232 38 77
3 47 102 123
3 94 34 183
3 160 77 38
3 5 183 107
3 188 77 160
3 47 178 102
3 197 194 217
3 197 217 75
3 206 107 178
3 107 102 178
3 183 102 107
