ply
format ascii 1.0
comment Created in Blender version 4.0.2
element vertex 234
property float x
property float y
property float z
element face 427
property list uchar uint vertex_indices
end_header
-0.43869403 0.2784585 -0.77585983
0.43869403 0.2784585 -0.77585983
-0.546875 0.18576634 -0.578125
0.546875 0.18576634 -0.578125
0.3488228 0.09118802 -0.62615365
-0.3488228 0.09118802 -0.62615365
-0.26774094 0.2867812 -0.8076519
0.26687455 0.28725338 -0.80779004
-0.15625 0.18576634 -0.6484375
0.15625 0.18576634 -0.6484375
0.066086315 0.37215352 -0.6639678
-0.065622516 0.3725515 -0.6643318
-0.23928958 0.37156984 -0.80608076
-0.26078865 0.46093586 -0.80931497
0.2610853 0.46152267 -0.80948544
-0.15625 0.56857884 -0.6484375
0.15625 0.56857884 -0.6484375
-0.3515625 0.64670384 -0.6171875
0.3515625 0.64670384 -0.6171875
0.34613484 0.5024806 -0.79398584
-0.3458208 0.50319725 -0.7943722
-0.43989432 0.46996897 -0.7744814
0.43975952 0.47065225 -0.77488536
-0.546875 0.56857884 -0.578125
0.546875 0.56857884 -0.578125
-0.6333687 0.37318444 -0.5665336
0.63326305 0.37310886 -0.5664936
0.4703293 0.37328976 -0.76447207
-0.47005764 0.37237644 -0.76458853
0.23943132 0.37085468 -0.8062999
-0.35892934 0.2594633 -0.81079715
0.35892934 0.2594633 -0.81079715
-0.019608423 0.4759682 -0.829078
0 -0.05642116 -0.796875
0 0.53732884 -0.6015625
0 1.0295163 0.546875
0 0.69357884 0.8515625
0 -0.25173366 0.3515625
0.2095798 -0.0497839 -0.52733284
-0.3125 -0.30642116 -0.5703125
0.3125 -0.30642116 -0.5703125
0.36448482 -0.80385655 -0.5274626
-0.36579865 -0.79233396 -0.52883995
-0.58227354 0.047104165 -0.5387262
0.57494205 0.04281435 -0.54022324
-0.828125 0.27951634 -0.4453125
0.828125 0.27951634 -0.4453125
-0.8417315 0.5475441 -0.57273144
0.8528309 0.5522723 -0.5882697
-0.31442964 0.87344474 -0.72949654
0.31397328 0.8746111 -0.7296318
-0.15625 0.84982884 -0.7578125
0.15625 0.84982884 -0.7578125
0.0004674596 0.5498971 -0.744456
-0.17639534 0.24734151 -0.74687916
0.40068865 0.14212424 -0.6934391
-0.4049419 0.10842727 -0.6793671
-0.66991055 0.23807395 -0.6055826
-0.572695 0.49651748 -0.688196
0.26233077 0.6242117 -0.75751185
-0.3010683 0.6237725 -0.74711967
0 -0.06423366 -0.75
0 -0.009546161 -0.7421875
-0.10962161 0.0037120283 -0.78485495
0.5909841 0.13021384 -0.6183099
0.7303236 0.51267123 -0.6813742
-0.7018607 0.53744256 -0.70187527
0.2482441 0.7799002 -0.8545774
-0.25297576 0.78725713 -0.850654
0.1015625 0.56076634 -0.84375
0.108559296 0.0064516515 -0.7863111
-0.17297567 -0.15400791 -0.71396947
-0.27328917 -0.7551047 -0.6485037
0.27296674 -0.7551133 -0.64977556
-0.017284159 -0.85339856 -0.5914583
-0.0015673776 0.21159394 -0.7368015
0.19072165 0.23135188 -0.743527
-0.11366302 -0.12924287 -0.7421262
0.030992236 -0.19905084 -0.75042427
0.13056104 -0.095176056 -0.81250244
0.044790655 0.0022769123 -0.7964237
0 -0.07204616 -0.828125
-0.051984068 0.0024131835 -0.7971104
-0.13049243 -0.094512835 -0.81282544
0.00017594143 -0.17598656 -0.79351234
0.13834341 -0.1116011 -0.7319904
0.07158738 -0.7413224 -0.69582164
-0.081206515 -0.7291177 -0.7019417
-0.0658566 -0.62878466 -0.73464566
-0.08197101 -0.63645226 -0.6600031
0.09857334 -0.5993159 -0.7289074
-0.082066886 -0.7005743 -0.6360024
0.06522583 -0.7213707 -0.63184077
0.18744272 0.27757147 -0.7748804
0.32157728 0.56683177 -0.7623732
-0.32375526 0.5653334 -0.76208377
0.4129729 0.5196111 -0.75253403
0.57411474 0.49615538 -0.68672085
-0.5535394 0.2791221 -0.69020206
0.5431589 0.34381294 -0.6832094
0.46076033 0.25120702 -0.7078418
0.37402624 0.21671197 -0.72712946
-0.18810172 0.27707127 -0.7749225
-0.18628702 0.5004174 -0.7813036
0.16208139 0.45491993 -0.7822241
-0.27674875 0.5279567 -0.7667225
-0.1953125 0.42795384 -0.7578125
0.1953125 0.42795384 -0.7578125
-0.2421875 0.25607884 -0.7578125
0.2421875 0.25607884 -0.7578125
-0.37382913 0.21761337 -0.7282363
-0.4609375 0.24826634 -0.703125
-0.546875 0.34201634 -0.671875
0.5546875 0.41232884 -0.671875
-0.5516724 0.41921133 -0.6757832
0.53125 0.46701634 -0.6796875
-0.41156045 0.52170587 -0.75204223
-0.3359375 0.53732884 -0.75
0.28096226 0.52765083 -0.77093685
-0.19986133 0.30378163 -0.7475452
0.19986133 0.30378163 -0.7475452
-0.109375 0.59201634 -0.609375
0.12120509 0.6144773 -0.60758215
0.26146227 0.84011173 -0.6062349
-0.26030272 0.8399335 -0.60740733
-0.484375 0.68576634 -0.5546875
0.484375 0.68576634 -0.5546875
0.7420376 0.52880186 -0.3593446
-0.7372338 0.53421354 -0.36072475
-0.7734375 0.29514134 -0.375
0.7734375 0.29514134 -0.375
0.50481266 0.068082646 -0.45106775
-0.5277529 0.08380292 -0.45040005
0 1.0295163 -0.2890625
0 1.1154538 0.078125
0 -0.06423366 0.671875
0.00043047382 -0.6655625 -0.34866667
-0.0018171961 -0.3436206 -0.26999918
-0.8515625 0.36545384 -0.0546875
0.8515625 0.36545384 -0.0546875
0.83174914 0.48141545 0.38740516
0.49082845 0.54883635 0.69110787
-0.734375 0.08420384 -0.0703125
0.7297253 0.08828899 -0.056862302
-0.59375 0.0060788393 0.1640625
0.59375 0.0060788393 0.1640625
-0.5339099 0.17815678 0.53838116
0.640625 0.12326634 0.4296875
0.02250343 0.16674337 0.8178208
-0.21638492 -0.19470039 -0.35703838
0.18365061 -0.28077695 -0.27266842
0.32219937 -0.78320295 -0.39665607
-0.25 -0.36892116 -0.390625
0.2448423 -0.32748154 -0.37536377
-0.32119238 -0.77953273 -0.40872526
0.007070573 -0.4307766 -0.32714775
-0.059947364 -0.8376758 -0.44194537
0.21875 -0.15017116 -0.4296875
-0.21430366 -0.050396457 -0.5272462
-0.17447631 -0.28382808 -0.26203322
-0.296875 -0.18142116 0.265625
0.296875 -0.18142116 0.265625
-0.34375 -0.01735866 0.5390625
-0.453125 0.99826634 0.3828125
0.453125 0.99826634 0.3828125
-0.453125 1.0607663 0.0703125
0.453125 1.0607663 0.0703125
-0.453125 0.98264134 -0.234375
0.453125 0.98264134 -0.234375
-0.4609375 0.65451634 -0.4296875
0.4609375 0.65451634 -0.4296875
-0.6328125 0.58420384 -0.28125
0.6328125 0.58420384 -0.28125
0.640625 0.83420384 -0.0546875
-0.7814976 0.7071371 -0.09584779
0.796875 0.69357884 -0.125
-0.7871481 0.75457627 0.14998262
0.793073 0.7489477 0.14912565
0.7658494 0.7088391 0.39991874
-0.7682524 0.71051866 0.39307755
-0.45971975 0.5420984 0.7095703
0.39169008 0.050465636 0.5646602
-0.8382379 0.43521696 0.1940352
0.40625 -0.04079616 -0.1484375
-0.44497833 -0.071741715 0.14798354
0.4296875 -0.06423366 0.2109375
0.9184011 0.5664741 0.24865341
-0.7734375 -0.009546161 0.125
0.7734375 -0.009546161 0.125
1.0489967 0.057706244 0.31923646
-1.28125 0.18576634 0.4296875
1.28125 0.18576634 0.4296875
1.3632501 0.4445085 0.44473284
1.2105356 0.6169986 0.39970115
-0.92596513 0.57478356 0.2554775
0.9808836 0.5075391 0.25850832
-1.2076957 0.6204922 0.39635453
-1.2344975 0.3797603 0.433467
-1.2109375 0.20920384 0.40625
-1.0378811 0.05511096 0.30955583
-0.828125 0.06076634 0.1328125
0.8451175 0.081480004 0.14684287
-0.9796744 0.5081595 0.2590872
-0.8933775 0.11956681 0.262959
1.0426433 0.13968861 0.40800965
1.1899422 0.22669233 0.4362253
1.2334349 0.38378298 0.43247676
1.1703479 0.47676942 0.46099925
0.95787036 0.43605044 0.34247604
0.7959218 0.23393394 0.30827373
-0.7907787 0.23554352 0.3089606
-0.8491031 0.1369017 0.30473414
0.71271193 0.13530502 0.1868706
-0.7093217 0.11612201 0.16834463
0.83736855 0.43531337 0.19351934
-0.9724715 0.44212073 0.35919574
0.8496884 0.12881067 0.2957949
-1.1707743 0.47624105 0.46028608
-1.1928192 0.22706527 0.46209112
-1.034042 0.1368187 0.4021293
-0.9770087 0.2472749 0.35673517
1.0096973 0.2859488 0.36679706
-1.1016637 0.36559 0.38851672
1.1101646 0.37495607 0.3954767
1.2231907 0.62056863 0.5514959
-1.2270018 0.6119078 0.55282724
-1.3632796 0.44199473 0.44537616
-1.3125 0.18576634 0.53125
1.3125 0.18576634 0.53125
-1.0390625 0.04514134 0.4921875
1.0390625 0.04514134 0.4921875
-0.7890625 0.0060788393 0.328125
0.7890625 0.0060788393 0.328125
-0.8338459 0.48331717 0.39123496
3 28 0 25
3 1 27 26
3 0 5 2
3 4 1 3
3 30 6 5
3 7 31 4
3 11 8 6
3 12 13 11
3 14 29 10
3 14 10 16
3 25 23 21
3 27 22 26
3 30 0 28
3 27 1 31
3 30 12 6
3 7 29 31
3 30 13 12
3 29 14 31
3 30 20 13
3 14 19 31
3 30 21 20
3 19 22 31
3 30 28 21
3 22 27 31
3 72 74 42
3 67 50 65
3 51 68 49
3 53 69 32
3 59 69 67
3 65 59 67
3 63 56 54
3 70 55 64
3 54 75 63
3 75 76 70
3 76 75 104
3 74 86 73
3 87 72 88
3 63 83 77
3 79 70 85
3 82 63 62
3 33 62 61
3 33 62 80
3 81 84 83
3 84 81 79
3 62 63 75
3 70 62 75
3 158 71 39
3 90 86 92
3 88 90 89
3 92 89 90
3 56 98 110
3 100 55 101
3 99 55 100
3 57 58 98
3 59 97 96
3 60 95 116
3 94 59 96
3 60 103 95
3 104 59 94
3 103 105 95
3 95 105 117
3 94 96 118
3 116 114 58
3 115 97 113
3 97 99 113
3 98 112 111
3 110 108 102
3 102 108 119
3 109 93 120
3 103 106 105
3 107 104 118
3 53 121 34
3 122 53 34
3 49 124 51
3 50 123 126
3 155 154 136
3 155 136 153
3 156 41 151
3 42 154 152
3 151 41 153
3 154 155 152
3 151 136 156
3 149 158 39
3 38 44 131
3 148 135 181
3 15 20 17
3 180 179 233
3 121 124 125
3 123 122 126
3 34 121 122
3 130 127 139
3 182 176 174
3 177 214 175
3 160 184 159
3 184 144 142
3 132 184 142
3 183 131 143
3 149 159 184
3 183 150 157
3 146 180 233
3 141 148 181
3 184 146 144
3 193 192 206
3 198 199 190
3 199 200 187
3 201 189 188
3 204 205 189
3 217 197 196
3 144 213 142
3 145 143 212
3 143 139 214
3 182 202 194
3 195 214 186
3 216 201 212
3 214 209 212
3 214 195 209
3 143 214 212
3 210 215 202
3 211 220 210
3 220 222 215
3 221 208 223
3 210 220 215
3 219 220 203
3 221 204 216
3 220 219 218
3 217 222 197
3 223 207 206
3 215 222 217
3 207 223 208
3 191 192 228
3 226 225 196
3 196 225 194
3 186 140 224
3 225 227 229
3 228 224 230
3 225 226 227
3 228 192 224
3 214 140 186
3 233 231 146
3 232 140 147
3 25 0 2
3 3 1 26
3 0 30 5
3 4 31 1
3 5 6 8
3 9 7 4
3 10 7 9
3 6 12 11
3 10 29 7
3 13 15 11
3 16 19 14
3 17 21 23
3 18 22 19
3 72 39 71
3 26 22 24
3 28 25 21
3 73 41 74
3 40 73 85
3 56 158 43
3 38 64 44
3 57 47 66
3 43 57 56
3 43 45 57
3 64 46 44
3 65 46 64
3 66 49 68
3 68 53 32
3 50 48 65
3 52 50 67
3 69 52 67
3 103 68 32
3 60 66 68
3 65 99 97
3 65 97 59
3 57 66 58
3 104 69 59
3 64 55 99
3 70 76 55
3 54 32 75
3 74 87 86
3 75 32 104
3 88 71 77
3 86 90 73
3 85 90 78
3 88 78 90
3 84 77 83
3 80 62 70
3 33 82 62
3 79 78 84
3 82 83 63
3 33 81 82
3 80 81 33
3 80 79 81
3 92 87 91
3 63 77 71
3 38 40 85
3 158 63 71
3 85 70 38
3 89 87 88
3 110 54 56
3 89 92 91
3 93 76 104
3 103 54 102
3 76 101 55
3 98 114 112
3 56 57 98
3 60 116 58
3 104 94 118
3 95 117 116
3 96 97 115
3 106 102 119
3 98 111 110
3 101 93 109
3 107 93 104
3 121 51 124
3 122 52 53
3 125 47 128
3 50 52 123
3 49 125 124
3 126 48 50
3 128 45 129
3 127 46 48
3 129 43 132
3 130 44 46
3 150 155 153
3 137 159 155
3 156 42 74
3 136 154 156
3 156 74 41
3 159 152 155
3 153 136 151
3 152 39 42
3 157 40 38
3 153 41 40
3 148 162 135
3 158 132 43
3 37 162 160
3 161 135 37
3 159 37 160
3 37 150 161
3 142 129 132
3 150 153 157
3 130 143 131
3 148 180 146
3 134 167 165
3 141 36 148
3 134 168 133
3 163 134 165
3 134 164 166
3 180 35 163
3 35 141 164
3 172 175 127
3 171 128 174
3 176 163 165
3 177 175 173
3 141 140 178
3 180 163 179
3 178 164 141
3 164 177 166
3 174 165 167
3 166 173 168
3 171 167 169
3 168 172 170
3 169 128 171
3 170 127 126
3 133 169 167
3 133 170 122
3 169 121 125
3 174 138 182
3 170 126 122
3 129 138 128
3 139 175 214
3 182 179 176
3 177 140 214
3 183 161 150
3 145 183 143
3 149 132 158
3 131 157 38
3 141 147 140
3 147 185 145
3 184 162 146
3 190 197 198
3 181 161 185
3 194 202 196
3 193 195 186
3 196 197 226
3 191 206 192
3 203 199 219
3 205 191 189
3 219 198 218
3 201 204 189
3 202 217 196
3 197 218 198
3 207 193 206
3 207 195 193
3 213 187 200
3 212 188 145
3 213 138 142
3 211 200 203
3 221 209 208
3 210 213 211
3 216 212 209
3 182 213 210
3 182 210 202
3 209 195 208
3 204 201 216
3 221 205 204
3 203 220 211
3 218 222 220
3 231 199 187
3 223 206 205
3 189 232 188
3 229 190 199
3 191 230 189
3 233 229 231
3 190 227 226
3 192 193 224
3 193 186 224
3 194 225 233
3 140 230 224
3 231 144 146
3 182 194 233
3 145 232 147
3 15 13 20
3 16 18 19
3 17 20 21
3 18 24 22
3 72 42 39
3 40 41 73
3 56 63 158
3 38 70 64
3 57 45 47
3 65 48 46
3 66 47 49
3 68 51 53
3 69 53 52
3 103 60 68
3 60 58 66
3 65 64 99
3 104 32 69
3 54 103 32
3 74 72 87
3 88 72 71
3 85 73 90
3 88 77 78
3 84 78 77
3 79 85 78
3 82 81 83
3 80 70 79
3 92 86 87
3 89 91 87
3 110 102 54
3 76 93 101
3 98 58 114
3 106 103 102
3 107 120 93
3 121 53 51
3 122 123 52
3 125 49 47
3 126 127 48
3 128 47 45
3 127 130 46
3 129 45 43
3 130 131 44
3 150 137 155
3 156 154 42
3 159 149 152
3 152 149 39
3 157 153 40
3 148 146 162
3 37 135 162
3 161 181 135
3 159 137 37
3 37 137 150
3 142 138 129
3 130 139 143
3 148 36 180
3 134 133 167
3 134 166 168
3 163 35 134
3 134 35 164
3 180 36 35
3 35 36 141
3 172 173 175
3 176 179 163
3 164 178 177
3 174 176 165
3 166 177 173
3 171 174 167
3 168 173 172
3 169 125 128
3 170 172 127
3 133 122 169
3 133 168 170
3 169 122 121
3 174 128 138
3 139 127 175
3 182 233 179
3 177 178 140
3 183 185 161
3 145 185 183
3 149 184 132
3 131 183 157
3 141 181 147
3 147 181 185
3 184 160 162
3 190 226 197
3 191 205 206
3 203 200 199
3 219 199 198
3 202 215 217
3 207 208 195
3 213 144 187
3 212 201 188
3 213 182 138
3 211 213 200
3 221 216 209
3 221 223 205
3 218 197 222
3 231 229 199
3 189 230 232
3 229 227 190
3 191 228 230
3 233 225 229
3 140 232 230
3 231 187 144
3 145 188 232
