ply
format ascii 1.0
comment Created in Blender version 4.0.2
element vertex 260
property float x
property float y
property float z
element face 343
property list uchar uint vertex_indices
element edge 4
property int vertex1
property int vertex2
end_header
1.1557467 0.27018332 -0.00017600865
1.1489627 0.27456176 0.06923305
1.1674557 0.30272126 0.00044534597
1.129352 0.4309674 -6.691916e-05
1.1170748 0.38612646 -0.08427556
1.1002585 0.18023193 -0.08160602
1.067669 0.21545196 0.09419909
1.045461 0.4535705 0.084707685
1.0789473 0.47130877 -0.00044502705
1.0354292 0.05090311 0.00047947
1.0350348 0.39924514 0.06838512
1.0433338 0.39642686 -0.0676076
1.0358529 0.22338128 -0.069363594
1.0411571 0.47467208 -1.861298e-05
0.9472947 -0.02578181 -0.0001430953
0.9176485 0.47966403 -0.08177876
1.0428827 0.3313356 -0.00019184414
0.9132696 0.026833296 0.093192205
0.9325686 0.045268416 -0.09475356
1.0326775 0.36126703 2.5977157e-05
1.020895 0.2422328 0.00028551943
1.008645 0.38381147 2.9213901e-05
1.0113491 0.2140854 -2.0225864e-06
0.96593326 0.13827962 -3.7985433e-06
0.90917385 0.0688405 0.00017103177
0.95488316 0.40179962 1.3724471e-07
0.73598415 -0.1436321 -8.364226e-05
0.91868496 0.49721694 4.6093064e-05
0.89668703 0.41069162 3.710026e-06
0.73880774 -0.118994415 0.07135685
0.7744283 -0.023889482 4.748272e-05
0.7684689 -0.031223655 0.058236785
0.7681101 -0.031136692 -0.05924754
0.74163085 -0.10889298 -0.07866192
0.5748123 0.51050186 0.00078746787
0.6037495 0.44379634 0.09569411
0.7988137 -0.016443402 0.00081964664
0.77078396 -0.016323328 7.710385e-05
0.6038318 0.4430895 -0.097550556
0.7404844 -0.15027377 1.02964605e-05
0.7446926 -0.15033926 -0.00033680737
0.7643195 0.41588134 5.8868384e-08
0.61663485 0.41734296 4.178323e-05
0.74069554 -0.017180502 -0.23951541
0.73078156 0.22137183 -2.8635886e-06
0.6925589 -0.15869689 0.27235362
0.70958704 0.22817892 -0.17771462
0.61882585 -0.016503185 0.5020223
0.6413057 -0.14874718 -0.39509428
0.6744353 0.22814584 0.28546566
0.5502196 0.60302365 -0.00017934009
0.59353477 -0.01692143 0.516687
0.5020223 -0.016503096 -0.61882585
0.53878206 0.596422 0.17246826
0.5739663 0.17181695 -0.49269727
0.516687 -0.016921341 -0.59353477
0.5888034 -0.3039 -0.0009224768
0.4926973 0.17181683 0.5739664
0.44348472 0.5753109 -0.38176605
0.5384182 -0.30408508 0.22797038
0.5803439 -0.30476788 1.4823954e-05
0.5760405 0.50430983 -0.00020422894
0.571329 -0.33066475 -0.00010928308
0.52101547 -0.35312608 -3.3012784e-05
0.5205998 0.60357165 -0.15749493
0.5455231 -0.30665573 0.22920646
0.3817661 0.5753108 0.44348478
0.46855733 -0.30561334 -0.34810674
0.47657415 -0.33360386 -0.33238384
0.3950943 -0.14874725 0.6413057
0.541326 0.56002665 0.00040687172
0.54581064 0.5581678 -0.0009277625
0.49233016 0.5593782 0.21059437
0.5182882 0.5639962 0.00037707647
0.51580834 0.56786305 -0.0005489019
0.33238384 -0.33360392 0.47657415
0.41549388 0.5604723 -0.3576964
0.41149813 0.5925104 -0.35119322
0.46358338 0.5609304 -0.1965864
0.3841527 0.59206957 0.30784577
0.3854774 0.5596379 0.33112544
0.34810674 -0.3056134 0.46855733
0.3078457 0.59206957 -0.38415265
0.35769647 0.56047225 0.41549394
0.35119328 0.59251034 0.4114982
0.2723536 -0.15869682 -0.6925589
0.07326744 0.6662922 -3.1870826e-05
0.33112538 0.5596379 -0.38547733
3.3013595e-05 -0.3531261 0.52101547
0.17246819 0.5964221 -0.538782
0.22797038 -0.30408502 -0.5384182
0.23951544 -0.017180592 0.74069554
0.28546563 0.2281459 -0.67443526
0.22920646 -0.30665568 -0.5455231
0.2105943 0.55937827 -0.4923301
0.00081962027 -0.016443342 -0.7988137
0.17771466 0.22817886 0.7095871
0.19658647 0.5609303 0.46358344
0.0570872 0.6677934 0.049286228
0.04928615 0.6677934 -0.057087123
0.00092248135 -0.30390006 0.5888034
0.157495 0.6035716 0.52059984
0.00013096596 -0.30572164 0.5850341
-3.3013595e-05 -0.35312605 -0.52101547
0.0009278321 0.55816776 0.5458107
0.00037700642 0.56399626 -0.51828814
0.15378088 -0.363334 7.0976546e-07
0.14939702 0.8279022 4.1620075e-05
0.15238442 0.8294699 -0.0003208586
0.114207275 0.8163942 0.099246636
0.0008018741 -0.018206507 -0.79645216
0.0003368235 -0.15033932 0.7446926
0.09924655 0.8163942 -0.114207186
7.097262e-07 -0.363334 -0.15378088
0.00010928558 -0.3306648 0.571329
-0.00017941308 0.6030237 -0.55021954
0.00040680196 0.5600267 -0.5413259
0.0005489723 0.567863 0.5158084
0.06466707 0.6691667 -0.0008961301
0.059653655 0.66743994 0.00018996764
0.043763697 0.70597374 -0.04715176
0.059574585 0.6756884 0.05113915
0.05113907 0.6756884 -0.059574507
0.04715184 0.70597374 0.04376378
4.153011e-05 0.8279022 -0.14939693
0.00032094872 0.8294699 0.1523845
0.0008962081 0.6691667 0.06466714
0.00018988975 0.66743994 -0.059653576
0.00030387647 -0.016876876 0.77590096
-0.00018988975 0.66743994 0.059653733
-0.00037700642 0.56399614 0.51828825
-0.00010928558 -0.33066472 -0.571329
-0.00013096596 -0.30572152 -0.5850341
-0.00040680196 0.5600266 0.54132605
0.00017941308 0.6030236 0.55021966
-4.153011e-05 0.8279022 0.1493971
3.194859e-05 0.6662922 0.07326751
0 -0.36385405 0
-7.097262e-07 -0.36333403 0.15378088
-0.00092248135 -0.30389997 -0.5888034
-0.0003368235 -0.1503392 -0.7446926
-0.00081962027 -0.016443461 0.7988137
2.907742e-06 0.22137171 0.7307817
-0.0005489723 0.5678631 -0.5158083
-0.0009278321 0.5581679 -0.5458106
-3.194859e-05 0.6662922 -0.07326736
-0.0008962081 0.6691667 -0.064666994
-0.00032094872 0.8294699 -0.15238433
0 0.8501468 9.165451e-08
-0.043763697 0.70597374 0.047151923
-0.05113907 0.6756884 0.059574664
-0.04928615 0.6677934 0.05708728
-0.04715184 0.70597374 -0.043763615
-0.059574585 0.6756884 -0.051138993
-0.0570872 0.6677934 -0.04928607
-0.09924655 0.8163942 0.114207365
-0.15238442 0.8294699 0.00032103882
-0.3078457 0.59206957 0.38415277
-0.114207275 0.8163942 -0.09924646
-0.06466707 0.6691667 0.0008962861
-0.059653655 0.66743994 -0.00018981191
-0.14939702 0.8279022 -4.1440126e-05
-0.07326744 0.6662922 3.202637e-05
-0.157495 0.6035717 -0.5205997
-0.15378088 -0.363334 -7.096869e-07
-0.17246819 0.59642196 0.5387821
-0.22920646 -0.30665576 0.5455231
-0.22797038 -0.3040851 0.5384182
-0.17771466 0.22817898 -0.709587
-0.2723536 -0.15869693 0.6925589
-0.23951544 -0.017180473 -0.74069554
-0.52101547 -0.35312608 3.3014407e-05
-0.3841527 0.59206957 -0.30784565
-0.33238384 -0.33360386 -0.47657415
-0.19658647 0.56093043 -0.46358332
-0.2105943 0.55937815 0.49233022
-0.28546563 0.22814578 0.6744354
-0.3950943 -0.14874716 -0.6413057
-0.47657415 -0.33360392 0.33238384
-0.33112538 0.5596379 0.38547745
-0.35119328 0.59251046 -0.41149807
-0.35769647 0.56047237 -0.41549382
-0.3817661 0.57531095 -0.44348466
-0.34810674 -0.30561334 -0.46855733
-0.3854774 0.5596379 -0.33112532
-0.41149813 0.5925104 0.35119334
-0.41549388 0.5604723 0.35769653
-0.4926973 0.17181695 -0.57396626
-0.44348472 0.5753109 0.38176617
-0.5020223 -0.016503215 0.61882585
-0.516687 -0.01692146 0.59353477
-0.61882585 -0.016503125 -0.5020223
-0.53878206 0.596422 -0.17246811
-0.46855733 -0.3056134 0.34810674
-0.5739663 0.17181683 0.49269733
-0.5205998 0.60357165 0.15749508
-0.51580834 0.56786305 0.00054904254
-0.46358338 0.5609304 0.19658655
-0.59353477 -0.016921371 -0.516687
-0.5182882 0.5639962 -0.00037693637
-0.6413057 -0.14874724 0.39509434
-0.5455231 -0.3066557 -0.22920646
-0.5384182 -0.30408505 -0.22797038
-0.49233016 0.5593782 -0.21059422
-0.571329 -0.33066475 0.000109288085
-0.54581064 0.5581678 0.0009279017
-0.6925589 -0.15869686 -0.27235356
-0.541326 0.56002665 -0.0004067322
-0.5502196 0.60302365 0.00017948607
-0.6744353 0.22814584 -0.2854656
-0.5888034 -0.3039 0.0009224859
-0.5850341 -0.30572158 0.00013097035
-0.70958704 0.22817892 0.1777147
-0.73078156 0.22137183 2.9519551e-06
-0.7446926 -0.15033926 0.0003368396
-0.65517503 -0.13261579 1.7458003e-08
-0.6572335 -0.14003837 -0.00042415335
-0.6557214 -0.0978964 -0.14497414
-0.65479904 -0.100088686 0.13245778
-0.65505344 0.09962213 0.18379174
-0.65547585 0.074491054 -0.2014193
-0.65532714 0.18987793 -0.0006529226
-0.6551181 0.19292223 0.0010158527
-0.74069554 -0.017180562 0.23951547
-0.7988137 -0.016443402 -0.00081959413
-0.8715623 0.23794836 0.00051904964
-0.86704695 0.22917706 -0.00015519859
-0.8757122 0.21202946 0.10500534
-0.8865908 0.21674985 -0.11118876
-0.9441082 0.16461402 0.16401824
-0.77590096 -0.016876817 0.00030390266
-0.928555 0.15598786 -0.16380511
-0.82579106 -0.03574714 0.15340593
-0.95645064 -0.023493946 -0.00092858163
-0.9446583 0.045863926 -0.13611448
-0.9835283 0.017113805 0.0012549371
-0.99856293 0.54044265 0.00042517477
-1.0926948 0.56142133 0.06378245
-1.0786242 0.56292933 -0.06003495
-1.0991279 0.44470757 0.0643893
-1.0942035 0.43794006 -0.06525427
-1.0534275 0.5443446 -0.00037758163
-1.0541011 0.54434836 -0.0010632869
-1.0398065 0.55881697 -0.0004794122
-1.0513588 0.56085587 0.0344084
-1.1262337 0.45080674 -0.00039705285
-1.0903841 0.5815011 -0.00067011785
-1.0863107 0.5865046 0.0025919362
-1.0823503 0.5552781 -0.0048306887
-1.0905308 0.56209546 0.02923884
-1.1255406 0.562641 0.07686267
-1.2799232 0.5918882 -0.058238313
-1.2218653 0.5625391 -0.025432676
-1.2666645 0.57230234 0.0006369321
-1.2312869 0.57253003 0.0009622234
-1.257317 0.5885653 0.05823906
-1.241113 0.5615833 0.051538203
-1.2645465 0.58013415 0.008619675
-1.3182523 0.5925038 1.4794488e-06
-1.3278482 0.58840376 0.00027742694
3 185 186 205
3 205 195 185
3 186 185 175
3 205 208 195
3 134 133 175
3 185 195 165
3 165 175 185
3 175 165 134
3 188 165 195
3 84 83 104
3 104 101 84
3 83 84 72
3 104 134 101
3 50 70 72
3 84 101 53
3 53 72 84
3 72 53 50
3 66 53 101
3 77 76 71
3 71 64 77
3 76 77 94
3 71 50 64
3 115 116 94
3 77 64 89
3 89 94 77
3 94 89 115
3 58 89 64
3 180 181 144
3 144 163 180
3 181 180 203
3 144 115 163
3 208 207 203
3 180 163 192
3 192 203 180
3 203 192 208
3 182 192 163
3 212 195 208
3 208 213 212
3 195 212 188
3 176 165 188
3 194 188 212
3 188 194 176
3 141 165 176
3 141 134 165
3 223 212 213
3 213 230 223
3 223 194 212
3 194 223 190
3 190 176 194
3 176 190 141
3 96 101 134
3 134 142 96
3 101 96 66
3 49 53 66
3 57 66 96
3 66 57 49
3 36 53 49
3 36 50 53
3 91 96 142
3 142 128 91
3 91 57 96
3 57 91 51
3 51 49 57
3 49 51 36
3 46 64 50
3 50 44 46
3 64 46 58
3 92 89 58
3 54 58 46
3 58 54 92
3 95 89 92
3 95 115 89
3 43 46 44
3 44 37 43
3 43 54 46
3 54 43 55
3 55 92 54
3 92 55 95
3 168 163 115
3 115 110 168
3 163 168 182
3 209 192 182
3 187 182 168
3 182 187 209
3 224 192 209
3 224 208 192
3 170 168 110
3 170 187 168
3 187 170 198
3 198 209 187
3 209 198 224
3 214 223 230
3 223 214 200
3 200 189 223
3 169 128 189
3 169 189 200
3 102 128 169
3 210 200 214
3 200 210 193
3 167 169 200
3 200 193 167
3 169 167 102
3 111 91 128
3 91 111 69
3 69 47 91
3 45 37 47
3 37 45 39
3 45 47 69
3 100 69 111
3 69 100 81
3 59 45 69
3 69 81 59
3 45 59 39
3 60 39 59
3 40 43 37
3 43 40 48
3 48 52 43
3 85 110 52
3 85 52 48
3 132 110 85
3 56 48 40
3 48 56 67
3 90 85 48
3 48 67 90
3 85 90 132
3 140 170 110
3 170 140 177
3 177 191 170
3 206 230 191
3 206 191 177
3 211 230 206
3 139 177 140
3 177 139 183
3 202 206 177
3 177 183 202
3 206 202 211
3 10 35 42
3 42 28 10
3 35 10 7
3 7 34 35
3 34 7 27
3 27 7 13
3 28 21 10
3 3 13 7
3 21 19 10
3 1 3 7
3 19 16 10
3 0 3 1
3 61 15 38
3 41 42 38
3 61 27 15
3 38 15 11
3 28 41 38
3 38 11 28
3 27 8 15
3 25 28 11
3 4 15 8
3 15 4 11
3 21 25 11
3 8 3 4
3 3 2 4
3 16 21 11
3 10 16 6
3 6 7 10
3 6 1 7
3 16 20 6
3 9 0 1
3 17 20 22
3 22 24 17
3 17 6 20
3 9 1 6
3 6 17 9
3 29 9 17
3 9 29 26
3 31 17 24
3 17 31 29
3 24 37 31
3 5 4 2
3 12 11 4
3 4 5 12
3 11 12 16
3 22 16 12
3 2 9 5
3 9 14 5
3 18 12 5
3 23 22 12
3 5 14 18
3 12 18 23
3 24 23 18
3 30 24 18
3 18 33 32
3 14 26 33
3 33 18 14
3 18 32 30
3 222 225 227
3 227 219 222
3 219 227 229
3 232 218 219
3 219 229 232
3 218 232 216
3 235 216 232
3 232 229 235
3 237 229 227
3 229 237 239
3 239 235 229
3 236 227 225
3 227 236 237
3 245 235 239
3 253 245 239
3 236 242 237
3 256 239 237
3 256 253 239
3 233 217 215
3 220 231 228
3 228 221 220
3 221 228 226
3 234 217 233
3 234 220 217
3 220 234 231
3 233 245 240
3 240 234 233
3 240 231 234
3 231 240 238
3 231 238 228
3 236 226 228
3 228 238 236
3 245 257 251
3 251 240 245
3 251 238 240
3 241 236 238
3 255 257 250
3 257 255 259
3 247 244 243
3 247 250 244
3 250 247 255
3 259 255 254
3 247 248 249
3 249 255 247
3 255 249 254
3 246 243 238
3 257 259 251
3 238 251 246
3 259 258 251
3 252 251 258
3 248 246 251
3 258 254 252
3 251 252 248
3 148 156 135
3 156 155 135
3 149 155 156
3 156 159 149
3 155 149 129
3 129 135 155
3 150 149 159
3 149 150 129
3 148 125 107
3 125 109 107
3 123 109 125
3 125 126 123
3 109 123 119
3 119 107 109
3 121 123 126
3 123 121 119
3 148 108 124
3 108 112 124
3 120 112 108
3 108 118 120
3 112 120 127
3 127 124 112
3 122 120 118
3 120 122 127
3 148 147 161
3 147 158 161
3 152 158 147
3 147 146 152
3 158 152 160
3 160 161 158
3 153 152 146
3 152 153 160
3 157 151 162
3 157 136 151
3 130 136 157
3 162 196 157
3 197 157 196
3 157 197 179
3 157 179 130
3 79 98 136
3 79 86 98
3 73 86 79
3 136 117 79
3 97 79 117
3 79 97 80
3 79 80 73
3 82 99 86
3 82 145 99
3 105 145 82
3 86 74 82
3 78 82 74
3 82 78 87
3 82 87 105
3 172 154 145
3 172 162 154
3 199 162 172
3 145 143 172
3 174 172 143
3 172 174 184
3 172 184 199
3 137 164 103
3 164 171 103
3 173 103 171
3 103 173 131
3 201 173 171
3 173 201 183
3 171 211 201
3 173 183 132
3 132 131 173
3 137 113 63
3 113 103 63
3 68 63 103
3 63 68 62
3 93 68 103
3 68 93 67
3 103 132 93
3 68 67 60
3 60 62 68
3 137 106 88
3 106 63 88
3 75 88 63
3 88 75 114
3 65 75 63
3 75 65 81
3 63 60 65
3 75 81 102
3 102 114 75
3 137 138 171
3 138 88 171
3 178 171 88
3 171 178 204
3 166 178 88
3 178 166 193
3 88 102 166
3 178 193 211
3 211 204 178
0 2
34 61
247 246
8 13
