ply
format ascii 1.0
comment Created in Blender version 4.0.2
element vertex 54
property float x
property float y
property float z
element face 108
property list uchar uint vertex_indices
end_header
-0.46855503 0.07092534 0.023690095
-0.29432893 0.025388902 0.06985374
-0.31608596 -0.070300855 0.08701676
-0.4417912 -0.09731552 0.0039453544
-0.31577623 0.09771901 0.2002797
-0.3031033 -0.09763929 0.29349482
-0.40817907 -0.033531632 0.28632316
-0.35232309 0.0746963 0.31763583
-0.18108736 0.027341744 0.24303633
-0.18611993 -0.07079873 0.2707653
0.0928184 0.09476906 0.43973213
-0.124906 -0.06887559 0.45741674
-0.06970378 0.014600541 0.5006582
-0.05005505 0.07078745 0.32667157
0.013895678 -0.025003467 0.29695344
0.14476411 -0.09853762 0.36437178
0.14717732 -0.07677755 0.44175133
0.27319488 0.09811482 0.2746865
0.21221544 -0.07062755 0.2545601
0.29699838 0.02615416 0.3971687
0.19517216 0.030301705 0.23213187
0.3996653 0.07567968 0.23211654
0.2689942 -0.026424292 0.13434958
0.3609832 -0.09734544 0.22815692
0.41376808 -0.028494481 0.27885112
0.31814754 0.07135272 0.08248712
0.46606955 -0.075038716 0.057596277
0.49237287 0.02722492 0.033761542
0.42629096 0.09757066 -0.05681602
0.32925105 -0.07536101 -0.09618101
0.29594746 -0.02656052 -0.0384879
0.28654063 0.083407894 -0.22079143
0.41772705 -0.09336167 -0.17420982
0.45711213 0.026030036 -0.19394952
0.26928028 0.08000843 -0.38898855
0.24738546 0.026118545 -0.17197022
0.29017186 -0.028812556 -0.39874354
0.064054064 -0.08276273 -0.35815305
0.14441265 -0.09750625 -0.40334183
-0.027570793 0.09758173 -0.38514927
0.07754215 -0.02523698 -0.29209515
0.061525896 0.048024844 -0.30931127
0.08761802 -0.022513358 -0.48814523
-0.052463032 0.07264526 -0.46584442
-0.21180137 0.028170131 -0.4504935
-0.13966772 0.0007151202 -0.25628284
-0.26579598 -0.097665824 -0.33224422
-0.22112128 -0.07210862 -0.42842755
-0.28081352 -0.070409164 -0.17347968
-0.3395926 0.08332278 -0.108299695
-0.26702097 0.023763224 -0.13594706
-0.4123827 0.029378965 -0.27910647
-0.3554266 0.09712379 -0.2536864
-0.50027055 -0.026481599 -0.06169636
3 4 49 52
3 2 5 3
3 3 6 53
3 7 4 0
3 8 2 1
3 5 6 3
3 8 9 2
3 12 7 6
3 7 10 4
3 10 13 4
3 11 6 5
3 8 14 9
3 9 15 5
3 15 11 5
3 18 15 14
3 19 10 12
3 20 14 13
3 20 18 14
3 24 19 16
3 22 18 20
3 23 24 16
3 25 20 17
3 24 21 19
3 18 23 15
3 25 22 20
3 23 26 24
3 24 27 21
3 28 17 21
3 29 23 18
3 28 25 17
3 26 27 24
3 33 28 27
3 29 32 23
3 31 35 25
3 35 30 25
3 32 33 27
3 35 29 30
3 36 34 33
3 36 33 32
3 40 37 29
3 38 36 32
3 31 41 35
3 42 34 36
3 38 42 36
3 47 42 38
3 41 45 40
3 38 46 47
3 48 46 37
3 52 49 39
3 51 52 44
3 53 51 47
3 53 0 51
3 51 0 52
3 1 48 50
3 1 2 48
3 0 4 52
3 49 4 1
3 38 29 37
3 2 9 5
3 4 8 1
3 4 13 8
3 11 12 6
3 12 10 7
3 13 14 8
3 14 15 9
3 15 16 11
3 11 16 12
3 10 17 13
3 17 20 13
3 16 19 12
3 19 21 10
3 10 21 17
3 15 23 16
3 27 28 21
3 22 29 18
3 22 30 29
3 25 30 22
3 28 31 25
3 23 32 26
3 26 32 27
3 33 34 28
3 53 46 3
3 34 39 28
3 28 39 31
3 35 40 29
3 41 40 35
3 31 39 41
3 42 43 34
3 34 43 39
3 42 44 43
3 40 45 37
3 47 44 42
3 43 52 39
3 39 45 41
3 37 46 38
3 44 52 43
3 45 48 37
3 47 51 44
3 39 49 45
3 50 48 45
3 49 50 45
3 48 3 46
3 0 6 7
3 48 2 3
3 49 1 50
3 38 32 29
3 53 47 46
3 0 53 6
